<svg xmlns="http://www.w3.org/2000/svg" xmlns:xlink="http://www.w3.org/1999/xlink" viewBox="0 0 186.08 173.99"><defs><style>.cls-1{isolation:isolate;}.cls-2{opacity:0.23;mix-blend-mode:overlay;}.cls-3{fill:url(#linear-gradient);}.cls-4{fill:#d17652;}</style><linearGradient id="linear-gradient" x1="7.44" y1="89.07" x2="176.32" y2="89.07" gradientUnits="userSpaceOnUse"><stop offset="0" stop-color="#fff"/><stop offset="0.03" stop-color="#d0d0d0"/><stop offset="0.07" stop-color="#9a9a9a"/><stop offset="0.1" stop-color="#6b6b6b"/><stop offset="0.14" stop-color="#444"/><stop offset="0.18" stop-color="#262626"/><stop offset="0.21" stop-color="#111"/><stop offset="0.25" stop-color="#040404"/><stop offset="0.28"/></linearGradient></defs><g class="cls-1"><g id="Layer_2" data-name="Layer 2"><g id="Background"><g class="cls-2"><polygon class="cls-3" points="176.32 164.4 163 63.49 132.17 43.87 127.27 27.76 52.99 7.44 12.36 18.55 7.44 137.07 29.17 165.1 54.39 162.29 125.86 165.1 145.49 170.7 176.32 164.4"/><path class="cls-4" d="M162.05,167.22a10.7,10.7,0,0,0,1.11,0C162.16,167.47,161.66,167.55,162.05,167.22Z"/><path class="cls-4" d="M176.48,165.22c-3.67.77-9.5,2-13.32,2C166.38,166.31,174.94,163.33,176.48,165.22Z"/><path class="cls-4" d="M160.7,163.92l4.71-.3C162.84,164.74,163.13,163.64,160.7,163.92Z"/><polygon class="cls-4" points="162.77 165.56 162.69 166.39 160.09 166.13 162.77 165.56"/><path class="cls-4" d="M4,68.76c-.36.47-.75.75-1.22.5Z"/><path class="cls-4" d="M8,58.09c.17-1,.25-1.64.31-2.22A7.83,7.83,0,0,1,8,58.09Z"/><path class="cls-4" d="M3.88,78.59l0-1.92A7.25,7.25,0,0,1,3.88,78.59Z"/><path class="cls-4" d="M55.25,165.29c1.76.64,3.44,1.23,4.71,1.63C56.46,167.4,56.21,166.08,55.25,165.29Z"/><path class="cls-4" d="M24.39,24.43l.28-.73C25.24,23.84,25.55,24,24.39,24.43Z"/><path class="cls-4" d="M18.71,55.94a.93.93,0,0,1-.82-.29c.06-.19.1-.38.17-.55Z"/><path class="cls-4" d="M4.85,86.26a1.05,1.05,0,0,1,.07.11l-.46,1.54A1.8,1.8,0,0,1,4.85,86.26Z"/><path class="cls-4" d="M39.28,21.27a7.28,7.28,0,0,1,2.19.84C40,22.22,39.16,21.8,39.28,21.27Z"/><path class="cls-4" d="M8.31,55.6s0,0,0,0l0,.29C8.3,55.77,8.32,55.7,8.31,55.6Z"/><path class="cls-4" d="M17.37,71.53c.14-.82.25-1.59.43-2.46A4.1,4.1,0,0,1,17.37,71.53Z"/><path class="cls-4" d="M55.25,165.29l-.76-.35-.43-.12a2,2,0,0,1,.42,0A1.73,1.73,0,0,1,55.25,165.29Z"/><path class="cls-4" d="M150,171.15c-1.45.3-2-.05-2.31-.45A6.21,6.21,0,0,1,150,171.15Z"/><path class="cls-4" d="M179.93,160.19l.06.6A1.7,1.7,0,0,1,179.93,160.19Z"/><path class="cls-4" d="M174,102.59a3.38,3.38,0,0,1,.41-.83A.52.52,0,0,1,174,102.59Z"/><path class="cls-4" d="M146.79,64.56a12.86,12.86,0,0,1,4.7,3.17l1,1,.25.25.12.12s0,0,0,0v.17c0,.2,0,.35,0,.41a5.06,5.06,0,0,0,.46-.65,1.45,1.45,0,0,1-.15.68h0l1.05-.67a2,2,0,0,0,0,.91l0,.2.13.92.29,2c.35,2.61.48,4.82-.28,5.93l1.71-.87-.66,6,.78-3.46c1.23,6.43,1.13,16.46,1.33,17.84l.59-.67c.48,1,.15,1.91.08,3l.89-1c1,9.79,3.62,12.16,4,23.2.63,2.94.11-1.69.66-1.81,1,1.52.75,5.43.42,6.32,1.45-1.07.37-5.6,2.08-2.28-.44,2.58,1.23-1.88,1.49,2.52l-1.78,2c.67,2.38,1.64.28,1.95,4.14-.3,4.49-3-5.06-2.35,2,.6,3.52,5.63,6.82,5.45,13.82,1.83,5.77,2.71-3.53,3.28,4.72l.62-5.41c.75,1.28,1.64.29,1.69,3.89a11.56,11.56,0,0,0-1.19,5.47c.51-7.86,3.17,6.41,4.2-1l.28,2.67c0-.34.22-.45.39-.29l.61,3.51c.15-2.24-.35-7.44,1.44-5.23l1,5.07c.93-1.52,1.64.3,2.5-.12l.16-15.32c-.59.68-.74,2.9-1.52,2.18-1.12-3.94.77-3.44-.65-7.09l-.66,1.79c.29-.35.33-.89.55-.08.75,1.24.16,1.91-.4,2-1.3-1.17-1.05-5.07-.42-6.31-.78-4.87-2.16-.74-2.64-1.77,1.55-2.77-1.13-8.15-.65-11.29l-1,2.1c-2-3.52-1.19-7-1.05-9.24l-.89,1c-.49-5.2-4.21-7.33-1.17-11.74L175,110c-.6-2.08-1.77-5.21-1-7.38a1.35,1.35,0,0,1-1.23-1.13c1.23-1.33-.11-3.4-.77-6.5-.08,2.13-1.95,1.7-2.09,4-2.47-4.59,1.4-4.69.84-8.75-1.23-2.31-.71,2.32-1.3,3,.14-6.39-5.82-12.33-2.77-16.75l1.49,2.54c.44-2.59.25-3.94,0-3.59a1.27,1.27,0,0,1-.37,1.42,15.88,15.88,0,0,1-1-7.17c.09-1,.18-2.56.28-4s.19-3.1.2-4.8a34.18,34.18,0,0,0-2.9-2.3c-.54-.39-1.11-.77-1.72-1.15l-.92-.57-.48-.27-.25-.14-.17-.09a1.53,1.53,0,0,0,.28.7l.44.68c.28.42.47.77.31,1-2.24-1-2.25-2-2.84-3.35s-1.33-2.61-4.11-3.55l.52,1.26c-1.85-.63-2.43-2.33-2.09-2.39-1.77,2.5-10.09-6.59-15.58-5.36a7.78,7.78,0,0,0-.59-1c-.19-.32-.38-.63-.59-.94-.42-.62-.88-1.23-1.34-1.78a18,18,0,0,0-.37-3.19,9,9,0,0,0-1.23-3c-2.77-2.81-1,3.55-3,2.81a12,12,0,0,1-.34-3.7,11.94,11.94,0,0,0-1.16-4.92c.36-.28.89,0,1.49.52s1.25,1.27,1.81,1.81c1.13,1,1.9,1.24.67-4.47-.42-.33-.83-.64-1.24-.91a15.25,15.25,0,0,1,1.46,3.92c0,1.71-.43,1.32-.88.55a13.75,13.75,0,0,0-1.28-2.15l-1-4-6.37-2.07c-.21-1.93,6.56.36,7.63.18-2.42-.57-5-1-7.53-1.43l-.94-.14c-.3,0-.67-.11-.85-.12l-1.34-.13L118,20.83c-3.56-.4-7-1-9.78-2.35l.37.81c-7.06-3.53-5.23,2-10.4-2.43-3.26-.4.62,2.16-4.15,1-1.34-.36-.38-.8-.08-1-5.65-2.21-3,1-8-2.12L86.7,17c-6-3-11.88-8.09-17.63-8.81-.06,1.51,3.4,2.32,4.47,3.77a33,33,0,0,0-9.6-4c-1.75-.5-3.54-.94-5.28-1.38L56,5.8c-1-.27-2-.55-3-.84a32.36,32.36,0,0,1-5.41,1c1.74-1.78-4-1.92.11-4.14a3.82,3.82,0,0,0,.43.33,2.11,2.11,0,0,0,.6.15,4,4,0,0,0,1.29,0,17.92,17.92,0,0,0,3-.89,22.69,22.69,0,0,1,3.17.77A9.22,9.22,0,0,0,53,0a22.37,22.37,0,0,0-3.33.61c-.58.15-1.23.33-1.8.5q-.57.18-1.14.39c-1.54.57-3.1,1.29-4.56,1.93-2.9,1.28-5.37,2.22-6.28.86L35.25,6c-1.12.08-4.11-.26-2.37-1.21l-7.39,3c3,.34,9.31,1.27,10.66-.76,2.59.92-2.85,1.86-.45,3.07-5.77-1-2.87,1.86-8.31,2.8,1.83-2.72-6-1.36-6.07-2.42-.94.67-7.48,1.43-10.28,1.45-1.36.32-3.1.89-5,1.56.07,2.94.21,6.3.25,9.51,0,.8,0,1.6,0,2.39l0,2.08a20.7,20.7,0,0,1-.31,2.94,29.94,29.94,0,0,1,1.33-3.13c.13-.2.26-.54.41-.81a3.59,3.59,0,0,1,.43-.66c.3-.35.62-.49.95-.36-.22.72-.41,1.66-.51,2.19a7.49,7.49,0,0,0-.12,1.73c.06,1.07.43,1.89,1.21,2.16.81-2.19,1-3.47.86-4.29a2.86,2.86,0,0,0-1.11-1.8A3.53,3.53,0,0,1,8.07,23.5a11.38,11.38,0,0,1,.32-5.1,6.12,6.12,0,0,0,1.49-1.83,43.24,43.24,0,0,0,7.83-.73c-.75.74-.77,1.13-.67,1.51a5.37,5.37,0,0,1,.42,1.39,12.08,12.08,0,0,0-5.26-.32,41.45,41.45,0,0,0-.35,7.75A24.36,24.36,0,0,1,11,34c-1.22,2.75-3.53.55-4.2,6.85l-.94-5.48c.81,6-1.18,1.36-1.8,6.27l1.31-1.91c.12,3-.15,4.12-1.11,5.76l2-2.48c.17,1.64.29,4.66-.84,4.65a1.74,1.74,0,0,0,1.14.61c-.33.31-.57,1.07-.59,3,.27-1.1.18-1.91.75-1.91-.75,7.23,2,1.78,1.62,6.26.47-.69,1,.61,1.14,2.23-3-.23-3.76,8.66-5.53,11l0,0-1.46,6c.3-1.22,1.06.14,1.31,1.92v-.29c.39,2,3.36-2.16,2.25,3.59l-1,3c.13-.54.57,0,.79.29l-1,3.1c2.61,4.9-2,9-.81,14.66-.17-1.63.14-4.1,1-3a5.51,5.51,0,0,1-.58,3.57l.35-.27L2.59,112c1.05-.83,1.37-6.84,2.41-4.1,1.3,1.64-.28,4.66-.46,6.58-.78-.28-1.34-3.86-1.91-.29.37.46,1.05,3.91,1.68,2.32-1,3.65-1.67,9-3.21,12.2.3,1.06.7-.57.83-1.12l-.22-.27c.53-2.2,2.05-.25,1.41-4.64,1.31-.13,1.42,1.45,1.24,3.53-.1,1-.27,2.22-.4,3.37-.06.57-.12,1.14-.16,1.69,0,.27,0,.54,0,.79v.82a8.11,8.11,0,0,1,.26-.82l.25-.75.51-1.5,1-3a26,26,0,0,1,1,5c.08.84.13,1.79.15,2.7s0,1.85,0,2.79a105.87,105.87,0,0,1,7.05,10.55,113.42,113.42,0,0,0,6.35,9.76c-2.47-1.86-3.39-4.3-4.77-2.77a50.19,50.19,0,0,0,3.07,5.08c.91,1.28,1.83,2.55,3.93,5.5l-.4-.7a28.87,28.87,0,0,1,4.74,5.89c2.5-.13,5-.35,6.56-1.45-.82-.41-2.11-.11-3.38.16s-2.44.49-2.58-.11a2.05,2.05,0,0,1,.16-.78l.1.15,9.59-.89a3.54,3.54,0,0,0-.76-.22l-.41-.07-.55,0a18.11,18.11,0,0,0-2.39.1c-1.68.16-3.55.48-5.33.75a31.38,31.38,0,0,1-2.42-3.12c-1.41-1.65,1.48,2.31,1.94,4.26.31.16.34.4-.07.73l-.25,0c-1.55-2-2.74-3.76-3.66-5.23-.45-.74-.84-1.42-1.17-2l-.23-.47c-.07-.14-.11-.24-.16-.36s-.17-.46-.24-.69a28.31,28.31,0,0,1-1-5.47c-.12-2.72,3.25,1.58,4.1,2.66A20.06,20.06,0,0,0,26,162.4,38.09,38.09,0,0,0,28.35,167a45.38,45.38,0,0,0,6.09-.28l1.64-.21c.46-.06.93-.14,1.4-.23.94-.17,1.88-.38,2.84-.62l3.82-2.16c3.79,1.15,2.59,4.37,9.08,3.26l-2.08-1a13.46,13.46,0,0,1,1.75-.7,6.24,6.24,0,0,1,1.17-.26c-.26-.09-.67-.17-1-.25l-1.12-.24-2.23-.5c-1.48-.34-2.93-.68-4.25-1,2-1.76,5.34-1.42,9-.86a48,48,0,0,0,7.23,2c-.27-.35-2.19-.52-2.73-1.22,8.22-.3,16.68,3.15,23,3.81,2.72-1-5.23-1-3.86-2.61,3.3.78,7.12-.56,8,1-1.37-2.31,7.65.13,1.37-2.22,12-.51,25.19,2.07,37.21,3.83-.51-.7-.52-1.26,0-1.7-4.11-.13-10.11-1-12.33-2.67,2.74-1,6.32,1.79,7.12,1.14-1.35-.61-4.09-.7-4.09-1.83,3.56-1.13,5.46.74,7.92,1.05l-1.36.52a23.64,23.64,0,0,1,2.44.72,10.46,10.46,0,0,1,1.69.73c1.19,1,1.48,1.74,2.36,2.41s2.17,1.23,5.17,1.85c3.23-.51.28-1.09.7-2.74,1.64,1.16,8.21,1.12,9.54,3.37L139,168.2c2.33,1,4.56,1.76,6.5,2.57a19.14,19.14,0,0,1,2.24-.07,1.55,1.55,0,0,0-1.25-.65c1.31,0,2.91-.21,4.31-.32a7,7,0,0,1,3.48.3l.4-1.94c-1.43,1.11-6.29,2.25-7.21,1.41,0-1.64,5.19-1.68,7.27-2.23a35.87,35.87,0,0,1-5.9.44l-1.09,0-.79-.11c-.49-.08-.92-.17-1.33-.25-.36-.25-.71-.49-1.06-.7l-.53-.3-.29-.13-.44-.17a21.26,21.26,0,0,0-4.6-1.06l1.16.91a17,17,0,0,1-6.78-1.77c-1.06-.47-2.1-1-3.12-1.48l-1.51-.69c-.56-.24-1.31-.5-2-.72-.47,0-.93-.07-1.39-.08a3.31,3.31,0,0,0,1.49-.54c.32-.14.37-.37.1-.62,0,0-.08-.09-.17-.13l-4.26.26c-1.23.06-2.46.09-3.69.1-2.46,0-4.93-.06-7.45-.15-5-.18-10.23-.43-15.83-.22L92,157.9l-.26,1.35c-5.49.39-1.11-2-4.64-2,1.34,0,1.09.26,1.35.61-6.28-1.8-3.57,1.13-7.11.56,1.63,1.52,6.84.79,5.17,2.66-6.27-1.79-16.14-1.33-16.94-4.64-2.35.17-4.81.2-7.32.14-1.26,0-2.52-.08-3.8-.16l-4.28-.29-1.89.15-1.44.08-2.86.14-5.57.22-5.24.21-2.3.12H34c-.6.65.29.42.05.91a1.63,1.63,0,0,0-1.71-.42,20.44,20.44,0,0,0-1.92-1.44,3,3,0,0,1-.53-.52,6.38,6.38,0,0,1-.54-.71c-.27-.43-.34-.75-.11-.94a6.37,6.37,0,0,0-3.67-1.2A37.68,37.68,0,0,0,21.39,145l1.06,2.13-.34-.06-1.5-3,.16,0c-1.24-1.81-2.58-3.65-3.95-5.52l-1-1.4-.51-.7-.22-.32c-.28-.43-.55-.85-.79-1.26.07-.42.14-.83.24-1.21,0-.2.09-.39.14-.57a3.26,3.26,0,0,0,.1-.55l.1-.67A42.58,42.58,0,0,1,16,126.83c-1.28,4.1-2-1.12-2.75.81,2.84-3.55,3.27-12.31,3.29-19.42-.57,0-1-.56-1.49.25l1.28-4.07-.7.51c-.19-7.39,3.15-15.3,2.07-20.23-.44,3-1,3-1.92,3.26a128.72,128.72,0,0,1,1.59-16.41c-.18.33-.38.53-.58.54-.17-1.63.58-3.55,1-5.19l-1.34-.28c.75-3.13.23-7.24,1.47-10.95-1.43-1.53,1.75-9,1.31-13.4.39-1.64-1.71,3.55-1.44-1.1,3-.53.33-6,3.51-6.26l-1-4.12,1.62-.83a3.81,3.81,0,0,1-1-2.37c0-.19.21-.35.51-.43a4.37,4.37,0,0,1,.87-.13c.23,0,.32-.05.1-.37s-.44-.19-.66-.39l.18-.07a1.89,1.89,0,0,1,.7.26,2.19,2.19,0,0,1,.52.61c.1,0,.38.08.47,0l.07,0,.61-.21a2.86,2.86,0,0,0,.78-.4c.27-.25,0-.45-1.11-.58-.47,1.07-.79.36-1.38.18-.42-.59-.31-.84-.11-1.12a2.54,2.54,0,0,0,.31-.5.87.87,0,0,0,.07-.17c0-.06.17-.17.24-.25a1.62,1.62,0,0,0,.37-.59,8.82,8.82,0,0,0,1.19.31l.35-1c5.36.08,10.13-2.34,14.26-1.46.1-.47.88-1,2.61-1.39l.52,1.62L47.69,20l-3.13-1.7a19.27,19.27,0,0,1,5.76-1.09l1.36,0a5.83,5.83,0,0,1,.63,0,1.24,1.24,0,0,1,.18.14A2.23,2.23,0,0,1,53,18a4.5,4.5,0,0,1,.2.58l.05.21s0,0,0,0l.12.06.25.1.5.19c2-2.4,9,3.58,13.8,2.28L64.4,19.66C72.22,22.34,73.94,21,81.1,24c-6.55-.81-6.43-1.37-16.21-1.63,9.52,1.37,15.47,5.89,24.33,6.61-.38-.81-2.38-1.81-.14-1.91,1.26,1.85,8,2.12,6.25,3.42,2.77.16,3.65-1.25,5.31-1l8.23,4.42-.18-.4a41.67,41.67,0,0,1,8.36,1l1.61.38a3.26,3.26,0,0,1,.44.15,2.46,2.46,0,0,1,.69.43,4.72,4.72,0,0,1-.16,1,2.05,2.05,0,0,1-.15.42s0,0,0,.07l.05.26.08.52.17,1,.34,2.09.18,1.05.09.53,0,.26,0,.13.06.25c.62,2.64,1.28,5.35,2,8.11q2.15,1.5,4.4,3l3.65,2.41a47.91,47.91,0,0,0,4.92,2.8l.23-.93,2.56,3.21c-2.09-2.38,1.73-.25,2.35-.79l7.33,7C148.56,67.41,149,65.57,146.79,64.56Zm-104.67-45-2.31.5a2.78,2.78,0,0,1-1.46.32l1.46-.32C40.92,19.54,41.59,18.62,42.12,19.58Zm21.67,137.5c1.1.84-1.64.18-2.43.26l3.82.36C65.73,157.26,64.35,157.22,63.79,157.08ZM39.09,9l1-1.45L41.91,8Zm33.38,1.43-3-1.52.33-.14,3,1.5Zm33.39,18.63a5.24,5.24,0,0,1-.56-.39,2.57,2.57,0,0,1,.56.39c2.27,1.47,3.79-.23,5.29,2.23C108.23,32.27,107.1,30.15,105.86,29.09ZM52.2,14.87a1.83,1.83,0,0,0-.66-.06,3.92,3.92,0,0,0-1.08.32,3.88,3.88,0,0,0,.78.35l.46.18a1,1,0,0,1,.21.09l.09.12c.21.32.35.6.1.79-1.31-.45-5.05.36-5.4-.72a6,6,0,0,0,4-1.31,6.47,6.47,0,0,1,.66-.4l.15-.08.07,0a.35.35,0,0,1,.14,0C51.86,14.09,52,14.3,52.2,14.87ZM17,57.31l-.09-.84-1,3ZM15.22,71.53c-1.53,1.64-1.45,6-1.9,9,1.22.83,2.79-2.17,2.81-5.73C17.4,70.71,14.26,73.17,15.22,71.53ZM74.56,18.27,74,17.08l.8.09-3-1.5c4.55-.2,6.86,3.11,8.88,4.12C78.84,19.18,74.39,15.41,74.56,18.27ZM13.25,101.92c-1,3-2.34,8.45-3.34,7.91,1.92.27,3-4.1,3-5.47A6.25,6.25,0,0,1,13.25,101.92Zm-3.62-.31c1.06-4.37,2-4.64,3.91-7.93.63,4.4-1.89,5.49-2.89,4.93-1,3,.25,2.46.42,4.1Zm5.59-4.36L15,95.44c-.71-2.15-2.88-2.69-.57-5.58L15,95.44A4.38,4.38,0,0,1,15.22,97.25Zm-1.61,36.41.35-.45.18-.2.18-.45a2,2,0,0,1-.12.73.72.72,0,0,1-.16.26.45.45,0,0,1-.43.11c-.19.26-.39.55-.59.85-.31-1-.3-1.33-.15-1.28S13.32,133.59,13.61,133.66ZM14.24,106l.41-5.2C13.73,101.09,14.07,104.36,14.24,106Zm-2.31,27c0-.53,0-1.27,0-2.08s0-1.74,0-2.54A14,14,0,0,1,12,126c.5.29.65,1.73.59,3.27a19.73,19.73,0,0,1-.21,2.26c-.06.35-.12.66-.19.94A2,2,0,0,1,11.93,133Zm92.66,29.58-3.29-.23,1.65-1.3ZM66,162.14l.84-.65,1.91.17Zm-35.27,2.27a.91.91,0,0,0,.13-1c-.4-.07-.71-.2-.78-.44a.38.38,0,0,1,0-.1l0,0a.77.77,0,0,1,.76.5,7.26,7.26,0,0,0,3.92-.72c-.5-.62-2.25-.29-2.79-.69a3.44,3.44,0,0,1,2.29-.5c.41,0,.81.1,1.29.17l1.61.19c2,.2,3.31.11,2-2.08,1.43.4,6.25,1.09,4.72,2.07a53,53,0,0,0-7.09.91c-1.34.25-2.33.49-3.39.77a25.55,25.55,0,0,0-2.71.88,2,2,0,0,1-1.26.62A5.65,5.65,0,0,1,30.72,164.41ZM7.42,126a6.1,6.1,0,0,1,.5-2.18c.39-1.14.94-2,1.56-1.63-.67,2.79-1.12,1-1.56,1.63A9.7,9.7,0,0,0,7.42,126Zm.07-8.48-1,4.36,1.09-2.18-2.16,6.55C4.6,122.38,6.23,118,7.49,117.49Zm-.82-1.59L7.81,115l-1.19,1.34,0-.48-.26.2.94-7.38ZM12,40.31c-3.7-2.94-3,6.44-4.88,7.81,1.27.36,3.13,3.25,3.39-4,1,6.31-2.63,3.82.4,7.67a25.6,25.6,0,0,1,1.16-7.1v3.54C14.52,46.34,11.14,42.76,12,40.31ZM28.09,14.23l4.51-1.14-4.33.85ZM131.78,38.86c.27-.21.87.38,1.39,1a6.25,6.25,0,0,1,1.25,2.31,1.68,1.68,0,0,1,.91,1.45c-.55-.28-1.1-.58-1.64-.89C133,40.92,132.47,39.34,131.78,38.86Zm33.07,32.31,0-2.67v-3c1,.17,1.23,1.69,1.21,3.27a14.22,14.22,0,0,0,0,4.13C165.23,73.89,165.64,71.89,164.85,71.17Zm4.43,33.69-.11,1.69,1.78-2Zm2.38-2.62c1,.92,1-2.68.78-3.5Zm5.77,30.11-.41-2.14-1.53,2.19Zm-2.55-3.16c1.22-.68,3-.69,1.46-5.55-1.38,0-1.19,1.32-3-.31a9.34,9.34,0,0,0,.86,3.74c.08-1.14-.67-2.38.19-2.8a8.14,8.14,0,0,1,.51,4.92,1.62,1.62,0,0,0-.92,1.24C174.37,130.36,174.69,129.89,174.88,129.19Zm-3.79-17.82a4.13,4.13,0,0,0-.76-1.41l.3-.35a1.54,1.54,0,0,1,.46,1.76c.27.69.54,1.51.8,2.35,1.21.4,1.53-3.1,2.05-4.09-.11,1.67-1,3.22-.07,5.27.3-.33.56-.09.37-1.44l.64,2.93c-1.14,3.61-2,.43-3-2.67-.27-.07-.56-.27-.93-.83A2.19,2.19,0,0,1,171.09,111.37Zm.61,24.16.11-1.67c.34-.89.86-.42,1.15-.76C173.11,135,172.67,137.61,171.7,135.53ZM140.61,50.66c1.11.29-.29-2.19-2.55-3.2l2-.74c-.56,1,3.66,3.5,4.07,3.89C144,52.41,142.78,50.82,140.61,50.66ZM44,11.17c-1.43-1.84-7.12,1.06-8.6.88C38.45,10.74,45.46,8.3,44,11.17Zm-10.23,3.7c-1.66.42-2.08.75-2.19-.34-.92-.21-2.07.7-3,.49,3-1.79,3.22-.08,5.19-.15.43-.11.92-.23,1.55-.33A4.85,4.85,0,0,1,33.81,14.87Zm63.25,7,1.78,2.11,3.47.81ZM124.61,36.4c.78-.54,2,3.35,1.81,4.3,1.06-.6.12-3.17-.39-5.29a3.4,3.4,0,0,0,0-.53,6,6,0,0,0-.15-.62,2.92,2.92,0,0,0,0,.5l0,.27.09.38c0,.86-.78.49-1.18.62l-.32-.47a1.4,1.4,0,0,0-.27-.3l0,.22.07.35.14.75.28,1.49Zm34.9,49c1.23,2.3.93,2.63.82,4.3C159.81,89.24,159.4,87.09,159.51,85.4ZM113.36,30.27c4.12.51-1.43-2.26,1.33-2.11l-2.11-.45c3.7-.3,2,2,4.51,2.26l-1.65-.21c-1.55.76,2.23,1.42,2.28,2.37C115.75,32.08,111.72,30.06,113.36,30.27Zm45.89,59.06c1.68,3.88-.77,3.47-.66,5.94C157.13,92.2,159.33,92.39,159.25,89.33ZM122.11,43.61l-.35-.37,1.18,6.15.34.33Z"/><path class="cls-4" d="M171.72,92.77A6.83,6.83,0,0,1,172,95,14.41,14.41,0,0,1,171.72,92.77Z"/><path class="cls-4" d="M22.06,9.69c0,.32-.31.57-.74.79C21.33,10.3,21.51,10.05,22.06,9.69Z"/><path class="cls-4" d="M11.5,11.81l-.46.12h-.45Z"/><path class="cls-4" d="M147.76,173.13c1.86.8-.55.76-2.4.86a11,11,0,0,0-1.27-.49,3.65,3.65,0,0,0,1.28.15C146.24,173.22,146.76,172.78,147.76,173.13Z"/><path class="cls-4" d="M136.9,168.68a9.2,9.2,0,0,0,3,1.74A6.55,6.55,0,0,1,136.9,168.68Z"/><path class="cls-4" d="M145.42,171.76a30.15,30.15,0,0,1-3.14-.61,17.9,17.9,0,0,1-2.36-.73C141.27,170.74,142.46,170.5,145.42,171.76Z"/><path class="cls-4" d="M108.41,165.23c1.66,1,4.93.62,4.93.62-7.12.56,1.36,1.74,1.93,2.44C110.87,167.8,110.88,166.67,108.41,165.23Z"/><path class="cls-4" d="M99,164.41a9.32,9.32,0,0,0,2-.1A4.58,4.58,0,0,1,99,164.41Z"/><path class="cls-4" d="M96.37,165.18c-2.45-.31-3.28-1.36-4.37-2.18,3-.62,4.84,1.07,7,1.41C97.3,164.36,95.6,164.18,96.37,165.18Z"/><path class="cls-4" d="M19.26,162.32c.27.52,1,1.52.79,2.11L17.39,161C16.64,159.53,18.66,161.74,19.26,162.32Z"/><path class="cls-4" d="M12.13,148.65c-1.94-2.65-2.05-.4-2.81-1.92l1.64-1Z"/><path class="cls-4" d="M21,144.13l.44.88-.62-.92Z"/><path class="cls-4" d="M2.29,133.3C1.53,134.39.77,135.63,0,137,.74,132.39,2.43,132.59,2.29,133.3Z"/><polygon class="cls-4" points="1.38 120.47 0.64 122.38 1.53 116.37 1.38 120.47"/><polygon class="cls-4" points="3.05 105.42 2.61 104.87 3.33 100.76 3.05 105.42"/><path class="cls-4" d="M87.89,12.93c.13,1.91-6-.56-8-.61C81.75,10.47,84.76,14.44,87.89,12.93Z"/><path class="cls-4" d="M170.15,87.2l-.41-6.3C171.08,85.65,169.92,82.25,170.15,87.2Z"/></g></g></g></g></svg>