<svg xmlns="http://www.w3.org/2000/svg" xmlns:xlink="http://www.w3.org/1999/xlink" viewBox="0 0 598.25 1200.69"><defs><style>.cls-1{isolation:isolate;}.cls-2{fill:#e57c52;}.cls-3{fill:#d17652;}.cls-4{fill:#584144;}.cls-5{opacity:0.23;mix-blend-mode:overlay;}.cls-6{fill:url(#linear-gradient);}</style><linearGradient id="linear-gradient" x1="127.12" y1="1056.2" x2="419.22" y2="1056.2" gradientUnits="userSpaceOnUse"><stop offset="0" stop-color="#fff"/><stop offset="0.03" stop-color="#d0d0d0"/><stop offset="0.07" stop-color="#9a9a9a"/><stop offset="0.1" stop-color="#6b6b6b"/><stop offset="0.14" stop-color="#444"/><stop offset="0.18" stop-color="#262626"/><stop offset="0.21" stop-color="#111"/><stop offset="0.25" stop-color="#040404"/><stop offset="0.28"/></linearGradient></defs><g class="cls-1"><g id="Layer_2" data-name="Layer 2"><g id="Background"><path class="cls-2" d="M317.23,2.05C313,1.79,510.46,34.94,550.91,87.82a121.62,121.62,0,0,1,8.39,12.26c4.67,8.45-.45,16.33-1.2,18.38C549,143.36,444.26,192,367.56,264c-80.26,75.34-140.2,117.94-302,373.73C7.3,729.84,8.26,747.77,6.86,812.29c-4.32,200.22,197.38,341,225.29,359.94,18.54-71.66,111.16-69.74,78.8-158.5C288.46,952,187,856.17,173.43,807.7,145.52,708,199,580,342.4,385c111.44-151.63,135.41-159.29,151-170,34.93-24,47.85-32.78,76.69-58.2,16.29-14.36,26.69-26.88,26.37-41.36-.11-4.47-1.46-19-25.17-36.76C505.14,29.24,323,2.4,317.23,2.05Z"/><path class="cls-3" d="M317.21,2.44c-7.89-.33-6.68-.07-1.28.47.67.06,1.42.13,2.15.25l2.5.41,5.78,1c4.11.73,8.65,1.56,13,2.39,5.35.47,10.69,1,16,1.54q-9.53-1.71-19.08-3.26C330,4.23,323.56,3.18,317.21,2.44Z"/><path class="cls-3" d="M402.66,18.38q21.49,4.08,42.87,9-15.39-3.7-30.86-6.95c-34.14-8.29,4.87-.46,17.81,2.61-14-3.36-22.33-5.06-27.05-5.94s-5.85-.9-5.5-.61C400.64,17.05,407.21,19,402.66,18.38Z"/><path class="cls-3" d="M486.19,39.41l8.47,2.77L500.28,44c2.89.93,4.14,1.25,4.21,1.16s-4.41-2.07-10-4.12c-.94-.12-5.81-1.52-9.06-2.39S480.61,37.5,486.19,39.41Z"/><path class="cls-3" d="M31.78,930.41l1,2.79c.36.93.72,1.86,1.06,2.77.7,1.81,1.36,3.53,1.91,5,1.16,2.89,1.88,4.73,1.51,4.19,1.83,4,3.07,6.3,2.42,4.69l-2.39-5.73c-.67-1.56-1.47-3.44-2.36-5.72S32.9,933.49,31.78,930.41Z"/><path class="cls-3" d="M37.25,945.14c-.7-1.53-1.51-3.15-2.35-5.12.67,1.63,1.3,3,2.12,4.8C37.26,945.28,37.16,945,37.25,945.14Z"/><path class="cls-3" d="M280.46,948c-9.67-12.7-17.34-22.43-24.84-32s-14.92-18.88-24.24-30.51q-4.74-6.87-9.39-13.75c-9.91-12.64-12.06-15.41-13.73-17.22-.82-.91-1.46-1.61-2.79-3.23-.66-.82-1.48-1.86-2.58-3.28l-4.1-5.6c-3.9-6.1-8.88-13.91-13.29-22.56-.55-1.09-1-2.19-1.56-3.29-.27-.55-.53-1.11-.79-1.66s-.46-1.12-.69-1.68c-.45-1.12-.94-2.25-1.36-3.38s-.73-2.26-1.1-3.39c-1.29-4.88-2.65-10-3.54-14.93-.25-1.24-.5-2.48-.75-3.7s-.37-2.46-.56-3.68c-.34-2.44-.78-4.81-1-7.14s-.46-4.6-.67-6.78c-.12-1.09-.22-2.16-.25-3.22s-.1-2.07-.15-3.07c-.09-2-.21-3.9-.27-5.67v-9c0-1.2.09-2.23.12-3.08.48-4.71.46-1.76.43,2.93.05,2.33.12,5.11.18,7.59,0,.61,0,1.21,0,1.78s.08,1.11.12,1.61c.08,1,.15,1.81.21,2.38-.47-9.14-.3-15.88-.13-21.53,0-2.82.25-5.37.39-7.83.07-1.22.15-2.42.22-3.62l.12-1.8c.06-.6.12-1.2.19-1.8.26-2.42.53-4.91.82-7.64s.85-5.68,1.37-9c1.1-6.74,2.89-15.07,5.82-26.28l.49-.67a408.91,408.91,0,0,1,13.14-40.86c2.54-6.93,5.44-13.83,8.33-20.82l4.59-10.46c1.53-3.51,3.23-7,4.84-10.48,6.61-14,13.75-28,21.46-42,1-1.75,1.91-3.51,2.87-5.27l3-5.24q3-5.24,6-10.51c4.12-6.95,8.16-14,12.45-20.92,8.4-13.95,17.29-27.74,26.22-41.51s18.2-27.33,27.55-40.74l7-10.05,7.05-10c4.67-6.64,9.41-13.19,14.12-19.71s9.45-13,14.14-19.38,9.31-12.8,14-19a73.32,73.32,0,0,1-6.18,7.39c19.77-26.44,40.66-53.64,62.78-80,11.16-13.09,22.56-26,34.7-38l2.27-2.26c.76-.74,1.56-1.44,2.33-2.17l4.67-4.32,4.81-4.11c1.61-1.36,3.29-2.6,4.92-3.91s3.37-2.46,5.07-3.68,3.45-2.34,5.26-3.5,3.64-2.39,5.38-3.59l5.23-3.63c13.88-9.7,27.68-19.24,40.64-29.44,6.48-5.09,12.74-10.31,18.8-15.57q4.54-3.94,9-7.9c3-2.62,5.88-5.31,8.69-8.06,5.61-5.51,10.9-11.37,14.85-18.15a38.86,38.86,0,0,0,4.38-10.87c.17-1,.41-1.91.52-2.88s.24-1.93.24-2.91,0-1.93,0-2.9-.18-1.93-.33-2.88a35.4,35.4,0,0,0-3.75-10.56A52.83,52.83,0,0,0,588,92.48,85.7,85.7,0,0,0,573,78.76l2.7,2.1c.9.71,1.76,1.49,2.66,2.25s1.79,1.54,2.64,2.39,1.77,1.64,2.6,2.54a57.78,57.78,0,0,1,9.21,12.07,36.48,36.48,0,0,1,3.23,7.32,27.47,27.47,0,0,1,1.36,8.16,32.17,32.17,0,0,1-1.07,8.36,38.35,38.35,0,0,1-3.22,7.93,58.83,58.83,0,0,1-4.72,7.25c-1.79,2.27-3.65,4.52-5.68,6.63a170.33,170.33,0,0,1-12.84,12.17c-9,7.8-18.18,15.6-27.74,23s-19.44,14.41-29.22,21.21l-14.56,10.07c-2.41,1.66-4.78,3.33-7.2,4.92l-3.62,2.35L484,221.86a180.39,180.39,0,0,0-24.75,21.21c-1.82,1.86-3.66,3.65-5.38,5.49L448.75,254c-3.36,3.56-6.39,7.21-9.38,10.63l-3.57,3.78-3.65,4.09-7.61,8.67c-5,6-10.21,12.2-15,18.11s-9.16,11.43-12.87,16-6.66,8.22-8.58,10.27C372.06,346,358.88,363.75,347,380c-3,4-5.86,8-8.66,11.94s-5.54,7.76-8.25,11.54c-5.32,7.63-10.56,15-15.63,22.45-20.3,29.76-40,59.32-65.61,102.16-7.46,12.2-4.35,6-6.85,9.3C255,514.46,269,492,283.41,469.93q-6.72,10-13.34,20.12c-4.35,6.77-8.77,13.49-13,20.34,5.21-9.05,14.85-24.2,23.58-37.69,4.4-6.72,8.57-13,11.76-18s5.54-8.55,6.17-9.88c-19.13,28.84-43.7,66.55-65.09,104.88-10.69,19.15-20.57,38.45-28.79,56.63a462.52,462.52,0,0,0-19.38,49.59c9.39-26.76,23.73-59.23,39.68-88.78,1.76-3.25,3.9-6.86,6-10.51s4.16-7.29,6.09-10.43c3.8-6.32,6.62-10.87,6.46-10.09-11.74,20.92-22.4,41.26-32,61.57a585.77,585.77,0,0,0-25.14,61.43C179.5,680,173.82,701.4,171,723.87a239,239,0,0,0-1.95,34.35,198.28,198.28,0,0,0,4,35.42c.32,1.49.58,3,1,4.57l1.19,4.66c.41,1.55.76,3.19,1.24,4.71s.94,3,1.54,4.54a120.49,120.49,0,0,0,8.28,16.93c5.89,10.26,11.26,18,12.18,19.78-4.68-6.59-5.25-7.39-5.74-7.81a7,7,0,0,1-1-1.14c-.61-.77-1.59-2.18-3.38-5A150.28,150.28,0,0,0,197.43,848a42.09,42.09,0,0,0,3.37,3.83c1,1,2.18,2.5,5,6.22l15,19.72-5.31-4.08c6.82,7.43,16.32,19.61,27,33.41s22.59,29.26,33.61,43.55c3.56,5.44,1.72,3.39-3-2.82s-12.7-16.39-21.28-27.27c9.58,12.48,14.9,19.21,19.72,25.33s9.18,11.61,16.25,22q-7.34-9.47-15-18.6a233.54,233.54,0,0,1,20.63,29.36,223.75,223.75,0,0,1,12.35,24.21c.54.74-.43-2.2.23-1.53a26.78,26.78,0,0,1,2.58,4.68c.8,1.52,1.59,3.61,2.68,6.24.58,1.3,1,2.82,1.58,4.47s1.21,3.47,1.77,5.51c.87,3.52,1.4,5.71,1.66,7.08a11,11,0,0,1,.19,2.13c-.07.4-.39-.55-.18,1.13.17.44.48,1.5.91,3.2s.68,4.08,1.12,7.09c.1,1.52.17,3.2.25,5,0,.46,0,.93.05,1.41s-.05,1-.08,1.47c-.05,1-.11,2.05-.17,3.14a25.42,25.42,0,0,1-.41,3.36c-.19,1.15-.38,2.34-.58,3.58s-.66,2.46-1,3.74c-.19.64-.31,1.31-.57,2l-.74,1.95c-.48.92-.43.49-.08-.7.15-.59.46-1.35.66-2.27s.45-1.95.69-3c.13-.54.25-1.08.38-1.63s.16-1.12.24-1.66c.13-1.1.27-2.16.39-3.11a15.73,15.73,0,0,0,.12-2.44,8.87,8.87,0,0,0-.08-1.29,55.62,55.62,0,0,1-6.2,21.87,67.4,67.4,0,0,1-11.54,15.58c-4.91,5.48-7.58,7.87-8.58,9s-.52.74.24.16a9.26,9.26,0,0,1,1.83-1.3c0,.06-.21.35-.85,1s-1.69,1.74-3.34,3.29c-34.6,29.34-4.51,1.67-17.87,11.8,6.35-5.75,13.36-11.63,19.9-17.95a125.81,125.81,0,0,0,9.26-9.84c1.35-1.75,2.81-3.42,4-5.24.61-.9,1.25-1.77,1.82-2.67l1.6-2.75a52.51,52.51,0,0,0,6.84-21.88c.05-.86.11-1.71.16-2.53a22.38,22.38,0,0,0,.09-2.44c-.05-1.59-.1-3.12-.15-4.56a16.22,16.22,0,0,0-.19-2.11c-.08-.68-.16-1.34-.24-2-.17-1.28-.26-2.47-.48-3.55.23,1.3.31,2.61.47,3.91l.22,2,.11,1,0,1a63.55,63.55,0,0,1-.07,7.81l-.14,1.94c0,.33,0,.65-.07,1l-.17,1-.63,3.83c-.28,1.26-.66,2.5-1,3.75-.19.62-.3,1.26-.54,1.86l-.68,1.82a59,59,0,0,1-3.19,7.08l-2,3.37c-.65,1.13-1.48,2.17-2.21,3.25a92.88,92.88,0,0,1-10.37,12.05c.58-.79-1.06.71-3.62,2.9s-6,5.11-8.84,7.37-4.93,3.89-4.7,3.53,2.83-2.67,9.13-8.42c-6,5.3-12.55,10.56-19.05,16.24a171,171,0,0,0-18.82,18.86,98.92,98.92,0,0,0-14.75,23.43,50.42,50.42,0,0,0-2.93,8l-.11.35,0,.09s0,0-.07,0l-.15-.1-.6-.4-1.2-.81-1.2-.82-2-1.44a675.53,675.53,0,0,1-78.14-65c6.13,6.35,14.38,14.16,12.78,13.17-11.89-10.9-16.8-16.13-19.47-19s-3-3.69-5.11-6.21c-8.39-8.45-12.15-12.19-15.23-15S114,1064.8,109,1059.47c-7.84-9.51-13.75-17.17-18.66-23.77s-8.87-12.13-12.55-17.56A369.16,369.16,0,0,1,54,978.49c.11.92.26,1.83.4,2.74-6.91-13.14-10.71-20.73-14.6-28.61-.48-1-1-2-1.47-3l-1.43-3.11c-1-2.13-2-4.35-3-6.83-2.08-5-4.42-10.77-6.91-18.36-.18-.87.76,1.57,2.28,5.34l2.63,6.41c1,2.29,2,4.68,3,6.93a204.39,204.39,0,0,1-9.22-25.42c-.91-3.08-1.81-6.13-2.89-10.09-.56-2-1.21-4.16-1.87-6.7s-1.52-5.39-2.32-8.73c1,3.51,2.16,6.95,3.26,10.41s2.37,6.87,3.62,10.28c-.84-2.6-1.63-5.38-2.49-8.2s-1.57-5.73-2.36-8.57-1.39-5.68-2.05-8.34-1.11-5.22-1.59-7.5c-1.75-9.16-2.41-14.29-1-8.83a254.48,254.48,0,0,1-4.36-32.88c-.11-1.54-.21-3.1-.32-4.68s-.11-3.16-.16-4.77-.13-3.22-.15-4.85,0-3.27,0-4.93c0-3.29.05-6.69.11-10.12s.13-6.87.2-10.34c.32-13.86.88-27.9,3.08-41.15A172.49,172.49,0,0,1,25,717.94l-.35,3.24c.92-2.91,2.43-6.31,4.06-10.17.42-1,.84-2,1.28-3s1-2,1.47-3.07l3.17-6.51c1.06-2.25,2.35-4.51,3.57-6.84s2.52-4.71,3.82-7.12c2.72-4.75,5.49-9.65,8.32-14.48,11.37-19.33,23.4-37.87,28.7-47.33l2.27-2.9,12.91-21.21c2.14-3.55,4.33-7.07,6.53-10.57l6.6-10.52c12.46-18.71,9.33-11.62,10-13.34,6.68-10.37,13.27-20,19.46-29.15s12-17.86,17.77-25.9l16.27-22.9c5.2-7.16,10.27-13.81,15-20.14,3.58-7.24,34.59-48.89,61.54-80.13,16.39-18.66,33.51-37,51.49-54.63s36.75-34.75,55.47-52l14-13q6.94-6.53,14.1-12.79c9.57-8.36,19.44-16.38,29.5-24.15,20.13-15.54,41.05-30,62.11-44.13l31.62-21c10.49-7,21-14.06,31-21.65a151.54,151.54,0,0,0,14.5-12.23,46.94,46.94,0,0,0,6.23-7.39,22.94,22.94,0,0,0,1.23-2.17,9.5,9.5,0,0,0,.53-1.17l.43-1a40.92,40.92,0,0,0,1.85-4.43,22.27,22.27,0,0,0,1.06-4.87,17.85,17.85,0,0,0-.3-5,17.45,17.45,0,0,0-1.77-4.72c-.78-1.41-1.63-2.73-2.5-4-1.74-2.61-3.58-5.11-5.47-7.58a61.43,61.43,0,0,0-6.24-7,100.41,100.41,0,0,0-14.62-11.49A178.4,178.4,0,0,0,515.8,60a323.88,323.88,0,0,0-33.2-14.67,683.29,683.29,0,0,0-67.45-21.3c-13.38-3.63-29.44-7.35-46.42-10.81-8.49-1.74-17.22-3.42-25.94-5L329.71,5.87l-6.48-1.14L320,4.16l-1.61-.29-.81-.14-.42-.09-.24-.05-.23-.06a1.49,1.49,0,0,1-.48-.26c-.73.12,1.43-4.85.82-2.75a.8.8,0,0,1,.21,0h.09a2,2,0,0,0-.49,0c-2,4.8.44,2.1-.19,3l.13.05.2,0,.27.06.5.11,1,.2,1.87.37,3.59.72,6.59,1.32,11.29,2.29,18.12,3.76c11.24,2.41,22.42,4.76,42.57,10,15.1,4.1,25.29,7.42,34.87,10.76s18.58,6.71,31.07,11.57q-6.24-2.76-12.57-5.38c10.06,3.16,16.73,5.56,21.61,7.4s8,3.16,10.78,4.38l9.14,4c3.75,1.65,8.74,3.76,16.2,7.37l-1.93.76a116.24,116.24,0,0,1,22.37,13.27,74.91,74.91,0,0,1,10.65,9.72c.73.82,1.41,1.64,2,2.44s1.19,1.59,1.77,2.4c1.13,1.59,2.12,3,2.93,4.28,1.17,1.35,2.31,2.71,3.39,4.08.54.69,1.05,1.38,1.54,2.07a14.14,14.14,0,0,1,1.15,1.94,13,13,0,0,1,0,7.75,21.86,21.86,0,0,1-1.41,3.67l-1,1.94-.28.65-.18.37a6.4,6.4,0,0,1-.36.75,27.11,27.11,0,0,1-4.18,5.52,62.59,62.59,0,0,1-4.81,4.53,105.79,105.79,0,0,1-8.72,6.72c-2.56,1.79-4.76,3.15-6.51,4.15l2.65-.73c-2.07,1.36-8.23,5.77-16.15,11.1s-17.51,11.63-26.07,17.19c-17.13,11.11-29.94,19.39-17.21,9.92-6.32,4.47-12,8.76-26,18.28l-2.69.66c-10,7.07-20.51,14.74-29.16,21.23s-15.48,11.78-18.43,13.77c10.3-8.47,13.66-11.45,16.91-14.46-10.43,7.79-18.32,14.13-24.4,19.21s-10.32,8.91-13.39,11.79c-6.13,5.77-7.58,7.72-8.79,9.38a53.39,53.39,0,0,1-6.89,8c-2.38,2.45-5.74,5.76-10.59,10.41s-11.26,10.57-19.65,18.36l.34-1.19c-5.53,5.41-11.06,10.84-16.53,16.35-3,2.7-6.12,5.35-9.12,8.09l-9,8.23c-1.39,1.54-3,3.23-4.7,5.08s-3.57,3.9-5.59,6c-4,4.32-8.7,9.06-13.57,14.43l-7.69,8.25c-1.32,1.43-2.69,2.84-4,4.33s-2.68,3-4.05,4.53l-8.38,9.35c-1.41,1.59-2.88,3.16-4.28,4.8l-4.24,5c-11.49,13.19-23,27.3-33.69,40.83l-15.19,19.87c-2.44,3.15-4.67,6.32-6.86,9.37l-6.26,8.82c-3.18,4.41-6.7,9.11-10.56,14.2s-7.86,10.72-12.31,16.78c-2.22,3-4.54,6.19-6.95,9.48s-4.91,6.72-7.41,10.36c-5.06,7.24-10.47,15.09-16.25,23.65l2.33-1.67c-2.43,3.38-5.73,7.89-9.49,13.37l-12.82,18.79c-4.7,7-9.88,14.46-15.1,22.33l-16,24.19c-10.8,16.27-21.52,32.57-30.31,46.68S27,689.85,23,696.77c-3.46,7.18-4.78,10.79-5.24,11.89s.17-.15,1.17-2.31c.51-1.08,1.08-2.4,1.74-3.72l2-3.85c1.26-2.39,2.28-4.19,2.38-3.94-1.65,3.52-3.3,6.77-4.7,9.95s-2.69,6.17-3.92,9c-2.23,5.77-4.27,10.82-5.72,15.52C9.1,733.93,8.1,738.16,7,741.94c-.53,1.9-.86,3.73-1.28,5.47s-.81,3.41-1.13,5c-.56,3.23-1.15,6.24-1.64,9.18s-.8,5.83-1.22,8.82-.6,6.07-.93,9.43-.49,7-.69,11C0,800.33,0,803.23.07,802.61s.24-4.77.43-9.48.52-10,.72-12.82c.11-1.41.24-2.22.29-2s0,1.41,0,4c-.43,7.29-.61,13.44-.77,18.82-.06,2.68-.11,5.17-.17,7.49,0,1.17,0,2.29-.06,3.38v3.24c0,2.09,0,4.06,0,5.94s.14,3.68.21,5.43.14,3.45.26,5.14.27,3.36.41,5.06c.54,6.81,1.37,14,2.79,24a361.89,361.89,0,0,0,8.26,40.19c.67,3.55-.66-.93-2.37-7.22-.76-3.16-1.74-6.75-2.44-10.05s-1.43-6.23-1.85-8.06a372.54,372.54,0,0,0,12,43.87c2.83,8.15,6,16.62,9.67,25.25s7.78,17.38,12.27,26.15A447.54,447.54,0,0,0,71,1022.6a521.62,521.62,0,0,0,36.41,46.45c28,32.66,66.64,69.65,111.38,102l3.09,2.2,3.89,2.72,7.82,5.35,2,1.35s.1.11.11,0l0-.14.1-.28.18-.55.36-1.11,1.47-4.45,3-9.12,1.23-3.16c.3-.73.54-1.49.91-2.19l2.05-4.28a89.11,89.11,0,0,1,4.88-8.18,109.5,109.5,0,0,1,12.23-14.94c4.54-4.68,9.48-9.08,14.54-13.42s10.31-8.64,15.47-13.13a158.21,158.21,0,0,0,14.94-14.52,78.15,78.15,0,0,0,12-17.77,65,65,0,0,0,5.89-20.55l-.2-2.09.21-2.16.09-1.09v-5.4a36.39,36.39,0,0,0-.25-4.31c-.14-1.43-.27-2.86-.4-4.3-.48-2.8-.93-5.65-1.52-8.45s-1.36-5.56-2.18-8.29-1.74-5.42-2.69-8.14c-.54-1.35-1.07-2.71-1.61-4.06-.27-.68-.52-1.37-.82-2l-.89-2-1.81-4-2-3.87c-1.28-2.61-2.71-5.11-4.12-7.65-5.71-10.08-12.14-19.82-18.93-29.5s-13.95-19.28-21.29-29C271.26,935,275.93,941.43,280.46,948Z"/><path class="cls-3" d="M310.32,426l-5.24,6c-4.31,6.28-8.47,12.67-12.72,19s-8.33,12.77-12.49,19.15C290.74,455.09,295.53,446.77,310.32,426Z"/><path class="cls-3" d="M306.79,435.49c4.48-6.59,8.87-13.23,13.43-19.76-3.76,5.23-7.42,10.53-11.11,15.81s-7.33,10.59-11,15.92C301,443.47,303.86,439.44,306.79,435.49Z"/><path class="cls-3" d="M270.45,948,267,943.21c-17.62-23-36.25-45.25-54.11-68.16C231.94,899.55,251.84,923.28,270.45,948Z"/><path class="cls-3" d="M33.7,933.06c1,2.24,2.14,4.73,3.27,7.37s2.4,5.36,3.64,8.11,2.57,5.48,3.85,8.1S47,961.75,48.25,964a376.1,376.1,0,0,1-16.5-36.43Z"/><path class="cls-3" d="M115.05,575.45c7.19-13.66,16.84-25.51,4.46-9.24C106.39,586.57,118.45,569.37,115.05,575.45Z"/><path class="cls-3" d="M164.48,499c-4,5.68-7.13,10.13-9.73,14-1.3,1.92-2.48,3.68-3.6,5.35L148,523.24l6.42-8.81c1.63-2.29,2.82-4,3.84-5.62C160.28,505.67,161.63,503.29,164.48,499Z"/><polygon class="cls-4" points="420.45 1187.64 397.33 1012.37 343.77 978.29 335.25 950.3 206.24 915 135.66 934.31 127.12 1140.17 164.85 1188.86 208.67 1183.99 332.82 1188.86 366.9 1198.6 420.45 1187.64"/><g class="cls-5"><polygon class="cls-6" points="419.22 1186.49 396.19 1011.96 342.86 978.03 334.38 950.15 205.9 915 135.63 934.23 127.12 1139.22 164.69 1187.7 208.33 1182.86 331.95 1187.7 365.89 1197.4 419.22 1186.49"/><path class="cls-3" d="M394.56,1191.44c.5,0,1.27-.13,1.89-.19C394.7,1191.68,393.85,1191.84,394.56,1191.44Z"/><path class="cls-3" d="M419.38,1187.31c-6.36,1.33-16.44,3.39-22.93,3.94C402.05,1189.88,417,1185.59,419.38,1187.31Z"/><path class="cls-3" d="M392.73,1188.24l8-1C396.26,1188.78,396.91,1187.6,392.73,1188.24Z"/><polygon class="cls-3" points="396.01 1189.63 395.76 1190.5 391.38 1190.6 396.01 1189.63"/><path class="cls-3" d="M125.69,1021.26c-.37.82-.77,1.33-1.23.91Z"/><path class="cls-3" d="M130.06,1002.7c.2-1.67.3-2.84.38-3.84A22.14,22.14,0,0,1,130.06,1002.7Z"/><path class="cls-3" d="M125.32,1038.26l0-3.33A21.81,21.81,0,0,1,125.32,1038.26Z"/><path class="cls-3" d="M209.9,1185.87c3.06.7,6,1.34,8.18,1.78C212,1188,211.57,1186.7,209.9,1185.87Z"/><path class="cls-3" d="M154.74,938.17l.6-.82C156.27,937.39,156.76,937.55,154.74,938.17Z"/><path class="cls-3" d="M140.86,998.66a.74.74,0,0,1-.82-.48c.07-.32.12-.65.19-1Z"/><path class="cls-3" d="M126.07,1051.48s0,.13.06.19l-.51,2.68A4.89,4.89,0,0,1,126.07,1051.48Z"/><path class="cls-3" d="M180.31,932.08a14.88,14.88,0,0,1,3.52.48C181.32,933,180,932.67,180.31,932.08Z"/><path class="cls-3" d="M130.46,998.39s0,0,0,0c0,.14,0,.36-.05.5C130.44,998.68,130.46,998.56,130.46,998.39Z"/><path class="cls-3" d="M139,1025.65c.17-1.42.3-2.75.51-4.27A12.13,12.13,0,0,1,139,1025.65Z"/><path class="cls-3" d="M209.9,1185.87l-.83-.18-.65-.19-.74-.09.74,0a4.8,4.8,0,0,1,.75.2A7.4,7.4,0,0,1,209.9,1185.87Z"/><path class="cls-3" d="M373.55,1197.2c-2.55.54-3.25.22-3.83-.13A16.64,16.64,0,0,1,373.55,1197.2Z"/><path class="cls-3" d="M422.48,1179.61l.12,1A4.51,4.51,0,0,1,422.48,1179.61Z"/><path class="cls-3" d="M411.07,1080.14a6.5,6.5,0,0,1,.33-1.38C411.67,1079.59,411.44,1080.1,411.07,1080.14Z"/><path class="cls-3" d="M371.9,1007.89a38.49,38.49,0,0,1,8.2,5.39l3.67,3c.6.48,1.2,1,1.79,1.4.43.31.26.23.32.29a.35.35,0,0,0,.07.09,3.17,3.17,0,0,0,.16-.37l.05-.19,0-.11v0s-.05-.06-.07-.1.08.08.1.12l0,.06,0,.12a2.17,2.17,0,0,1,.07.24,1.1,1.1,0,0,1,0,.4v0l1.06-.68a5.28,5.28,0,0,0,0,.78c0,.13,0,.23,0,.38l.24,1.85c.34,2.47.68,4.92,1,7.18.6,4.52.94,8.32.27,10.16l1.65-1.34-.1,10.17.46-5.88c1.85,11.16,2.7,28.37,3,30.76l.53-1.1c.59,1.79.34,3.29.37,5.23l.81-1.6c1.95,16.92,4.82,21.24,6.26,40.22.91,5.11,0-2.89.5-3,1.16,2.7,1.27,9.4,1,10.89,1.36-1.7-.16-9.59,1.89-3.72-.2,4.39,1.06-3.11,1.75,4.47l-1.62,3.22c.9,4.15,1.68.63,2.36,7.29.13,7.69-3.5-9-2.18,3.27.94,6.09,6.34,12.24,6.82,24.23,2.4,10.08,2.42-5.79,3.77,8.42l.12-9.23c.88,2.27,1.69.66,2.07,6.84a30.23,30.23,0,0,0-.68,9.28c-.23-13.44,3.82,11.31,4.16-1.28l.54,4.61c0-.58.17-.75.37-.47l.94,6.09c-.06-3.83-1.06-12.81,1-8.84l1.54,8.8c.8-2.51,1.69.67,2.51,0l-1.28-26.3c-.53,1.11-.47,4.91-1.34,3.6-1.5-6.86.46-5.83-1.32-12.23l-.5,3c.27-.56.25-1.49.55-.08.88,2.21.34,3.3-.22,3.39-1.43-2.14-1.54-8.82-1-10.88-1.26-8.43-2.26-1.47-2.85-3.29,1.31-4.62-1.91-14.1-1.73-19.45l-.78,3.52c-2.33-6.23-1.87-12.15-1.93-16l-.81,1.59c-1-9-5-13-2.3-20.26l-.54,1c-.8-3.64-2.28-9.11-1.68-12.77-.43,0-1-.58-1.36-2.05,1.12-2.17-.43-5.85-1.39-11.23.11,3.64-1.82,2.72-1.75,6.57-2.93-8.11,1-7.92,0-14.93-1.47-4.09-.5,3.9-1,5-.46-11-7.05-21.72-4.39-29l1.75,4.5c.2-4.41-.11-6.74-.38-6.18a3,3,0,0,1-.24,2.42,47.16,47.16,0,0,1-1.71-12.41c0-1.91,0-3.78.07-5.67,0-2.34-.08-5.07-.22-7.89-1.59-1.23-3.35-2.51-5.27-3.81-1.09-.74-1.63-1.1-2.4-1.59s-1.49-.91-2.29-1.36c.46,1.09,1.94,2.3,1.71,2.82-5.52-2.68-3.14-6.13-12.2-10.24l1.21,1.7c-3-1.37-4.46-3.63-4-3.58-1.85,2.44-17.5-11.32-25.43-11.64a29.08,29.08,0,0,0-2.88-3l-.47-.42c-.16-.15-.33-.3-.42-.4l-.7-.69c-.47-.46-.94-.9-1.41-1.33-.14-1-.29-1.9-.45-2.77l-.07-.35-.11-.48c-.08-.31-.15-.63-.23-.93l-.47-1.8a26,26,0,0,0-1.92-5.32c-3.51-5.26-.37,5.71-2.65,4.06a34.68,34.68,0,0,1-1.11-6.23,34.31,34.31,0,0,0-.62-3.44c-.16-.63-.34-1.3-.57-2s-.55-1.63-.89-2.51c.37-.23,1,.5,1.83,1.66.73,1,1.5,2.09,2.14,2.87s1.13,1.15,1.28.53a5.38,5.38,0,0,0-.05-1.77q-.09-.66-.27-1.59c0-.15-.06-.31-.1-.48a5.23,5.23,0,0,0-.13-.6c-.13-.52-.26-1.08-.41-1.68-.55-.75-1.08-1.46-1.6-2.13.35.9.76,2,1.21,3.12.1.3.21.6.32.91l.24.71a12.84,12.84,0,0,1,.35,1.39c.08,2-.36,1.52-.91.47-.27-.53-.57-1.2-.85-1.79-.16-.36-.32-.69-.44-1a3,3,0,0,0-.36-.62l-1.84-6.73-5.55-1.69-4.9-1.5c-.13-.51.28-.72,1-.76a12.66,12.66,0,0,1,3.21.42c3,.65,6.38,1.55,7.18,1.54-2.06-.52-4.18-1-6.31-1.48l-1.59-.35-.79-.17-.55-.1-2.23-.4-9.09-1.56c-6.05-1.08-12-2.32-16.86-4.29l.78.92c-12.51-5-8.41,1.13-17.92-4.48-5.55-1,1.45,2.38-6.78.28-2.32-.63-.78-.91-.31-1-9.9-3.38-4.88.44-13.74-3.71l1.5,2.4c-10.73-4.3-21.45-10.71-31.24-12.53.18,1.58,6.14,3.06,8.2,4.79a96.63,96.63,0,0,0-16.86-6c-3-.85-6.11-1.64-9.12-2.43l-4.45-1.18-4.9-1.36-2.58.64-1.25.3-1,.23c-1.36.3-2.68.54-3.94.74,3.25-2.19-6.44-1.27,1-4.37a4.35,4.35,0,0,0,2.85.29l.42-.09.61-.15,1.25-.35,2.71-.86,2.67.63,1.4.37.68.19.48.15a3,3,0,0,0-.79-.64c-.39-.23-.82-.46-1.28-.69a32.59,32.59,0,0,0-3.16-1.35c-.86.14-1.79.33-2.75.54l-1.47.35-1.28.31c-1.26.32-2.59.72-3.93,1.16-2.68.88-5.44,1.93-8,2.87-5.12,1.89-9.43,3.33-10.71,2.08l-1.37,1.9c-1.89.29-6.85.49-3.76-.84l-13,4.54c4.94-.19,15.4-.4,18.05-2.77,4.18.48-5.14,2.48-1.33,3.3-9.5,0-5.17,2.49-14.47,4.48,3.58-3.19-9.88-.3-9.74-1.4a31,31,0,0,1-6.34,1.48c-1.22.19-2.41.33-3.53.44-1.63.25-3.1.45-4.2.56-2.31.57-5.39,1.51-8.82,2.6,0,4.52,0,9.85,0,15.21a84,84,0,0,1-.48,10.54c.81-3.3,1.91-8.54,3.25-8.1-.95,4.29-1.13,9,.42,9.92,1.76-7.61.91-8.88-.09-10a4.29,4.29,0,0,1-1.28-2.28,9.22,9.22,0,0,1-.13-1.07c0-.21,0-.43,0-.66s0-.66,0-1c.07-1.46.25-3.31.58-5.53a19.72,19.72,0,0,0,1.57-4c1.87-.15,3.73-.4,5.78-.74,1-.17,2.09-.37,3.22-.59l3.41-.65c-2.85,1.85-1.44,1.93-2.18,3.42a23.24,23.24,0,0,0-7.91.41c-.26,1.93-.39,4.17-.46,6.46s-.08,4.57-.11,6.89a71.79,71.79,0,0,1-1.1,13.51c-1.31,4.78-3.55,1-4.42,12l-.77-9.44c.63,10.37-1.22,2.38-2,10.89L128,971c0,5.22-.27,7.13-1.29,10l2.09-4.33c.12,2.82.15,8-1,8.05.43.75.79,1,1.12,1-.34.53-.6,1.85-.67,5.15.29-1.92.23-3.32.8-3.34-1,12.53,1.94,3,1.44,10.79.49-1.21.95,1,1.07,3.82-3-.32-4,15.07-5.87,19.08l0,0-1.64,10.45c.33-2.12,1.05.21,1.25,3.27v-.49c.33,3.35,3.43-3.83,2.15,6.14l-1.11,5.22c.15-.94.57,0,.78.49l-1,5.38c2.46,8.4-2.23,15.57-1.26,25.37-.12-2.82.27-7.1,1.11-5.22a16.1,16.1,0,0,1-.69,6.18l.35-.47L123,1096c1.08-1.47,1.58-11.86,2.54-7.16,1.25,2.8-.42,8.07-.66,11.4-.78-.46-1.22-6.64-1.91-.45.36.78.94,6.72,1.62,4-1.07,6.33-2,15.54-3.59,21.18.27,1.82.72-1,.87-2l-.21-.47c.6-3.81,2.06-.5,1.55-8.06,2.63-.52.27,10.87.36,17.49l2.2-10.45a72.47,72.47,0,0,1,.81,8.56c.05,1.48.08,3,.07,4.51s0,3.2-.11,4.82c1.13,1.44,2.29,3,3.35,4.43s2.12,2.91,3.15,4.39c2.08,3,4.12,6,6.11,8.91,4,5.91,7.82,11.63,11.54,16.46-3.8-3.57-5.83-7.46-7.06-5.72,5.92,9.23,5.39,7.82,11.74,16.68l-.49-.81a18.83,18.83,0,0,1,1.53,1.56l.44.51.51.63,1,1.3c1.34,1.75,2.67,3.61,4,5.43,2.2-.17,4.37-.36,6.3-.66a25,25,0,0,0,2.69-.54,5.55,5.55,0,0,0,.55-.16l.39-.16a5.92,5.92,0,0,0,.71-.38c-.9-.41-3.35,0-5.44.38s-4.16.68-4.6.12a1.66,1.66,0,0,1,.07-.89l.19.25,15.24-1.52a23,23,0,0,0-6.1,0l-2.06.23-2.3.3-4.63.63c-1.59-1.94-3.08-3.82-4.19-5.4-2.4-2.94,2.64,3.8,3.71,6.53.6.14.72.36.12.72l-.44,0c-1.34-1.75-2.54-3.34-3.6-4.81l-1.51-2.09-.6-.87-.45-.69a44.56,44.56,0,0,1-2.72-4.74,68.79,68.79,0,0,1-3.17-8.31c-1.11-4,4.7,3.45,6.17,5.33a60.68,60.68,0,0,0,2.76,5.9c1.11,2.09,2.68,4.63,4.41,7.24,1.61-.06,3.33-.15,5.13-.28l2.7-.22,2.36-.24c3.18-.35,6.45-.84,9.76-1.5l6.76-2.48c6.43.86,4.1,4.2,15.37,2.56l-3.52-.85a27.89,27.89,0,0,1,5.24-1.22c-5-.38-10.32-.85-14.82-1.32,3.6-1.95,9.33-1.87,15.45-1.59,4.28.84,8.6,1.81,12.54,2.19-.48-.36-3.8-.59-4.76-1.3,14.21-.06,28.93,3.63,39.87,4.47,4.67-1-9.07-1.11-6.75-2.73,5.73.89,12.3-.35,13.78,1.28-2.43-2.34,13.23.36,2.3-2.18,20.79-.17,43.56,2.8,64.48,4.9-1-.72-1-1.28-.07-1.7-7.1-.25-17.5-1.3-21.38-3,4.71-1,11,2,12.34,1.35-2.36-.65-7.09-.82-7.13-2,6.13-1,9.46.9,13.73,1.28l-2.34.48a46.93,46.93,0,0,1,7.12,1.57,22.38,22.38,0,0,1,2.38,1.63,17.26,17.26,0,0,0,2,1.35c1.55.86,3.88,1.72,9,3,5.32.09.27-1.1.65-2.76,3,1.56,13.88,2.74,16.72,5.42l-8.28-2.22c4.07,1.53,8,2.75,11.37,4,1.36-.18,2.69-.33,3.84-.4a3,3,0,0,0-2.14-.47c4.7-.4,10.73-1.78,13.33-1.15l.95-2.06c-2.63,1.36-10.93,3.21-12.54,2.5.48-1.72,9.11-2.47,12.77-3.35-4.25.73-7.45,1.1-10.1,1.3-1.32.1-2.5.16-3.61.2-1,0-1.64,0-2.36,0-.64-.33-1.24-.64-1.85-.93-.84-.35-1.83-.71-2.86-1.06a64,64,0,0,0-7.91-2l2.13,1.19a50.61,50.61,0,0,1-11.7-3.18c-1.88-.7-3.71-1.45-5.51-2.16l-2.67-1-1.34-.48-1.73-.56-1.21-.08-1.07,0,.74-.1.71-.12a3.5,3.5,0,0,0,.92-.28c.54-.08.59-.31.1-.62,0,0-.14-.09-.3-.13l-6.9.15q-3.18,0-6.37,0c-4.25,0-8.53-.19-12.88-.36-8.7-.32-17.69-.73-27.37-.67l-5.75-2-.41,1.35c-9.47.23-2-2-8.07-2.1,2.32.08,1.89.29,2.35.65-10.91-2-6.14,1-12.28.35,2.87,1.57,11.85,1,9,2.81-10.88-2-27.93-1.78-29.41-5.12-4.06.1-8.32.07-12.66-.07q-3.26-.11-6.56-.27l-7.07-.4-3,.26-2.48.2-4.93.37-9.6.67c-6.24.43-12.1.83-17.22,1.31-.28.11-.5.19-.49.24a.21.21,0,0,0-.05.15.18.18,0,0,0,.07.09l.07,0,.2,0c.55,0,1.28,0,.86.31-1.31-.13-1.48-.28-2.06-.31a7.38,7.38,0,0,0-1.65.12c-.45-.51-1-1-1.51-1.49l-.41-.37-.83-.92-1.55-1.73c-1.91-2.17-3.16-3.75-2.71-4.15a12.74,12.74,0,0,0-5.1-3,109.62,109.62,0,0,0-8.07-12.78l2.1,3.48-.46-.21-3-4.93.22.11c-2.22-3.08-4.58-6.24-7-9.43l-3.6-4.81-.9-1.21-.42-.61L134,1137l.12-1,.07-.51,0-.24,0-.23,0-.29c.14-1.58.3-3.14.47-4.67.35-3.06.76-6,1.29-8.78-1.41,7.12-2-1.88-2.78,1.47,3-6.21,3.64-21.36,3.88-33.66-.57,0-1-.94-1.49.48l1.4-7.08-.71.92c0-12.78,3.6-26.55,2.68-35-.54,5.2-1.1,5.2-2,5.69.45-9.14.84-17.76,2.09-28.41-.19.57-.39.93-.6.94-.12-2.81.69-6.15,1.14-9l-1.34-.44c.85-5.44.45-12.52,1.8-19-1.38-2.61,2-15.67,1.71-23.19.45-2.86-1.81,6.18-1.4-1.86,3-1,.51-10.44,3.7-10.94l-.86-7.08,1.64-1.48c-2.74-5.37,1.83-12,.86-11.26-.34-.19-.45-.08-.67-.3l.19-.21a2.18,2.18,0,0,1,.9.2c.22.12.27.34.38.65a1.37,1.37,0,0,1,.36,0h.07l.08,0,.38-.1,1.54-.4,2.9-.78c3.58-1,5.67-1.82,2-1.67.38.37-1.09.8-3,1.2-1,.2-2,.39-3,.56l-.74.12-.35.06-.06,0-.24-.08a.81.81,0,0,1,0-.75s0,0,.1-.09l.28-.13.62-.27,1.39-.56c1.92-.75,4-1.56,4.66-2.51a19.35,19.35,0,0,0,1.94.1l.76-1.08c9-.91,17.45-4.34,24.21-4.19.25-.5,1.67-1.23,4.65-1.94l.58,1.6,9.13-2.53L189.74,928a56.45,56.45,0,0,1,9.86-2.21c1.55-.22,3.06-.38,4.56-.53l1.11-.11c.15,0,.18.08.27.12a2.82,2.82,0,0,1,.36.28l.21.34.07.15,0,.07v0l.11,0,.21.09c1.12.45,2.26.88,3.44,1.27,2.86-2.16,15.79,5.43,23.59,5l-6.23-2.5c13.61,4.26,16.25,3.21,28.82,7.66-11.13-2.07-11-2.63-27.5-4.73,16.22,3.21,27.07,9.07,42.07,11.47-.8-.92-4.34-2.34-.59-2,2.46,2.19,13.74,3.71,11.14,4.76,4.67.68,5.88-.64,8.71-.1l14.63,6.17-.38-.46a122.05,122.05,0,0,1,14.24,2.63q3.43.84,6.78,1.82l.4.12.09,0,.18.08.35.15a5.76,5.76,0,0,1,.61.32,8.07,8.07,0,0,1,0,.83v.54s0,0,0,.08l.05.22.1.45q.8,3.54,1.58,7.1c.53,2.36,1.06,4.74,1.6,7.12l.41,1.78.21.9.05.23.12.43.23.87c.64,2.32,1.27,4.64,1.91,7l7.45,5c1.31.89,2.65,1.77,4,2.63,2.7,1.73,5.49,3.41,8.39,5l0-1.05,5,4.74c-4-3.58,2.54.26,3.31-.18l13.45,10.9C375.54,1011.93,375.65,1009.86,371.9,1007.89ZM185.39,929.78l-4,1a8.4,8.4,0,0,1-2.51.61l2.51-.61C183.39,930,184.69,928.87,185.39,929.78Zm39,248.13c1.93.86-2.83.13-4.2.19l6.62.46C227.78,1178.14,225.39,1178.06,224.43,1177.91ZM182.27,919.26l1.89-1.7,3,.09Zm56.9,2.53-5.38-2.15.52-.09,5.33,2.13Zm59.52,25.78c-.33-.16-.64-.29-1-.51a8,8,0,0,1,1,.51c4.08,2,6.32.47,9.29,3.33C303.25,951.36,301,948.92,298.69,947.57Zm-94.28-24.94a19.54,19.54,0,0,0-4.19.92c1.15.39,5.14.34,2.47,1.31-2.11-.23-8.53,1.32-8.92.25C199.64,924.77,202.72,920.63,204.41,922.63Zm-65.34,78.45-.06-1.45-1.1,5.26Zm-2.18,24.63c-1.58,2.88-1.64,10.44-2.17,15.65,1.19,1.4,2.86-3.84,3-10C139.1,1024.22,135.88,1028.57,136.89,1025.71ZM244.13,930.4,243,929l1.36.24L239,927.14c7.61.64,12.1,4.55,15.68,6C251.48,932.14,243.3,927.36,244.13,930.4ZM134,1078.3c-1.11,5.23-2.59,14.67-3.58,13.76,1.91.42,3.1-7.17,3.19-9.54A18.9,18.9,0,0,1,134,1078.3Zm-3.61-.43c1.19-7.59,2.11-8.08,4.15-13.83.5,7.59-2.06,9.55-3,8.61-1.1,5.22.18,4.26.3,7.08Zm5.73-7.7-.14-3.12c-.64-3.71-2.79-4.57-.4-9.63l.4,9.63A12,12,0,0,1,136.12,1070.17Zm-2.77,64.17.8-3.11c-.2,3.09-.5,3.44-.8,3.11l-.16.64,0,.16,0,.08-.08.17-.31.7c0-.22-.06-.43-.09-.62a6.07,6.07,0,0,1-.06-.65c0-.55,0-1,0-1.28,0-.62,0-.8.11-.74S133.07,1134,133.35,1134.34Zm1.51-49,.57-9C134.5,1076.85,134.74,1082.49,134.86,1085.37Zm-3.13,46.88c0-3.8.18-13.72.24-12.34C133,1120.85,132.39,1129.87,131.73,1132.25Zm163.37,52.36-5.68-.32,2.8-1.25ZM228.37,1183l1.44-.63,3.3.23Zm-61.16,3.88a.59.59,0,0,0-.08-1,2.54,2.54,0,0,1-1.53-.36.35.35,0,0,1,0-.12l.05.07a2,2,0,0,1,1.51.41,23.92,23.92,0,0,0,7.15-1.07,7.74,7.74,0,0,0-3-.25,10.91,10.91,0,0,1-2.63-.13c1.68-1,6.71-.74,10.07-.69s5.69-.15,3.64-2.25c2.43.29,10.66.6,7.95,1.71-3.22.22-7.85.79-12.27,1.48-2.21.35-4.37.72-6.27,1.1s-3.33.72-4.57,1.08a3.92,3.92,0,0,1-2,.7A11.85,11.85,0,0,1,167.21,1186.91ZM127.44,1120a18.06,18.06,0,0,1,.56-3.78c.42-2,1-3.48,1.61-2.87-.76,4.84-1.15,1.71-1.61,2.87A27.77,27.77,0,0,0,127.44,1120Zm.32-14.66-1.19,7.56,1.16-3.79-2.35,11.39C124.72,1113.92,126.48,1106.34,127.76,1105.38Zm-.77-2.72,1.16-1.52-1.22,2.35.06-.83-.27.35,1.16-12.78Zm7.64-130.82c-3.61-5-3.18,11.22-5.12,13.65,1.25.58,3,5.53,3.51-7,.83,10.87-2.75,6.67.17,13.24a74.29,74.29,0,0,1,1.38-12.31l-.12,6.11C137,982.19,133.68,976.1,134.63,971.84Zm28.21-45.08,7.78-2-7.43,1.7Zm178.58,42.83c.25-.29,1,.7,1.78,2.23q.3.57.6,1.23c.19.39.35.71.51,1.08a16.09,16.09,0,0,1,.8,2.19,4.73,4.73,0,0,1,2,2.16c-.91-.51-1.85-1.06-2.77-1.6-.27-.79-.53-1.56-.78-2.28l-.77-2.14A10.1,10.1,0,0,0,341.42,969.59Zm57.37,55.73-.45-9.19c1.15.94,1.38,2.84,1.46,5.21a42.69,42.69,0,0,0,.43,7.09C399.42,1030,399.65,1026.62,398.79,1025.32Zm7.67,58.27.05,2.89,1.61-3.26Zm2.16-4.28c1.14,1.68.76-4.5.45-5.92Zm8.69,52.26-.62-3.72-1.34,3.61Zm-2.88-5.67c1.17-1.05,2.94-.91.95-9.39-1.4-.18-1.08,2.16-3.08-.83a27.7,27.7,0,0,0,1.22,6.52c0-2-.9-4.16-.08-4.8a23.92,23.92,0,0,1,1,8.5,2.59,2.59,0,0,0-.81,2C414,1127.86,414.31,1127.08,414.43,1125.9Zm-5.52-31a10.42,10.42,0,0,0-.91-2.49l.27-.56a4.22,4.22,0,0,1,.64,3c.34,1.22.68,2.65,1,4.12,1.26.81,1.26-5.18,1.69-6.82,0,2.84-.75,5.42.43,9,.27-.54.56-.1.23-2.44l.93,5.1c-.81,6.08-2,.53-3.28-4.88-.28-.14-.59-.52-1-1.52A6.16,6.16,0,0,1,408.91,1094.93Zm2.9,41.55,0-2.85c.25-1.5.82-.64,1.09-1.19C413.19,1135.74,413,1140.14,411.81,1136.48ZM357.93,989c1.77.72-1.18-2.75-4.93-4.72l2.81-.23c-.52,1,6.72,5.45,7.47,6.06C363.7,992.27,361.27,989.93,357.93,989ZM190.19,920.58c-2.06-1.66-12.16,2.44-14.61,2.53C180.88,921.17,193.09,917.31,190.19,920.58Zm-17.87,5.8c-2.86.75-3.62,1.17-3.61,0-1.51-.06-3.61,1.11-5.13,1.07,5.31-2.44,5.42-.69,8.74-1.12.75-.2,1.59-.41,2.67-.64A14,14,0,0,1,172.32,926.38ZM282.57,938.3l3.38,2.56,6,1.49ZM333.31,964c.72-.74,2.8,6,2.8,7.54,1-.78-.52-5.26-1.5-8.9a12.46,12.46,0,0,0-.57-2.42c.13.73.34,1.53.57,2.42.15,1.43-.72.67-1.12.79l-.88-1.69,1.21,5.08Zm61.41,85.23c1.47,4.06,1.2,4.6,1.24,7.46C395.39,1055.86,394.77,1052.14,394.72,1049.25Zm-83.22-99c7,1.31-2.82-2.63,1.83-2l-3.62-.86c6.16.37,3.8,2.43,8,3.21l-2.8-.52c-2.47.5,4,1.89,4.27,2.91C315.85,952.55,308.71,949.69,311.5,950.2ZM394.83,1056c2.07,6.82-.45,5.9-.1,10.15C393,1060.7,395.21,1061.23,394.83,1056Zm-63-81.31-.34-.36.26,1.41.13.71.06.35.15.65,1.25,5.24.45.68-1.24-5.2-.31-1.28c-.06-.26-.05-.29-.08-.43l-.07-.36Z"/><path class="cls-3" d="M407.79,1063.07a21.42,21.42,0,0,1,.53,3.79C408.1,1065.66,407.91,1064.41,407.79,1063.07Z"/><path class="cls-3" d="M153.56,923.11c-.07.34-.62.66-1.39,1C152.22,923.89,152.56,923.6,153.56,923.11Z"/><path class="cls-3" d="M138.89,926.36l-.79.21-.71.08Z"/><path class="cls-3" d="M369.78,1199.49c1.26.34,1.09.53.29.68l-.73.1-1.13.14-2.45.28c-.83-.31-1.6-.59-2.2-.76a12.28,12.28,0,0,0,2.21.42c.74-.28,1.35-.55,2-.73a6.19,6.19,0,0,1,1-.18,5,5,0,0,1,.55,0Z"/><path class="cls-3" d="M351.12,1193.61a25.23,25.23,0,0,0,5.39,2.42A18.64,18.64,0,0,1,351.12,1193.61Z"/><path class="cls-3" d="M365.81,1198.45c-.95-.19-1.89-.39-2.8-.61s-1.63-.38-2.4-.58c-1.51-.4-2.89-.81-4.1-1.23,1.16.3,2.26.45,3.66.75.69.15,1.46.33,2.35.59S364.53,1198,365.81,1198.45Z"/><path class="cls-3" d="M301.79,1187.34c2.89,1,8.54.76,8.54.76-12.3.35,2.4,1.78,3.39,2.5C306.1,1190,306.1,1188.85,301.79,1187.34Z"/><path class="cls-3" d="M285.56,1186.25a28.87,28.87,0,0,0,3.41,0A13.47,13.47,0,0,1,285.56,1186.25Z"/><path class="cls-3" d="M281,1186.94a18.06,18.06,0,0,1-7.6-2.31c5.16-.52,8.38,1.22,12.2,1.62C282.55,1186.15,279.61,1185.93,281,1186.94Z"/><path class="cls-3" d="M151.09,1180.15c.51.84,2,2.7,1.55,3.09l-4.38-5.61C146.78,1175.18,150.13,1179.1,151.09,1180.15Z"/><path class="cls-3" d="M137.18,1157.74c-3.41-4.55-2.75-1.31-4.25-3.79l1.72-.92Z"/><path class="cls-3" d="M146.82,1154.27l.88,1.44-1.12-1.55Z"/><path class="cls-3" d="M122.1,1132.44l-1.15,1.92-.15.24c0,.1-.1.25-.14.37l-.3.77-.61,1.6c.11-1,.24-1.82.36-2.55a3.77,3.77,0,0,1,.1-.4l.09-.3c.06-.2.13-.37.19-.54a3.6,3.6,0,0,1,.79-1.3C121.78,1131.77,122.17,1132,122.1,1132.44Z"/><polygon class="cls-3" points="121.56 1110.73 120.76 1114.03 121.83 1103.63 121.56 1110.73"/><polygon class="cls-3" points="123.68 1084.66 123.26 1083.72 124.1 1076.59 123.68 1084.66"/><path class="cls-3" d="M265.52,927.26c.56,2-10.23-1.71-13.56-2.13C254.75,923.53,260.53,928.26,265.52,927.26Z"/><path class="cls-3" d="M405.67,1053.35l-1-10.86C406.46,1050.77,405,1044.83,405.67,1053.35Z"/></g></g></g></g></svg>