<svg xmlns="http://www.w3.org/2000/svg" viewBox="0 0 1233.31 321.37"><defs><style>.cls-1{opacity:0.15;}.cls-2{fill:#fff;}</style></defs><g id="Layer_2" data-name="Layer 2"><g id="Background"><g class="cls-1"><path class="cls-2" d="M921.77,312.13l34.48-5c12-1.73,21.1-7.65,24.43-15.87h0c2.63-6.5,8.92-11.63,17.55-14.32l58-18.09a45,45,0,0,1,9.37-1.84l92.82-8.52c8.66-.8,16.2-3.75,21.33-8.37l32.1-28.85c8.07-7.25,9.2-17.66,2.95-27.2l-11.07-16.92a37.24,37.24,0,0,0-10.47-10.29l-37.64-25.35c-14.27-9.6-34.67-11.85-49-5.4l-30,13.51c-10.73,4.83-25.18,4.89-38.05.15L962,111.58c-1.62-.59-3.28-1.12-5-1.56L898.22,94.3c-13.47-3.61-27.56-2.15-37.06,3.82l-34,21.4-31.75,22.17c-7,4.88-17,7.19-27.65,6.39L698.8,143c-8.62-.64-16.85.74-23.42,3.93L653,157.76c-9.52,4.63-14.59,12.57-13.63,21.37l2.09,19.08c.72,6.61,4.8,13.19,11.48,18.52l41.55,33.15a53.94,53.94,0,0,0,26.8,10.77l65.18,7.82a56.24,56.24,0,0,1,21,6.84l31,17.76a53.86,53.86,0,0,0,12.27,5.1l43.55,12.24a57.38,57.38,0,0,0,14.48,2.14l4.87.08A52.41,52.41,0,0,0,921.77,312.13Z"/><path class="cls-2" d="M920.53,303.52c-.46-.78-.9-1.58-1.32-2.38a36.26,36.26,0,0,1-5.3,3.49A41.77,41.77,0,0,0,920.53,303.52Z"/><path class="cls-2" d="M857.71,288.28c-.83.12-1.75.21-2.72.28l-1.48.08-1.32.12c-1.77.13-3.63.14-5.4.17-3.53.1-6.75.2-8.24,2.42a46.49,46.49,0,0,0,11.37,0,3.87,3.87,0,0,0,1.18,2.74,9.35,9.35,0,0,0,3.25,1.92,34.47,34.47,0,0,0,9.39,1.84l-7.15-1.75c2,0,1.49-2.78,3.47-2.78,10.28,5,14.54.47,23.37,7.51l-.68.25,8.6-.28c2.33,1.27.83,2.81-.16,3.28l2.79,0,1.35,0H896l.6,0c1.58-.09,3.12-.23,4.68-.36s3.16-.24,4.87-.32l2.66-.09c1.09,0,2.28,0,3.52,0a8.18,8.18,0,0,0-3.13-1.91,9,9,0,0,0-2.9-.56,57.82,57.82,0,0,0-6.58.53c-.59.06-1.18.1-1.76.12a14.46,14.46,0,0,1-1.85,0,23.77,23.77,0,0,1-3.9-.57,8.9,8.9,0,0,1-5.87-4l.68-.25C877.06,296.55,867.61,289,857.71,288.28Z"/><path class="cls-2" d="M891.19,304.08h-.67C890.51,304.29,890.81,304.25,891.19,304.08Z"/><path class="cls-2" d="M717.23,160.17l.48-1.12C717.09,159.43,716.51,159.8,717.23,160.17Z"/><path class="cls-2" d="M644.18,204l-.08-.58C642.32,203.31,642.84,203.55,644.18,204Z"/><path class="cls-2" d="M1141.08,236l-2.52-1.45C1139.3,236.06,1140.16,236.32,1141.08,236Z"/><path class="cls-2" d="M973.9,274.12l-.22.36Z"/><path class="cls-2" d="M1056.39,266.4l.75,1.31C1057.19,266.82,1056.9,266.46,1056.39,266.4Z"/><path class="cls-2" d="M1007.06,284.88a19.22,19.22,0,0,0-4.39.63A5.6,5.6,0,0,0,1007.06,284.88Z"/><path class="cls-2" d="M975.35,271.84a26.89,26.89,0,0,1-1.45,2.28A14,14,0,0,0,975.35,271.84Z"/><path class="cls-2" d="M1133.74,260.77l2.39,3.65C1136,263.17,1134.83,262,1133.74,260.77Z"/><path class="cls-2" d="M998.12,291.3A2.8,2.8,0,0,0,996,291,2.05,2.05,0,0,0,998.12,291.3Z"/><path class="cls-2" d="M848.7,285.7a13.58,13.58,0,0,0,4.11.89A8.09,8.09,0,0,0,848.7,285.7Z"/><path class="cls-2" d="M1064.84,129.33a4,4,0,0,0,.37-1.57A1,1,0,0,0,1064.84,129.33Z"/><path class="cls-2" d="M1225.22,176.58l.42.41a3.84,3.84,0,0,0,.12-.94Z"/><path class="cls-2" d="M1186.54,137.66a5.53,5.53,0,0,0,1-.31A1.48,1.48,0,0,0,1186.54,137.66Z"/><path class="cls-2" d="M1217.47,229a6.81,6.81,0,0,0-.45,2.16Z"/><path class="cls-2" d="M1187.05,250.87c1.38-.27,1.8.24,1.68,1.2a11.79,11.79,0,0,1-1.57,3.66,23.37,23.37,0,0,0,2.3-1.39c.36-.24.7-.51,1-.76l.9-.71a19.49,19.49,0,0,0,2-1.87,47.56,47.56,0,0,0,3.08-3.75,19.44,19.44,0,0,1,8.68-6.79L1200.6,242c2.7-6.19,10.75-14.23,17.3-15.18l-.43,2.09a9.54,9.54,0,0,1,3-3.94,20.58,20.58,0,0,1,2.12-1.55l.14-.09.21-.16.43-.33.86-.67c.57-.45,1.14-.86,1.69-1.37a33.51,33.51,0,0,0,3.08-3c.47-.52.92-1,1.33-1.54s.77-1.06,1.1-1.57a12.39,12.39,0,0,0,1.49-2.95,5,5,0,0,0,.36-2.39,3.83,3.83,0,0,1-1.82,1.36,2.74,2.74,0,0,1-1.11,0,1.93,1.93,0,0,0-1.26.37,18.34,18.34,0,0,0-2.42,2.08,30.87,30.87,0,0,0,2.81-11.78,28.8,28.8,0,0,0-1.89-11.26,54.68,54.68,0,0,0,4.62-2.95,37.11,37.11,0,0,0-6.57-10.23c-.68,2.75-4.36-9.67-8.58-7.16-.87-4.76,4.3-.61,6.86-.38-3.68-2.87-2.07-4.48-6.81-6.26l.7-3.07.35-1.53.17-.76,0-.19v-.78a48.2,48.2,0,0,0-13.78-9.84c.88.15.32-.7,1.17-.57a12.89,12.89,0,0,1-2.87-.88c-.46-.2-.92-.41-1.37-.65s-.71-.37-1.06-.58a49.56,49.56,0,0,1-4.07-3c-2.79-2.14-5.93-4.1-10.55-3.22.42,0,.46-.25.71-.44-5,.93-11.08-6.26-13.39-8.75-5.41-2.57-4.48,2.25-5.75,3.7-3.4-2.64-5.67-4.41-7.4-5.64a23,23,0,0,0-2.48-1.55,10.72,10.72,0,0,0-2.16-1,19.2,19.2,0,0,0-4.9-.72c-1-.06-2.22-.12-3.66-.09-.72,0-1.48,0-2.32,0l-2.72.12c-1.71-2-1.92-3.3-1.21-4.36s2.28-1.8,3.82-2.37,3.05-1.15,3.47-2-.23-2.14-3.24-4.1c-1.27,1.1-4.26,1.52-8.11,1.88s-8.61.74-13.55,1.47a50.48,50.48,0,0,0-17.66.34l-2.53.56c-.94.21-1.52.32-2.17.44-1.29.24-2.58.46-3.83.63a38.6,38.6,0,0,1-7,.4l2.24,3.07-9.21,6.42,3.49-7.52c-1.08,1.88-5.17,6.32-7.78,9.5-2.28,1.92-4,2.58-5.39,2.64a1.71,1.71,0,0,1-.86-.14,4.37,4.37,0,0,1-.69-.33,7.7,7.7,0,0,1-1.18-.91c-.73-.66-1.34-1.29-2-1.29s-1.39.56-2.69,2.29a6.74,6.74,0,0,1-.82-1.06c-.73,1.6-2.66,2.34-5.26,2.67a70.76,70.76,0,0,1-9.43.07c1.09-1.44,2.1-2.89,3-4.37a42.56,42.56,0,0,0,4,1.32c-1-2.33-2.61-2.25-4.62-1.76s-4.45,1.26-6.43.55a4.77,4.77,0,0,0-4.09,2.4c-.83,1.13-1.34,2.36-3,2.49-1.87-.91-5.24-.66-6.32-2.5-4.21-3.11,1.44-5.46,3.63-6.82-5.78,3.09-7,2-16.75.5.31-2.35,1.33-3.06,2.69-3a7.36,7.36,0,0,0-5.85,1.79l-2.14-3.71c-9-7.53-13.32,4.54-25.18-1.42,4.19-1.2-10.87-3.36-13.61-7.62,4.56.86.36-7.31,4-9.06-9.29-5.27-5.88,3.85-14.29,1.94l5.3-4.4c-1.08,0-1.93,0-2.62,0l-.91.08c-.25,0-.59.06-.82.1a4.33,4.33,0,0,0-1.81.65,3.7,3.7,0,0,1-1.77.53c-.89.11-2.56-.06-4.6-.09,2.68-1.06-3.19-2.49,2.12-3.06-10.42-3.39-7.81-2.15-16.94-5.3l-2.24,5.33c-3.28-.19-3.82-3-4.42-4.22,1.31.24,3.27,1,3.28.2-2.35-5.76-6.67,1.11-9.7-4.4.57,2,1.09,4.79-2.85,4.09,2.14-3.06-5.07-4.72-5-6.23,1.83,3-8.54-1.13-10,2.42-3.79-3.73,2.12-2.3,2.85-4.08-2.4,1.68-6.34.79-10.17-.32L902,83.2l-.68-.19-.79-.2L899,82.45a14.48,14.48,0,0,0-2.77-.31,5.08,5.08,0,0,0-2.1.32c0-.36-.23-.64-.18-.86-3.09.89-7,1.32-11.39,2.4a38,38,0,0,0-14,6.25c.43-.7.88-1.41,1.35-2.11s1-1.36,1.49-2a18.94,18.94,0,0,0-2,.3,10.91,10.91,0,0,0-1.58.5,6.54,6.54,0,0,0-2.19,1.33,6.11,6.11,0,0,0-1.77,3.31,17.55,17.55,0,0,1-1,3.45,7.66,7.66,0,0,1-1.14,1.65,10.13,10.13,0,0,1-2,1.63c-1.05-4.87-11.17,7.49-10.91,1.16-2.66,4.84-6.38,8.61-6.86,13.69-5.34.26,3.94-10.06-2.19-7.78l-4.5,5.75-2.43-1.46c.8,1.75-4.24,5.1-3.15,6.17-2.59-2-6.12-2.26-7.14-4.34-3.12,3.22-9.77,4.38-11.29,8.68l-1.1-1c-.29,7.09-10.29,8.59-8.72,14.62l-4-1a6.21,6.21,0,0,0-2.5,6.18c.24,1.94,1,3.67,0,5.16-2.24,1.64-5.19,3.71-8.18,4.08,1.87-1.6,2.3-2.64,2.05-3.21s-1.25-.73-2.48-.81c-2.45-.1-6-.1-6.93-1l-7.55,1.12c-1.53.22-3,.48-4.41.82a7.87,7.87,0,0,0-3.33,1.5c2.16-1.34,2.64-2.66,3.51-3.61a4.2,4.2,0,0,1,1.71-1.13,13.37,13.37,0,0,1,3.46-.51c-1.83-2.81-3.69-2.57-7.34-1.91-3.41.7-7.4,2-11.49,1.27l.28-2.65c-11.88.9-12.58,5.42-18,9.63-1.15-3.38.07-4.14,3.66-7.21-7.69-2.53-20.21-1.25-29-2.28-2.61-2.53-.68-3.75,2.33-4.55a35.78,35.78,0,0,1-7.2.54c-1.22,0-2.44-.06-3.65-.1l-1.81-.06-1.91,0c-5.43-.08-10.53,1.11-13.2,4.54,1.06-1.34,0-1.58-1.9-1.45s-4.53.75-6.62.91c.38,1.13.2,2.84-.28,2.85L672,144.54a59.47,59.47,0,0,1-5.42,4c-3.89,2.54-8.13,4.63-11.52,5.12l1.37-2.57a32,32,0,0,0-4.72,2.41c-.67.41-1.48,1-2.18,1.5a23.84,23.84,0,0,0-2,1.75,22.68,22.68,0,0,0-5,8.18,30.31,30.31,0,0,0-1.16,4.34,37.15,37.15,0,0,0-.59,4.36,46.42,46.42,0,0,0-.22,4.69,39.36,39.36,0,0,1-.38,5.78c-.91,3.07-5.09-2.51-4.28,3.49,2.44,2.69,6.76,1.24,6.38,9l-3.86-.1a35.12,35.12,0,0,0,4.63,4.58,9,9,0,0,0,1.17-2.82c.26-1,.41-2.25.6-3.12.36-1.78.9-2.48,3,.31a12.88,12.88,0,0,0-.41,1.25c0,.2-.1.38-.13.56l-.09.46a2.3,2.3,0,0,0,.07,1.24,3.54,3.54,0,0,0,1.39,1.6,4.72,4.72,0,0,1,1.53,1.63,9.47,9.47,0,0,1,.69,3.82,8.3,8.3,0,0,0-3.07-1.11l-1.94-.45-1.69-.46a17.41,17.41,0,0,0,5.31,10c2.47,2.38,5.27,3.79,7.93,5.4,5.37,3.13,10.74,6.32,16.17,13.73,8.79,3.14,18,9.76,24.57,11.39-2.77,2.67-4.84,5.35-9.9,5.15a10.45,10.45,0,0,0,4.51,2.35,23.59,23.59,0,0,0,4.68.66c2.9.22,5,.51,6.19,4.18,1.38-.79,3.32-.88,5.51-.79s4.68.32,7.1.3a26.66,26.66,0,0,0,3.52-.24,18.47,18.47,0,0,0,3.18-.78c2-.7,3.59-1.77,4.26-3.54.13,1.51,8.06,1-.28,4.14,10.51-1.16,12.69,7.94,17.38,8.47,2.66.1-2.45-5,3.56-4.38.7.39.78,1.15,1.49,1.54l2.51-1.42c2.19,1.95-3,3.29-3.49,5.15,8.21,2.54,14.36-2.53,24.35-1.81l-1.85,1.06L781,266l-.63.36,4.23-.8,2.12-.4c.73-.11,1.49-.25,2.24-.34l-.54,1.84c2-.22,2.71-1.32,5.53-.91-.48.69-.95,1.38-1.4,2.08,1.69-1.49,5.26-2.06,9.06-1.65a27.12,27.12,0,0,1,5.59,1.21c.88.28,1.71.61,2.47.93s1.47.71,2,1l.26,1.36,12,1.43c3.91,5.13-9.35,1.06,1.76,5.39l-5,2.64c8.2,2.55,8,5.39,13.79,6.82-1-3.39-4.65-5.07-1-5.45,1.5,4,4,5,6.86,5.16a13.68,13.68,0,0,0,2.22,0c.68-.08,1.38-.22,2.08-.34a25.34,25.34,0,0,1,4.17-.58,15.39,15.39,0,0,0-3.18-1,4.93,4.93,0,0,0-1.61.07c-.29.06-.58.15-.93.26a9.31,9.31,0,0,0-1.16.39c-2.9-1.76.2-2.81-1.5-4l-5.51-.06.44-3.52L826.81,276c2.35-3.07-6.33-4.19-1.53-6.1-2.9-.72-4.72-2.09-6.63-3.18a11.91,11.91,0,0,0-3.07-1.32,9.43,9.43,0,0,0-1.85-.29l-1.17-.07a12,12,0,0,0-1.34,0c-1.57-2.1.4-1.91,2.31-1.37.51.15.85.23,1.17.32a7.54,7.54,0,0,0,.75.16c.33,0,.25-.14-.6-.74l-2.42-1c-.85-.35-1.7-.68-2.56-1q-2.57-.94-5.14-1.71a84.69,84.69,0,0,0-10.42-2.37c-1.75-.3-3.51-.51-5.28-.69l-4.59-.4c-2.93-.25-5.86-.55-8.79-.88-11.74-1.34-23.53-3.24-35.34-5.32l2.51-1.43c-2.51,1.43-5.74,2.45-7.62,3.52-1.83-1.76-6.53-4.08-11.54-5.33l-1.59-.4c-.48-.1-.94-.21-1.41-.29a17.6,17.6,0,0,0-2.75-.29,8.73,8.73,0,0,0-5,1.31c-.47-.5.72-1,1.26-1.26-3-.61-6.78-3.17-9.58-6.26-.37-.38-.66-.77-1-1.18l-1.6-1.67c-1.08-1.11-2.18-2.21-3.29-3.28a61.76,61.76,0,0,0-6.81-5.79c-7.55,1.76-11-13.62-19.51-9.82l2.91.13c1.58,4.21-7.9,1.06-10.41,1.66.87-6.2,2.41-3.37,2.53-9.62l2.35,4.28,2-4.1A17.85,17.85,0,0,1,661,206.9a7.84,7.84,0,0,1-3.26-5.29,18,18,0,0,1,0-4.11.94.94,0,0,0-.55-.87l-.17-.08s-.06,0-.1-.06l-.11-.21a9.88,9.88,0,0,0-.54-.84,9.26,9.26,0,0,0-1.46-1.57c.49.49,1.2.28,1.68.82,1.86-6.21-4.22-9.76-6.2-14,2.16-.74,3.89,2.21,5.84,4.31a28.27,28.27,0,0,0-.14-4.26c-.08-.75-.18-1.52-.3-2.3-.07-.38-.13-.75-.19-1.13a.62.62,0,0,0-.1-.2c-.13-.26-.31-.5-.47-.81a2.59,2.59,0,0,1-.2-1.17,3.33,3.33,0,0,1,.57-1.67,5.84,5.84,0,0,1,1.63-1.72,7.3,7.3,0,0,1,1.15-.69c.2-.11.44-.18.65-.27l.78-.27a24.37,24.37,0,0,1,4.54-1.19c2.36-4.49-3.14-2.94-.32-6.84,3.58-.81,6.92.26,3.62,3.55,2.86.16,6-.87,9.47-2.53,1.7-.83,3.49-1.83,5.28-2.89a26.14,26.14,0,0,1,3.44-2,22.72,22.72,0,0,1,9.32-2.23,18.71,18.71,0,0,1,2.49.13c.36.05.95.12,1.48.21s1.06.17,1.58.27a29.93,29.93,0,0,1,6,1.75c8.29-2.73,3.37-4.55,15.86-5.83-3,1.92,2.38,7.5-5,7.2l-1.05,2.27c12.22,1.36,28.51,3.43,35.68-2.67,0,4.89,2.16,1.1,6.59,4.06,1.92-.4-.12-.75-.85-1.12,2.4-1.91,4.1-1.74,5.6-1.15.75.3,1.46.7,2.17,1a6.38,6.38,0,0,0,1.1.35,5.27,5.27,0,0,0,1.45.05c-.49.26-1,.51-1.48.77a69.68,69.68,0,0,0,11.1-3.08c1.87.5,4.82,1,5.5,2.37l-.64-3.34a5.71,5.71,0,0,1,5.08,1,4,4,0,0,0,2.2.68,9.35,9.35,0,0,0,4.17-1.22c-.85-.57-1.67-1.2-2.48-1.81,2.64-.06,5.61-1.86,8-3.5a23.23,23.23,0,0,1,3.34-2l.36-.13.27,0a2.27,2.27,0,0,1,.52,0,2.17,2.17,0,0,1,1,.59c.28.25.22.42,0,.63s-.3.22-.51.37l-.44.3-.58.42c.32,0,.64-.06,1-.11l.24,0h.51a7.26,7.26,0,0,0,1.32-.21,8.9,8.9,0,0,0,2.42-1,22.42,22.42,0,0,0,4.34-3.71c2.78-2.88,5.52-6.15,9.14-7.22l-4.6-3.5c4.79-5.46,4.16-1.51,5,.23,3.82-2.72,5.67-1.82,11.06-4.85,1.72-2.91.18-2.6.11-4.49l6.07-2.25-1.78,4.66c3.81-11.86,21.06-12.18,22.58-21.82,4-.64-1,4.55,1.34,4.16a19.78,19.78,0,0,0,4.17-1.68c.67-.35,1.32-.74,2-1.16l1-.65.33-.23.24-.19a39.68,39.68,0,0,1,4.58-3.52c3.65-2.34,8.69-3.77,12.23-1.45.73.29,1.45.62,2.18.86s1.45.56,2.17.84,1.45.51,2.17.81l1.09.39,1.43.49c4,1.3,8.13,2.38,12.33,3.44,8.42,2.11,17.08,4.12,25.18,7.66l.08-1.51,11.7,4.35c2-1.16,5-.83,8.22-.5l1,.11,1,.08a18.23,18.23,0,0,0,2,0c.61-.07,1.49,0,2.29-.07a11.4,11.4,0,0,0,2.39-.42c-.81,1-.39,3-1.8,3.42,5.12,1.39,11.07,1.85,13.32,4.81l-2.1.58c10.67,4.89,25.89,10.59,32.62,10.09,3.87,1.06,2.86,3.52,3.24,5.57,6.3,2.49,11,2.61,17,2.31a17.23,17.23,0,0,1,3.44,4.05l3.67-2.49c2.48,1.45-.41,3,1.36,4.66a9.35,9.35,0,0,1,1.26,0l1.34.1,2.63.26c1.74.21,3.48.41,5.2.68,3.43.5,6.84,1,10.18,1.49,6.66.91,13.24,1.2,18.16.08-.59-.49-1.16-1-1.72-1.51a14.51,14.51,0,0,1,6.79-1.36c2,.08,3.22.8,1,2.49a38.37,38.37,0,0,0,3.73-1q.9-.32,1.77-.66l.86-.35.62-.26a35.6,35.6,0,0,0,4.15-2.25,77.2,77.2,0,0,0,7.37-5.44,97.68,97.68,0,0,1,8.15-6.05c1.56-1,3.26-2,5.14-3l1.45-.73.75-.36.38-.17.27-.11a14,14,0,0,1,2.27-.77c1.9,2.79,4.34,1.62,7.51.95s6.65-.69,7.24,3c3-.62,5.37.23,7.45.79a14.18,14.18,0,0,0,3.12.59,9.71,9.71,0,0,0,3.64-.66c-.21.72.11,1.21-.79.94a4.41,4.41,0,0,0,1.7,2.25,11,11,0,0,0,1.42,1l.42.23.1,0,.16.1.33.19c.44.25.89.51,1.36.76a118.25,118.25,0,0,0,12.3,5.49l-.85,2.1c5.18-2.28,16.43,7,21.61,4.69.18,1.39-2.45.79-3.91.84.55,3.1,2.45,3.72,4.71,4.06a34.18,34.18,0,0,1,3.56.58,8.34,8.34,0,0,1,1.76.66c.15.07.29.15.43.23l.31.22a3.32,3.32,0,0,1,.59.54c-.93.77-.78,2.56-2,2.77.92,1.47,1.84,2.83,2.67,4.09l1.18,1.82.58.93c.37.58.75,1.16,1.13,1.74,3.08,4.63,6.73,9.31,10.53,14.11.29.37.34.43.48.59l.39.43.67.85a10.7,10.7,0,0,1,.95,1.61,7.74,7.74,0,0,1,.52,1.48,5,5,0,0,1,0,1.39,4.87,4.87,0,0,1-1.62,2.85c-.22.24-.56.44-.82.67l-1.81,1.41c-1.24.93-2.5,1.83-3.78,2.68-5.17,4.41,5.22,2.12-1.63,7.78-3.52-.09,0-6.55-4.92-3.55-1,5-2.56,5.49-6.81,8.93-.33-1.85-1.7-2,.42-5.41-3.68.62-7.42,11.78-14.75,13a2.07,2.07,0,0,1,.89,1.65,4.86,4.86,0,0,1,0,1l-.09.53a1.19,1.19,0,0,0-.05.47,3.73,3.73,0,0,1-2.63,3.13,9.29,9.29,0,0,1-4.66.35c-3.09-.43-5.37-1.76-5.53-.55a5.72,5.72,0,0,0-.89.49c-.22.13-.34.27-.24.4a2.08,2.08,0,0,0,1,.3l-.47,0-.67,0c-.46,0-.93,0-1.39,0a15.15,15.15,0,0,1-2.63-.28c-1.58-.34-2.65-1-2.34-2.22-1.64,1.45-3,3.61-5.66,4.09l1.19-2.9c-1.48.73-3.09,2.64-4.57,3.11l2.55,1.46c-4.08-1.93-11.16,4.29-11.42-1l1.31-.24-7.46-1.72c-2.7,2.4-5.43,4.8-10.34,4.52-2.38-5.29-12.5,0-18.73-.05l.1-1.93c-4.6,3.1-17.09,3-14.76,3.79-4.7.46-11.18-.29-9-2.21-1.86.72-4.81,1.25-7.52,2l-1,.3c-.33.11-.61.21-1.06.34a18.9,18.9,0,0,0-2.29.87,6.26,6.26,0,0,0-2.91,2.35,52.73,52.73,0,0,0-5.54-1.06l-1.45-.17c-.44-.06-.75-.17-1.13-.25l-2.19-.53c-2.4,7.89-15.47,2.25-13.76,9.28-4.45.2-4-1.62-7.19-1.94-4.66,5.17-10.75,6.44-16.88,7.73l-.38-.67c-3,.65-6.06,2.38-9.32,4.33-1.63,1-3.33,2-5.13,3l-.68.36-.77.38-1.87.87-1.91.92-2,1a58.68,58.68,0,0,0-4.85-3.73,15.53,15.53,0,0,0-5.2,6.54,16.8,16.8,0,0,1-4.81,6.27c-1.69.75-1-.7.14-2.3A116.42,116.42,0,0,0,967,284.57l-.39.71-.09.17c0,.06-.08.14-.08.12l-.06,0-.24.07a2.09,2.09,0,0,1-.53.09,3.55,3.55,0,0,1-.57,0,4.34,4.34,0,0,1-.58-.07,3.46,3.46,0,0,1,.49,2.56,6.41,6.41,0,0,1-1,2.15,34.84,34.84,0,0,0-3.59,5.43c-1.26-.84-1.56-1.57-1.42-2.11a3.09,3.09,0,0,1,1.2-1.46c.5-.48,1-.91,1.09-1.47s-.25-1.15-1.21-2a16,16,0,0,0-4.14.2c-.69.14-1.42.27-2.14.47-1.15.24-2.34.54-3.51.87-4.7,1.34-9.43,3.31-14.36,5.22-1-.9,0-1.92.25-3.13,0,0-18.79,16.06-14.19,20.69-2,3.94-4.64,6.47,4.49,8.21,2.58-2.53,10.37-6.28,12.47-2.52l0-3.85c11.4-3.43,2.13,7.62,16.15,5.51l-3.14-.82a14.22,14.22,0,0,0,3.57-1.79,6.84,6.84,0,0,1,1.83-.77,6.46,6.46,0,0,1,1.14-.15,6.3,6.3,0,0,1,1.35.09c.64.42.41.87-.16,1.34a10.68,10.68,0,0,1-1,.73c-.18.13-.39.26-.56.39a5,5,0,0,0-.42.37c.4-.27,1-.6,1.61-.91s1.13-.62,1.69-.95c1.12-.69,2.21-1.34,3.27-2.09a47.85,47.85,0,0,0,6-4.8c1.44,1.76,1.52,3.12-.81,5.82.84-.33,1.55-.65,2.15-1a14.7,14.7,0,0,0,1.48-.92,3.53,3.53,0,0,0,1.34-1.54c.31-.88-.32-1.48-.81-2.09s-.86-1.22-.19-2.06,2.37-1.86,5.85-4.21c1.71-.36,1.92.2,1.53,1.28s-1.44,2.49-2.08,3.67a14.19,14.19,0,0,0,9.36-7.48,22,22,0,0,0,2-5.95c.1-.52.22-1.13.27-1.58-.05-.2-.11-.41-.16-.62a5.82,5.82,0,0,1-.13-1.42,11.64,11.64,0,0,1,2.32,2.08c.46.42.9.45,2.27.38a14.42,14.42,0,0,1-2.73-1.5,1.74,1.74,0,0,1-.63-2.48c1,1.54,1.59,1.49,2.18,1.05A7.27,7.27,0,0,1,996,291c-1-.71-1.89-2.14-1.24-3.23a1.73,1.73,0,0,1,.84-.6,4.13,4.13,0,0,1,1.06-.23,7.12,7.12,0,0,0,2.5-.63,27.5,27.5,0,0,0-4.82-1.48,5.74,5.74,0,0,1,3-2.59,8.16,8.16,0,0,1,3.62-.27c2.62.25,5.22,1.12,7.86,1.06a3.59,3.59,0,0,1-1.83,1.9c5.54-.27,11.63.7,17.23-4.14l-.43.58c11.21-7-5.46-4.27,7.8-11.72,4.88-.78,1.08,11.33,10.68,4.16-6-1.21,4.87-8.9,10.63-12.06l-4.39,8.29c2.5-.72,6.26-3.81,7.81-3.59l-.75-1.33c-.53-1.3-.29-2.06.43-2.54a4.43,4.43,0,0,1,1.39-.53,10.85,10.85,0,0,1,1.74-.22c1.27-.09,2.69-.07,4-.24a6.79,6.79,0,0,0,3.69-1.5l-.9,1.42c-.24.44-.47.84-.69,1.23-.42.76-.76,1.41-1,2a15.7,15.7,0,0,0-1.15,2.83c-.43,1.65-.37,3.22.14,7a15.24,15.24,0,0,1,1.79-3.38,8.66,8.66,0,0,1,3-2.82,19.34,19.34,0,0,1,10.24-2.69l-6.26,6.47c11.14.29,23.31-9.53,31.91-15.27-2,4.56,1.82,5.77-1.78,9.86l10.51-1.88-2.56,5c3.88-5.29,8.94-2.37,7.66-8.63-1.08.95-.86,1.67-2.93,1.67.08-1.94,1.56-6,7-6.24,3.84,1.23-1.94,2.65-.75,4.34,3.28-2.88,3.87,1.22,7.35-.95l-3.51-2.41c2.23-3.85,6-.71,9.47-2.85-4.2,2-2.58,3.94-.76,6l-.27-.46c2.6-.46,5.86-3.34,7.87-1.41l-1.78,5.28,3.56-4.07c1.53.49,2.74,2.19.35,3.37,12.38,2-1.34-10.84,14.93-7.65-.1,1.94-1.71,3.38-6.11,2.64-.41,3.12.82,4.82,5.21,5.56a2,2,0,0,1,.07.56l1.58-.13.81-.06,1.07-.11c1.44-.14,2.92-.35,4.42-.63a44.79,44.79,0,0,0,8.88-2.59,32.11,32.11,0,0,0,7.75-4.49A19.18,19.18,0,0,0,1187.05,250.87Z"/><path class="cls-2" d="M1157.57,264.59c-4.4.37-8.12.73-9.78,1.56C1148.71,267.06,1158.09,267.75,1157.57,264.59Z"/><path class="cls-2" d="M713.12,133.51c.57-.1,1.12-.23,1.66-.38C714.2,133.25,713.66,133.38,713.12,133.51Z"/><path class="cls-2" d="M674.32,137.57a4.94,4.94,0,0,0,2.51.27C676.51,136.89,675.71,136.35,674.32,137.57Z"/><path class="cls-2" d="M1022.48,120.85h0Z"/><path class="cls-2" d="M823.87,105.51c-1.72,3-1.94,4.76-1.36,5.95C823.93,110.08,824.66,108.26,823.87,105.51Z"/><path class="cls-2" d="M894,81.6c.55-.16,1.14-.32,1.64-.51C894.36,81.16,894,81.35,894,81.6Z"/><path class="cls-2" d="M1033.21,122.12c-3.35.54-7.21-1-10.73-1.27C1025.51,121,1030.19,124.48,1033.21,122.12Z"/><path class="cls-2" d="M638.73,166.16a20.22,20.22,0,0,1,0-2.46,21.34,21.34,0,0,1,.28-2.52,24.86,24.86,0,0,0-1,4.8Z"/><path class="cls-2" d="M666.43,145.58c1.6-.07,6.06-4.05,4-4.55A16.57,16.57,0,0,1,666.43,145.58Z"/><path class="cls-2" d="M790.76,141.34c0-1-.13-2-.26-3a14.73,14.73,0,0,1-.57,1.52c-.21.51-.43,1-.68,1.53C789.76,141.39,790.25,141.36,790.76,141.34Z"/></g><g class="cls-1"><path class="cls-2" d="M286,231l34.48-4.95c12-1.73,21.1-7.65,24.43-15.87h0c2.63-6.5,8.92-11.63,17.55-14.32l58-18.1a45.84,45.84,0,0,1,9.38-1.83l92.81-8.52c8.67-.8,16.2-3.75,21.34-8.37l32.1-28.85c8.07-7.25,9.2-17.66,2.95-27.2L568,86.1a37.24,37.24,0,0,0-10.47-10.29L519.85,50.46c-14.27-9.61-34.67-11.85-49-5.4l-30,13.51c-10.73,4.83-25.18,4.89-38.06.15L326.14,30.49c-1.61-.59-3.27-1.12-4.95-1.57l-58.8-15.71c-13.46-3.61-27.55-2.15-37,3.82l-34,21.4L159.56,60.6c-7,4.88-17,7.19-27.65,6.39L63,61.86c-8.62-.64-16.86.74-23.43,3.93L17.13,76.67C7.61,81.29,2.55,89.24,3.51,98L5.6,117.12c.72,6.61,4.8,13.19,11.48,18.52l41.54,33.15a53.94,53.94,0,0,0,26.81,10.77l65.17,7.82a56.11,56.11,0,0,1,21,6.84l31,17.76a54.43,54.43,0,0,0,12.26,5.1l43.56,12.24a57.31,57.31,0,0,0,14.48,2.14l4.87.08A52.4,52.4,0,0,0,286,231Z"/><path class="cls-2" d="M284.71,222.43c-.46-.79-.9-1.58-1.32-2.38a36.81,36.81,0,0,1-5.3,3.49A41.77,41.77,0,0,0,284.71,222.43Z"/><path class="cls-2" d="M221.89,207.19c-.84.12-1.75.21-2.72.28l-1.48.08-1.33.12c-1.76.13-3.62.14-5.39.17-3.53.1-6.75.2-8.24,2.42a46.49,46.49,0,0,0,11.37,0,3.87,3.87,0,0,0,1.18,2.74,9.3,9.3,0,0,0,3.24,1.92,34.62,34.62,0,0,0,9.4,1.84L220.77,215c2,0,1.49-2.78,3.47-2.78,10.27,5,14.54.47,23.37,7.51l-.68.25,8.6-.28c2.33,1.27.83,2.81-.16,3.28l2.79,0,1.35,0h.67l.6,0c1.58-.1,3.11-.24,4.68-.36s3.16-.24,4.87-.32l2.66-.09c1.09,0,2.28,0,3.51,0a8.07,8.07,0,0,0-3.12-1.91,9,9,0,0,0-2.9-.56,55.94,55.94,0,0,0-6.59.53c-.58.06-1.17.1-1.76.12a14.49,14.49,0,0,1-1.85,0,23.65,23.65,0,0,1-3.89-.57,8.9,8.9,0,0,1-5.87-4l.67-.25C241.24,215.45,231.79,207.92,221.89,207.19Z"/><path class="cls-2" d="M255.37,223h-.67C254.68,223.2,255,223.16,255.37,223Z"/><path class="cls-2" d="M81.4,79.08,81.88,78C81.26,78.34,80.69,78.71,81.4,79.08Z"/><path class="cls-2" d="M8.35,122.9c0-.19,0-.37-.08-.57C6.5,122.22,7,122.46,8.35,122.9Z"/><path class="cls-2" d="M505.26,154.92l-2.52-1.45C503.47,155,504.34,155.23,505.26,154.92Z"/><path class="cls-2" d="M338.08,193l-.22.36Z"/><path class="cls-2" d="M420.57,185.31l.75,1.3C421.37,185.73,421.08,185.37,420.57,185.31Z"/><path class="cls-2" d="M371.23,203.79a19.21,19.21,0,0,0-4.38.63A5.63,5.63,0,0,0,371.23,203.79Z"/><path class="cls-2" d="M339.53,190.75a26.89,26.89,0,0,1-1.45,2.28A14.67,14.67,0,0,0,339.53,190.75Z"/><path class="cls-2" d="M497.92,179.68l2.39,3.65C500.17,182.08,499,180.86,497.92,179.68Z"/><path class="cls-2" d="M362.3,210.21a2.72,2.72,0,0,0-2.1-.35A2,2,0,0,0,362.3,210.21Z"/><path class="cls-2" d="M212.88,204.61a13.3,13.3,0,0,0,4.1.88A8,8,0,0,0,212.88,204.61Z"/><path class="cls-2" d="M429,48.24a3.82,3.82,0,0,0,.36-1.57A1,1,0,0,0,429,48.24Z"/><path class="cls-2" d="M589.4,95.49l.42.41a3.84,3.84,0,0,0,.12-.94Z"/><path class="cls-2" d="M550.72,56.57a5.43,5.43,0,0,0,1-.31A1.45,1.45,0,0,0,550.72,56.57Z"/><path class="cls-2" d="M581.65,147.86a6.81,6.81,0,0,0-.45,2.16Z"/><path class="cls-2" d="M551.23,169.78c1.37-.27,1.8.24,1.67,1.2a11.5,11.5,0,0,1-1.56,3.66,24.43,24.43,0,0,0,2.29-1.39c.36-.24.71-.51,1-.76l.9-.72a20.42,20.42,0,0,0,2-1.86c1.19-1.25,2.11-2.52,3.08-3.75a19.44,19.44,0,0,1,8.68-6.79L564.77,161c2.71-6.19,10.76-14.23,17.31-15.18l-.43,2.09a9.54,9.54,0,0,1,3-3.94,23,23,0,0,1,2.12-1.55l.14-.09.21-.16.43-.33.86-.67c.57-.45,1.15-.86,1.69-1.37a32.41,32.41,0,0,0,3.09-3c.47-.52.92-1,1.33-1.54s.77-1.06,1.1-1.57a12.78,12.78,0,0,0,1.49-2.95,5,5,0,0,0,.35-2.39,3.89,3.89,0,0,1-1.81,1.36,2.74,2.74,0,0,1-1.11,0,1.92,1.92,0,0,0-1.26.37,17.7,17.7,0,0,0-2.42,2.08,30.87,30.87,0,0,0,2.81-11.78,28.77,28.77,0,0,0-1.89-11.26c1.56-.89,3.14-1.9,4.62-3a37.11,37.11,0,0,0-6.57-10.23c-.68,2.75-4.37-9.67-8.58-7.16-.87-4.76,4.3-.61,6.85-.38-3.67-2.87-2.06-4.48-6.81-6.26L582,79l.35-1.53.18-.76,0-.19v-.78a48.14,48.14,0,0,0-13.78-9.84c.88.15.31-.7,1.17-.57a12.89,12.89,0,0,1-2.87-.88c-.46-.2-.92-.41-1.37-.65s-.71-.37-1.06-.58a49.56,49.56,0,0,1-4.07-3c-2.79-2.15-5.93-4.1-10.55-3.22.42,0,.46-.25.71-.44-5,.93-11.08-6.27-13.4-8.75-5.4-2.57-4.47,2.25-5.74,3.7-3.4-2.64-5.67-4.42-7.41-5.65a21,21,0,0,0-2.48-1.54,10.26,10.26,0,0,0-2.16-.95,19.12,19.12,0,0,0-4.89-.72c-1-.06-2.22-.12-3.66-.09-.72,0-1.48,0-2.32,0l-2.73.12c-1.71-2-1.91-3.3-1.2-4.36S507,36.54,508.54,36s3.06-1.15,3.48-2-.24-2.14-3.24-4.11c-1.27,1.11-4.26,1.53-8.11,1.89s-8.61.74-13.55,1.47a50.54,50.54,0,0,0-17.67.34l-2.53.56c-.93.21-1.51.32-2.16.44-1.3.24-2.58.46-3.83.63a38.65,38.65,0,0,1-7,.4l2.24,3.07-9.22,6.42,3.5-7.52c-1.09,1.88-5.17,6.32-7.79,9.5-2.28,1.92-4,2.58-5.38,2.64a1.8,1.8,0,0,1-.86-.14,3.66,3.66,0,0,1-.69-.33,8.38,8.38,0,0,1-1.18-.91c-.73-.66-1.34-1.29-2-1.29s-1.39.56-2.68,2.29a6.61,6.61,0,0,1-.82-1.06c-.73,1.6-2.66,2.34-5.27,2.67a72.47,72.47,0,0,1-9.43.07c1.09-1.44,2.11-2.89,3-4.37a42.56,42.56,0,0,0,4.05,1.32c-1.06-2.33-2.61-2.25-4.62-1.76s-4.46,1.26-6.43.54a4.8,4.8,0,0,0-4.09,2.41c-.83,1.13-1.34,2.36-3,2.49-1.87-.91-5.25-.66-6.32-2.5-4.22-3.11,1.44-5.46,3.62-6.82-5.77,3.09-7,2-16.75.5.32-2.35,1.34-3.06,2.7-3a7.35,7.35,0,0,0-5.85,1.79l-2.14-3.71c-9-7.53-13.33,4.54-25.18-1.43,4.19-1.19-10.87-3.35-13.61-7.61,4.55.85.36-7.31,3.95-9.06-9.29-5.27-5.89,3.85-14.29,1.94l5.3-4.4c-1.08-.05-1.93-.05-2.62,0l-.91.08c-.26,0-.59.05-.82.1a4.44,4.44,0,0,0-1.82.65,3.66,3.66,0,0,1-1.77.53c-.88.11-2.56-.06-4.59-.09,2.68-1.06-3.19-2.49,2.11-3.07-10.42-3.38-7.81-2.14-16.93-5.29l-2.24,5.33c-3.29-.2-3.82-3-4.43-4.22,1.32.24,3.28,1,3.29.2-2.36-5.76-6.67,1.11-9.71-4.4.57,2,1.1,4.79-2.84,4.09,2.14-3.06-5.07-4.72-5-6.23,1.82,3-8.55-1.13-10.05,2.42-3.79-3.73,2.11-2.3,2.85-4.08C276.82,5,272.88,4.06,269,3l-2.83-.84-.68-.19-.79-.2q-.81-.21-1.56-.36A14.55,14.55,0,0,0,260.41,1a5.32,5.32,0,0,0-2.11.33c0-.36-.22-.64-.17-.86-3.09.89-7,1.32-11.4,2.4a37.91,37.91,0,0,0-14,6.25c.43-.7.88-1.41,1.35-2.11s1-1.36,1.49-2a16.57,16.57,0,0,0-2,.3,11.06,11.06,0,0,0-1.59.5,6.49,6.49,0,0,0-2.18,1.33A6.13,6.13,0,0,0,228,10.45a17.51,17.51,0,0,1-1,3.45,7.66,7.66,0,0,1-1.14,1.65,10.82,10.82,0,0,1-2,1.63c-1.06-4.88-11.18,7.48-10.91,1.16-2.67,4.84-6.39,8.6-6.86,13.69-5.35.26,3.94-10.06-2.2-7.78L199.41,30,197,28.54c.8,1.75-4.24,5.09-3.16,6.17-2.58-2-6.12-2.26-7.13-4.35-3.12,3.23-9.78,4.39-11.29,8.69l-1.1-1c-.29,7.09-10.3,8.59-8.72,14.62l-4-1a6.21,6.21,0,0,0-2.5,6.18c.24,1.94,1,3.67,0,5.16-2.23,1.64-5.19,3.71-8.18,4.07,1.88-1.59,2.31-2.63,2-3.2s-1.24-.73-2.47-.81c-2.45-.1-6-.1-6.93-1.06l-7.55,1.13c-1.53.22-3,.48-4.41.82a7.87,7.87,0,0,0-3.33,1.5c2.15-1.34,2.64-2.66,3.51-3.61a4.1,4.1,0,0,1,1.71-1.13,13.73,13.73,0,0,1,3.46-.52c-1.83-2.8-3.69-2.56-7.35-1.9-3.4.7-7.39,2-11.49,1.27l.28-2.65c-11.87.9-12.58,5.42-18,9.63-1.15-3.38.07-4.14,3.66-7.21C96.3,56.72,83.78,58,75,57c-2.61-2.54-.68-3.75,2.33-4.55a35.78,35.78,0,0,1-7.2.54c-1.22,0-2.45-.06-3.66-.1l-1.8-.07-1.91,0c-5.44-.08-10.54,1.11-13.2,4.54,1-1.34,0-1.58-1.9-1.45s-4.53.75-6.62.9c.38,1.14.2,2.85-.28,2.85l-4.51,3.86a59.47,59.47,0,0,1-5.42,4c-3.89,2.54-8.13,4.63-11.53,5.12L20.65,70a32,32,0,0,0-4.72,2.41c-.67.41-1.48,1-2.18,1.5a24,24,0,0,0-2,1.74,22.8,22.8,0,0,0-5,8.19,29.05,29.05,0,0,0-1.16,4.34A35.17,35.17,0,0,0,5,92.54c-.14,1.48-.21,3-.21,4.69A39.36,39.36,0,0,1,4.39,103C3.48,106.08-.7,100.5.1,106.5c2.45,2.69,6.77,1.24,6.38,9l-3.85-.11A34,34,0,0,0,7.26,120a9.46,9.46,0,0,0,1.17-2.82c.26-1,.41-2.26.59-3.12.37-1.78.9-2.48,3,.31a13.13,13.13,0,0,0-.42,1.25c-.05.2-.09.38-.13.56l-.08.46a2.2,2.2,0,0,0,.07,1.24,3.54,3.54,0,0,0,1.39,1.6,4.81,4.81,0,0,1,1.53,1.63,9.84,9.84,0,0,1,.69,3.82A8.3,8.3,0,0,0,12,123.82l-1.94-.45c-.62-.16-1.21-.32-1.7-.47a17.53,17.53,0,0,0,5.31,10c2.48,2.38,5.27,3.79,7.93,5.39C27,141.42,32.33,144.61,37.77,152c8.79,3.14,18,9.76,24.57,11.39-2.78,2.67-4.84,5.35-9.9,5.15A10.39,10.39,0,0,0,57,170.91a23.59,23.59,0,0,0,4.68.66c2.9.22,5,.51,6.19,4.18,1.38-.79,3.32-.88,5.51-.79s4.68.32,7.1.3A26.66,26.66,0,0,0,84,175a19.69,19.69,0,0,0,3.18-.78c2-.7,3.59-1.77,4.25-3.54.13,1.51,8.06,1-.28,4.14,10.51-1.16,12.7,7.94,17.39,8.47,2.65.1-2.46-5,3.56-4.39.7.4.78,1.16,1.49,1.55l2.51-1.42c2.18,1.95-3,3.29-3.5,5.15,8.21,2.54,14.36-2.53,24.36-1.81l-1.86,1.06,10.08,1.47-.62.35,4.23-.79,2.12-.4c.72-.12,1.49-.25,2.24-.34l-.54,1.84c2-.22,2.7-1.32,5.52-.91-.47.69-.94,1.38-1.39,2.08,1.69-1.49,5.26-2.06,9.06-1.65a27.78,27.78,0,0,1,5.59,1.2c.88.29,1.71.61,2.47.94s1.47.71,1.95,1l.26,1.36,12,1.43c3.91,5.13-9.35,1.06,1.76,5.39l-5,2.64c8.2,2.55,8,5.39,13.79,6.82-1-3.39-4.66-5.07-1-5.45,1.5,4,4,5,6.86,5.16a13.53,13.53,0,0,0,2.21,0c.69-.09,1.39-.22,2.09-.35a26.42,26.42,0,0,1,4.17-.57,14.27,14.27,0,0,0-3.18-1,4.92,4.92,0,0,0-1.61.07,9,9,0,0,0-.93.26,9.43,9.43,0,0,0-1.17.39c-2.89-1.76.21-2.81-1.49-4l-5.51-.06.44-3.52L191,194.87c2.35-3.07-6.32-4.19-1.52-6.1a23.81,23.81,0,0,1-6.63-3.18,12.07,12.07,0,0,0-3.07-1.32,9.41,9.41,0,0,0-1.86-.29l-1.16-.07a12,12,0,0,0-1.34,0c-1.58-2.11.4-1.91,2.3-1.37.51.15.85.23,1.18.31a4.08,4.08,0,0,0,.75.16c.32,0,.25-.13-.6-.73l-2.42-1c-.85-.35-1.71-.68-2.56-1q-2.56-.94-5.15-1.71a86,86,0,0,0-10.41-2.38c-1.75-.29-3.52-.51-5.28-.68l-4.59-.4q-4.4-.37-8.79-.89c-11.74-1.33-23.53-3.23-35.35-5.32l2.52-1.43c-2.52,1.43-5.74,2.45-7.62,3.53-1.84-1.76-6.53-4.09-11.54-5.34l-1.6-.39c-.47-.1-.94-.21-1.4-.29a17.73,17.73,0,0,0-2.75-.29,8.73,8.73,0,0,0-5,1.31c-.47-.5.71-1,1.26-1.26-3-.61-6.78-3.17-9.58-6.26-.38-.38-.66-.77-1-1.18l-1.61-1.67c-1.08-1.11-2.17-2.21-3.28-3.28A61.76,61.76,0,0,0,56,146.54c-7.55,1.76-11-13.62-19.51-9.82l2.9.13c1.59,4.21-7.89,1.06-10.4,1.66.87-6.2,2.4-3.37,2.53-9.62l2.35,4.28,2-4.1a17.83,17.83,0,0,1-10.73-3.26,7.89,7.89,0,0,1-3.27-5.29,17.9,17.9,0,0,1,0-4.12,1,1,0,0,0-.55-.86l-.17-.08s-.06,0-.1-.06l-.11-.21a8.52,8.52,0,0,0-.54-.84A9.26,9.26,0,0,0,19,112.78c.49.49,1.2.27,1.68.81,1.85-6.2-4.22-9.75-6.2-14,2.16-.74,3.89,2.21,5.84,4.3a28.18,28.18,0,0,0-.14-4.25c-.08-.75-.19-1.52-.31-2.3l-.18-1.13a.67.67,0,0,0-.1-.21c-.13-.26-.31-.49-.47-.8a2.46,2.46,0,0,1-.2-1.17,3.33,3.33,0,0,1,.57-1.67,5.72,5.72,0,0,1,1.63-1.72A7.3,7.3,0,0,1,22.25,90c.2-.11.44-.18.65-.27l.78-.27a24.48,24.48,0,0,1,4.53-1.19c2.36-4.49-3.14-2.94-.31-6.84,3.58-.81,6.91.26,3.62,3.55,2.85.16,6-.87,9.46-2.53,1.71-.83,3.5-1.83,5.29-2.89a25.5,25.5,0,0,1,3.44-2A22.72,22.72,0,0,1,59,75.35a18.71,18.71,0,0,1,2.49.13c.36,0,.95.12,1.48.21s1.06.17,1.58.27a29.93,29.93,0,0,1,6,1.75c8.28-2.73,3.37-4.55,15.86-5.83-3,1.92,2.38,7.49-5,7.2l-1,2.27c12.22,1.36,28.5,3.43,35.68-2.67,0,4.89,2.16,1.1,6.58,4.06,1.93-.4-.11-.75-.85-1.12,2.41-1.91,4.11-1.74,5.61-1.15.75.3,1.45.7,2.17,1a5.66,5.66,0,0,0,1.1.36,5.22,5.22,0,0,0,1.44,0c-.48.26-1,.51-1.47.77a70.33,70.33,0,0,0,11.09-3.08c1.88.5,4.83,1,5.51,2.37l-.64-3.34a5.73,5.73,0,0,1,5.08,1,4,4,0,0,0,2.2.68A9.35,9.35,0,0,0,158,79.07c-.85-.57-1.68-1.2-2.48-1.81,2.64-.06,5.61-1.86,8-3.5a23.83,23.83,0,0,1,3.35-2l.36-.13.26,0a2.33,2.33,0,0,1,.53,0,2.17,2.17,0,0,1,1,.59c.27.25.22.42,0,.63s-.3.22-.5.37l-.44.3-.58.42c.32,0,.64-.06,1-.11l.24,0h.52a7,7,0,0,0,1.31-.21,9.14,9.14,0,0,0,2.43-1,22.08,22.08,0,0,0,4.33-3.71c2.79-2.88,5.53-6.15,9.15-7.22l-4.6-3.5c4.78-5.46,4.15-1.51,5,.23,3.82-2.72,5.67-1.82,11.06-4.85,1.72-2.91.18-2.6.1-4.49l6.07-2.25-1.78,4.66C206.19,39.52,223.44,39.2,225,29.56c4-.64-1,4.55,1.35,4.16A19.78,19.78,0,0,0,230.47,32c.66-.35,1.32-.74,2-1.16l.95-.65.33-.23.23-.19a39.88,39.88,0,0,1,4.59-3.52c3.65-2.34,8.69-3.78,12.23-1.45.73.29,1.45.61,2.18.86s1.44.56,2.17.83,1.45.52,2.17.82l1.08.39,1.44.48c4,1.31,8.12,2.39,12.33,3.45,8.42,2.11,17.08,4.12,25.18,7.66l.08-1.51,11.69,4.35c2.05-1.16,5-.83,8.22-.5l1,.11,1,.08a18.23,18.23,0,0,0,2,0c.6-.07,1.49,0,2.29-.08a10.78,10.78,0,0,0,2.39-.41c-.81,1-.39,3-1.81,3.42,5.13,1.39,11.08,1.85,13.33,4.81l-2.1.58C346,55.09,361.25,60.79,368,60.29c3.87,1.06,2.86,3.52,3.24,5.57,6.29,2.49,11,2.61,17,2.31a17,17,0,0,1,3.45,4l3.66-2.49c2.49,1.45-.41,3,1.37,4.66a9.39,9.39,0,0,1,1.26,0l1.33.1,2.64.26c1.74.21,3.48.41,5.19.68,3.44.5,6.85,1,10.19,1.49,6.66.91,13.24,1.2,18.16.08-.59-.49-1.16-1-1.72-1.51a14.51,14.51,0,0,1,6.79-1.36c2,.07,3.22.8,1,2.49,1.28-.27,2.53-.6,3.73-1q.9-.32,1.77-.66l.86-.35.61-.27a34.91,34.91,0,0,0,4.16-2.24,78.35,78.35,0,0,0,7.36-5.44,95.74,95.74,0,0,1,8.16-6c1.56-1,3.26-2,5.14-3l1.45-.73.75-.36.38-.18.27-.1a13.73,13.73,0,0,1,2.27-.77c1.89,2.79,4.34,1.62,7.51.95s6.65-.69,7.24,3c3-.62,5.37.23,7.45.79a14.1,14.1,0,0,0,3.11.59,9.75,9.75,0,0,0,3.65-.66c-.21.72.11,1.2-.79.94a4.4,4.4,0,0,0,1.7,2.25,10.38,10.38,0,0,0,1.42,1l.41.23.11,0,.16.1.33.19,1.35.76a119.2,119.2,0,0,0,12.3,5.49l-.84,2.1c5.18-2.28,16.43,7,21.61,4.69.18,1.39-2.46.78-3.91.84.55,3.1,2.44,3.72,4.71,4.06a34.18,34.18,0,0,1,3.56.58,8.34,8.34,0,0,1,1.76.66l.42.23.32.21a3.81,3.81,0,0,1,.59.55c-.93.77-.78,2.56-2,2.77.93,1.47,1.85,2.83,2.68,4.09l1.18,1.82c.19.31.38.62.58.93.37.58.75,1.15,1.12,1.74,3.08,4.63,6.74,9.31,10.54,14.11.29.36.34.43.48.59l.39.43.66.85a10.7,10.7,0,0,1,1,1.61,6.57,6.57,0,0,1,.52,1.48,4.32,4.32,0,0,1,0,1.39,4.8,4.8,0,0,1-1.61,2.84c-.23.25-.57.45-.83.68-.53.43-1.2,1-1.8,1.4q-1.86,1.41-3.78,2.69c-5.18,4.41,5.21,2.12-1.63,7.78-3.53-.09,0-6.55-4.92-3.55-1,5-2.57,5.49-6.82,8.93-.32-1.85-1.7-2,.42-5.41-3.67.62-7.41,11.77-14.74,13A2.1,2.1,0,0,1,535,147a4.86,4.86,0,0,1-.05,1l-.09.52c0,.18-.1.38-.05.48a3.74,3.74,0,0,1-2.63,3.13,9.29,9.29,0,0,1-4.66.35c-3.09-.43-5.38-1.76-5.54-.55a5.85,5.85,0,0,0-.88.49c-.22.13-.35.27-.24.4a2.15,2.15,0,0,0,.95.3l-.46,0-.67,0c-.46,0-.93,0-1.39,0a15,15,0,0,1-2.63-.28c-1.58-.34-2.65-1-2.34-2.22-1.65,1.45-3,3.61-5.66,4.09l1.19-2.9c-1.48.73-3.1,2.64-4.57,3.11l2.55,1.46c-4.09-1.93-11.16,4.29-11.42-1l1.3-.24-7.45-1.72c-2.7,2.4-5.43,4.8-10.35,4.52-2.37-5.29-12.49,0-18.73-.05l.1-1.93c-4.59,3.1-17.08,3-14.75,3.79-4.7.46-11.18-.29-9-2.21-1.86.72-4.81,1.25-7.52,2l-1,.3c-.33.1-.61.21-1.07.34a16.4,16.4,0,0,0-2.28.87,6.29,6.29,0,0,0-2.92,2.35,52.24,52.24,0,0,0-5.54-1.06l-1.45-.17c-.44-.07-.75-.17-1.13-.25l-2.18-.53c-2.4,7.89-15.47,2.25-13.76,9.28-4.45.2-4-1.62-7.19-1.94-4.67,5.17-10.76,6.44-16.88,7.73l-.38-.67c-3.06.65-6.06,2.38-9.32,4.32-1.64,1-3.33,2-5.14,3l-.68.35c-.24.13-.42.23-.76.39l-1.87.87-1.91.92-2,1a60.67,60.67,0,0,0-4.84-3.72,15.53,15.53,0,0,0-5.2,6.54,16.9,16.9,0,0,1-4.81,6.27c-1.69.75-1-.7.14-2.3a114.14,114.14,0,0,0-6.64,10.09l-.39.7-.1.18s-.07.14-.07.12l-.06,0-.24.07a2.17,2.17,0,0,1-.53.09,3.68,3.68,0,0,1-.58,0c-.18,0-.36,0-.57-.07a3.46,3.46,0,0,1,.49,2.56,6.35,6.35,0,0,1-1.06,2.15,34.92,34.92,0,0,0-3.58,5.43c-1.26-.84-1.56-1.58-1.43-2.12a3.21,3.21,0,0,1,1.21-1.45c.5-.48,1-.91,1.09-1.47s-.25-1.15-1.22-1.95a15.9,15.9,0,0,0-4.13.2c-.69.14-1.42.26-2.14.47-1.16.24-2.34.54-3.51.87-4.7,1.34-9.43,3.31-14.36,5.22-1-.91,0-1.92.25-3.14,0,0-18.79,16.07-14.19,20.7-2.05,3.94-4.64,6.47,4.48,8.2,2.59-2.53,10.38-6.27,12.47-2.51l0-3.85c11.4-3.43,2.14,7.62,16.15,5.51L316,238.6a14.16,14.16,0,0,0,3.56-1.79,7.12,7.12,0,0,1,1.83-.77,6.59,6.59,0,0,1,1.15-.15,7.07,7.07,0,0,1,1.35.08c.64.43.41.88-.16,1.35a10.68,10.68,0,0,1-1,.73c-.19.13-.39.26-.56.39a5,5,0,0,0-.42.37c.4-.27,1.05-.6,1.6-.91s1.14-.62,1.7-1c1.12-.69,2.21-1.34,3.27-2.1a47.77,47.77,0,0,0,5.95-4.79c1.43,1.76,1.52,3.12-.81,5.82.84-.33,1.55-.65,2.15-.95a14,14,0,0,0,1.48-.93,3.48,3.48,0,0,0,1.33-1.53c.32-.88-.31-1.48-.8-2.09s-.86-1.22-.19-2.06,2.36-1.86,5.85-4.21c1.7-.37,1.92.2,1.53,1.28s-1.44,2.49-2.08,3.67a14.19,14.19,0,0,0,9.36-7.48,22,22,0,0,0,2-6c.09-.52.22-1.13.27-1.58,0-.2-.11-.41-.16-.62a5.85,5.85,0,0,1-.14-1.42,11.11,11.11,0,0,1,2.32,2.07c.47.43.91.46,2.28.39A14.12,14.12,0,0,1,356,213a1.75,1.75,0,0,1-.63-2.48c1,1.54,1.58,1.49,2.18,1a7.27,7.27,0,0,1,2.68-1.68c-1-.71-1.89-2.14-1.24-3.23a1.7,1.7,0,0,1,.83-.6,4.31,4.31,0,0,1,1.07-.23,7.34,7.34,0,0,0,2.5-.63,27.35,27.35,0,0,0-4.83-1.48,5.75,5.75,0,0,1,3.06-2.59,8.16,8.16,0,0,1,3.62-.27c2.62.25,5.21,1.12,7.86,1.06a3.61,3.61,0,0,1-1.84,1.9c5.54-.27,11.64.7,17.23-4.14l-.42.58c11.2-7-5.46-4.27,7.8-11.72,4.88-.78,1.08,11.33,10.68,4.16-6-1.21,4.86-8.9,10.63-12.06l-4.39,8.29c2.5-.72,6.25-3.81,7.81-3.59l-.75-1.33c-.54-1.3-.29-2.06.43-2.54a4.14,4.14,0,0,1,1.38-.53,11,11,0,0,1,1.75-.22c1.27-.09,2.69-.07,4-.25a6.73,6.73,0,0,0,3.69-1.49l-.9,1.42c-.25.44-.48.84-.69,1.23q-.63,1.13-1.05,2a14.48,14.48,0,0,0-1.15,2.83c-.43,1.65-.37,3.22.14,7a15.55,15.55,0,0,1,1.78-3.37,8.52,8.52,0,0,1,3.06-2.82,19.43,19.43,0,0,1,10.24-2.7L436.26,191c11.14.29,23.31-9.53,31.91-15.28-2,4.57,1.82,5.77-1.78,9.87l10.5-1.88-2.55,5c3.88-5.29,8.94-2.37,7.65-8.63-1.07,1-.85,1.67-2.92,1.67.08-1.94,1.56-6,7.05-6.24,3.83,1.23-1.95,2.65-.75,4.34,3.28-2.89,3.87,1.22,7.35-1l-3.51-2.41c2.23-3.85,6-.71,9.46-2.85-4.19,2-2.57,3.94-.75,6l-.28-.46c2.61-.47,5.87-3.34,7.88-1.41l-1.78,5.28L507.3,179c1.53.49,2.74,2.19.35,3.37,12.38,2-1.34-10.84,14.92-7.65-.09,1.94-1.7,3.38-6.1,2.64-.42,3.12.81,4.82,5.2,5.56a1.68,1.68,0,0,1,.08.56l1.57-.13.82-.06,1.07-.11c1.44-.14,2.92-.35,4.41-.63a44.69,44.69,0,0,0,8.89-2.59,32.45,32.45,0,0,0,7.75-4.49A19.18,19.18,0,0,0,551.23,169.78Z"/><path class="cls-2" d="M521.75,183.5c-4.41.37-8.12.73-9.78,1.56C512.89,186,522.27,186.65,521.75,183.5Z"/><path class="cls-2" d="M77.3,52.42c.57-.11,1.12-.23,1.66-.39C78.38,52.16,77.83,52.28,77.3,52.42Z"/><path class="cls-2" d="M38.5,56.48a4.81,4.81,0,0,0,2.51.26C40.69,55.8,39.89,55.26,38.5,56.48Z"/><path class="cls-2" d="M386.66,39.76h0Z"/><path class="cls-2" d="M188.05,24.42c-1.72,3-1.94,4.76-1.36,5.94C188.11,29,188.84,27.17,188.05,24.42Z"/><path class="cls-2" d="M258.13.51c.55-.16,1.14-.32,1.63-.51C258.54.07,258.18.26,258.13.51Z"/><path class="cls-2" d="M397.39,41c-3.35.54-7.21-1-10.73-1.27C389.69,39.91,394.37,43.38,397.39,41Z"/><path class="cls-2" d="M2.9,85.07a20.22,20.22,0,0,1,0-2.46,19.43,19.43,0,0,1,.28-2.52,24.13,24.13,0,0,0-1,4.8Z"/><path class="cls-2" d="M30.61,64.49c1.59-.07,6.06-4,4-4.55A16.57,16.57,0,0,1,30.61,64.49Z"/><path class="cls-2" d="M154.93,60.25c0-1-.12-2-.25-3-.17.51-.36,1-.57,1.52s-.43,1-.68,1.53C153.93,60.3,154.43,60.27,154.93,60.25Z"/></g></g></g></svg>