<svg xmlns="http://www.w3.org/2000/svg" viewBox="0 0 503.7 191.43"><defs><style>.cls-1{fill:#fff;opacity:0.15;}</style></defs><g id="Layer_2" data-name="Layer 2"><g id="Background"><path class="cls-1" d="M245.53,191l30-4.3c10.41-1.5,18.34-6.65,21.23-13.79h0c2.28-5.65,7.75-10.11,15.25-12.44l50.44-15.73a39.75,39.75,0,0,1,8.15-1.59l80.65-7.41c7.53-.69,14.08-3.26,18.54-7.27l27.9-25.07c7-6.3,8-15.35,2.56-23.64L490.6,65a32.5,32.5,0,0,0-9.1-9l-32.71-22c-12.4-8.35-30.13-10.3-42.58-4.69L380.14,41.12c-9.32,4.19-21.88,4.24-33.07.12L280.46,16.72c-1.4-.52-2.84-1-4.3-1.37L225.07,1.69C213.36-1.44,201.12-.17,192.87,5l-29.58,18.6L135.7,42.88c-6.07,4.24-14.75,6.24-24,5.55L51.78,44a40.4,40.4,0,0,0-20.36,3.42L11.94,56.85C3.67,60.86-.74,67.76.1,75.41L1.91,92c.63,5.75,4.18,11.46,10,16.1L48,136.89a46.84,46.84,0,0,0,23.3,9.36l56.63,6.8A49,49,0,0,1,146.17,159l26.94,15.44a47.51,47.51,0,0,0,10.65,4.43l37.85,10.64a50.17,50.17,0,0,0,12.59,1.85l4.23.07A43.69,43.69,0,0,0,245.53,191Z"/></g></g></svg>