<svg xmlns="http://www.w3.org/2000/svg" xmlns:xlink="http://www.w3.org/1999/xlink" viewBox="0 0 756.67 199.7"><defs><style>.cls-1{isolation:isolate;}.cls-2{opacity:0.37;mix-blend-mode:color-dodge;}.cls-3{fill:url(#linear-gradient);}.cls-4{fill:#84565d;}</style><linearGradient id="linear-gradient" x1="3.05" y1="98.11" x2="756.53" y2="98.11" gradientUnits="userSpaceOnUse"><stop offset="0"/><stop offset="0.99" stop-color="#fff"/></linearGradient></defs><g class="cls-1"><g id="Layer_2" data-name="Layer 2"><g id="Background"><g class="cls-2"><path class="cls-3" d="M7.16.85,57.41,29.57,80,34.69l42,23.59,26.67,8.2,37.94,22.57,18.15,4.18a38.33,38.33,0,0,1,15.34,7.43l5.25,4.2a32,32,0,0,0,19.24,7l14.55.36a59.27,59.27,0,0,1,30.72,9.46l29.59,19.11a32.92,32.92,0,0,0,12.18,4.78l186.22,32.69,238.67,17.1H3.05Z" transform="translate(0 -0.28)"/><polygon class="cls-4" points="4.99 0.53 4.32 2.17 4.94 10.99 4.99 0.53"/><path class="cls-4" d="M2.39,91.07c.53,8.09.65,23.55,2,23.83l-.88-14.65c1.05-2,1.19-11.63,1-20.14l-.14,9.64c-.08-2.49-.75-.91-.83-3.41.82-14.73-.48-18.53.9-32.14l.09.78L4.12,44.22c.22-3.39.67-2,.82-.95-.32-9.59-.73-16.87-.39-29.86-2,10,.81,28.55-1.22,38.53l-.09-.76C3.65,63.75,2.17,78.31,2.39,91.07Z" transform="translate(0 -0.28)"/><path class="cls-4" d="M4.94,43.27l0,.85A2.24,2.24,0,0,0,4.94,43.27Z" transform="translate(0 -0.28)"/><path class="cls-4" d="M371.38,199.32l.52-.29C371.13,199.13,370.41,199.24,371.38,199.32Z" transform="translate(0 -0.28)"/><path class="cls-4" d="M212.32,195.66l.77,0C214.11,195.29,213.58,195.39,212.32,195.66Z" transform="translate(0 -0.28)"/><path class="cls-4" d="M289.66,117.44c-.88-.68-1.77-1.34-2.69-2A8.52,8.52,0,0,0,289.66,117.44Z" transform="translate(0 -0.28)"/><path class="cls-4" d="M94.82,38.62l-.29-.14Z" transform="translate(0 -0.28)"/><path class="cls-4" d="M178.7,86.43l.18.54C179.34,87,179.2,86.79,178.7,86.43Z" transform="translate(0 -0.28)"/><path class="cls-4" d="M116.38,58c-1.63-1-3.24-2-4.92-3A34.54,34.54,0,0,0,116.38,58Z" transform="translate(0 -0.28)"/><path class="cls-4" d="M96.72,39.51c-.58-.25-1.24-.57-1.9-.89C95.54,39,96.25,39.33,96.72,39.51Z" transform="translate(0 -0.28)"/><path class="cls-4" d="M275.7,117.62c.71.56,1.39,1.18,2.07,1.76C277.85,119.09,276.75,118.31,275.7,117.62Z" transform="translate(0 -0.28)"/><path class="cls-4" d="M101.16,50.37a27.35,27.35,0,0,0-3-2.06A14.86,14.86,0,0,0,101.16,50.37Z" transform="translate(0 -0.28)"/><path class="cls-4" d="M2.16,105.09c0-2,.06-4.18,0-6.86C2.05,100.77,2.07,103,2.16,105.09Z" transform="translate(0 -0.28)"/><path class="cls-4" d="M635.44,190.05c-.7,0-1.45.12-2.26.21C633.91,190.23,634.72,190.15,635.44,190.05Z" transform="translate(0 -0.28)"/><path class="cls-4" d="M427.37,165.63l-.74-.1c.18.08.45.17.9.32Z" transform="translate(0 -0.28)"/><path class="cls-4" d="M492.88,177c-.33,0-.63,0-.9.05A2.14,2.14,0,0,0,492.88,177Z" transform="translate(0 -0.28)"/><path class="cls-4" d="M377.72,157.94c-.82-.06-1.64-.1-2.36-.08Z" transform="translate(0 -0.28)"/><path class="cls-4" d="M330.47,148.63c.58.19.82.32.85.41s-.12.15-.45.17a18.57,18.57,0,0,1-3.25-.23c.81.25,1.59.45,2.36.62s1.44.3,2.06.41c1.26.24,2.43.44,3.55.62,2.22.35,4.22.62,6.23.91A128.45,128.45,0,0,1,356,154.21l-5.69-1.48c8.06.71,22.75,3.13,29.69,5.29l-2.26-.08c7.69.57,19.33,4.06,22.66,4-3-1,.26-.62-4.49-1.86l19.35,2.6,1.22,1.53,10.17,1.34c-2.4-.95,13.46,2.78,13.93,1.62,5.68,1.47-2.54.55-4.68.69,5.75.62,6.26,1.28,11.67,1.47l5.43,2.1,15,1.8c-.77,0,.14.21-.6.19,6.94.24,17.1,3.58,26,3.46-.46,0-.34.06-.48.11,4.88-.05,16.43,2.63,20.66,3.57,1,.15,1.83.25,2.46.31l.82.06.71,0,.35,0,.19,0a1.1,1.1,0,0,0,.23-.09c.1-.07.11-.14.07-.22a1.72,1.72,0,0,0-.72-.53c-.33-.19-.43-.34-.35-.43l.39.07,12,1c2.74.21,4.52.31,6.2.36,3.36.09,6.32-.06,15.74-.05,11.17,2.22-13.49,1.33.78,3.35,2-.56,11.94-.39,23.18.14,10.23,1.23,27.4,2.83,37.27,4.51l-1-1,14.47.52-8.3.77c1.16-.08,3.57-.13,6.29-.19l4.2-.07h.26l.12,0,.21,0,.46-.06,1-.11a14.07,14.07,0,0,1,3.77.22c.46.17.14.38-.29.57s-.95.34-.86.4a23.08,23.08,0,0,0,3.52-.13c-.39.07-.82.14-1.28.2a54.58,54.58,0,0,1,6.61-.06l3.36.18,4.61.2c-4.92,0-9.51.12-13.74.21a4.29,4.29,0,0,0,1-.18c-4.5.26-4.16.23-1.7.22H640c1.53,0,2.9,0,3.13.07l9.92.07,10.83,0c2.21,0,4.28,0,6.16.08.46.06,2.61.14,4.26.22s2.74.15.62.17c-.94.12-7.07,0-13.68-.08l-17.85-.26,12.42.19,7.75.2,6.45.23,9.47.4-20-.49,22,.65-13-.25c-3.6,0-3.4,0-.26.12l16.36.6,23.8.89c8,.32,15.56.65,20.57.91.39.06-.85.08-4.11,0s-5.58-.23-7.23-.26-2.83,0-4.36,0c-3,0-7.72,0-17.9-.35,0,0-.72-.07-1.92-.13l-5-.23-15.55-.67-32.21-1.43c-2.8-.11-2.16-.08.08,0l10.58.53,12.82.67,4.51.28a8.46,8.46,0,0,1,1.67.17l-27.13-1.49,11.69.7,4.14.26c1.24.09,2.35.18,3.09.3-3-.21-5.15-.31-7.15-.42s-3.83-.22-7.08-.46c-3.44-.08-3.68-.07-4.68-.08l-3.25-.1,16.63,1.43a41.65,41.65,0,0,1-4.63-.21l-6.5-.52c.33,0,1.84,0-.32-.17-3.84-.31-5.23-.42-5.58-.43s.34.08,1,.18,1.2.19.86.19-1.58-.09-4.22-.37c3.9.45,10.37,1.08,8.44,1.17-1.48-.22-2.87-.38-4.05-.51l-3-.27c-1.67-.14-2.77-.22-3.87-.4,2.19.3,1.91.37,1.35.48a1.83,1.83,0,0,0-.7.24c-.1.11,0,.27.63.51a13.35,13.35,0,0,1-2.17-.39c-.32-.11-.37-.19-.37-.26s.19-.28-.67-.52c1.49.56-.72.6-2.6.58l-1.41,0h-3.58a47.57,47.57,0,0,0-5.25.24c-.1-.09-.35-.15-.33-.21-6.39.68-17,.85-29.7,1.84l4.37-.83c-12.83-.36-7.8,1.73-18.44,1.72,2.24-1.17-17.6.1-12.86-1.21-6.35.68-13.11,1-17.26,2-6-.66,11.49-1.61,3.13-1.94l-9,.62-1.62-.63c-.36.47-8.28.51-7.87.88-1.41-.76-5-1.29-4.65-1.87-5.71.23-13.75-.49-18.52.18l-.42-.38c-5.5,1.41-17.39.29-20.16,1.75L483,193.8c-8.7.14-7,1.63-11.07,2-3.48.05-7.74.22-11.41.09,11.35-.94-5.72-1.13-8.08-1.66-4.47,0-17.61.1-21.22.82,5.37-.75,2-1.35,11.69-1.42-5.18-1.42-14.69.34-25.54.14l.12-.67c-15.44.45-15.92,1.59-22.59,2.74-1.83-.82-.31-1,4.08-1.87-10.29-.48-26.53.07-38.14,0-3.65-.58-1.25-.92,2.6-1.17-12,.63-26.8-.14-34.33,1.32,3-.58-4.83-.38-9.25-.66,0,.3-.85.69-1.38.64a300.29,300.29,0,0,1-32.1.63l3.09-.43c-19.77-.24-28.47,2.26-50.06,1.2-3.88-.31,4-1.2-3.94-1.16-3.85.53-2.58,1.65-12.66,1.34l.68-1-6.87,1c3.54.79,14.76.51,6.9,1.39-9-.89-7.86.89-18.81-.16a50.75,50.75,0,0,0,7.63-1.21c-22.94-1.13-32.12.93-55.36-.27-11.58.76-26.46.91-34.48,1.61.66-1,.58-1.8,5.93-2.55-9.88-.13-14.52,2-21.42.63-4.74,1.3-27.43.83-29.79,2.66-.41-.37-10.65,0-.29-1-13.49.6-17.76-1.6-23.94-1.59-3.47.06,4,1.16-3.95,1.2-1-.08-1.19-.27-2.18-.34l-3,.42c-3.15-.42,3.44-.9,3.74-1.38-11.07-.39-18.29,1.06-31.4,1.18l2.24-.32-13.6-.07.88-.1-3.13.16-.3-8.54.47.33c-.08-2.49-.37-3.07-.35-6.55l.56,1.13c-.83-3.44-1.06-16.16-.93-22.36l.29-1.18-.88-14.63c.79-7.77,1.18,10,1.07-5.49l1.11,4c-.24-11,.44-12.61.19-20.12-.68,3.37-.7,8.58-1.15,4.71,1.54-8.6-.06-13.78-.45-22.07-.06,4.2-.13,7,.5,9.93-.11,4.44-.67,1.58-.78,4.31l.54,6.32-.86,1.77L2,138.23c-.95-.69-.34,9.92-1.26,5.68C1,151.46.2,155.76,1,162.65.34,167.74.49,154.57.28,160q0,8.73,0,17.56L.18,186.4,0,198.35l17.29,0,14.32,0,28.83.23-3,.43c3-.43,7.08-.78,9.36-1.1,5.33.77,25.9,1.75,33.14.31,1,.08-.57.29-1.32.4,10.46-.18,29.29.83,44.17.69,6.29-1.52,22.37.95,28-1.13l-3.08.43c-5.06-.57,7.22-1.44,9.3-2,4.18,1.35.29,1,5.27,2.28l-5.9-.47,1.3,1.11c18.89-2.86,35.17,1.31,46.94-.77-.72.11-.53.29-1.3.39,7.81.63,13.31-.78,19.06-1.16.66.56-3.43.91-6.44,1.34,13.75.43,36.86-1.08,52-.2,5.34-.75-2-1,3.54-1.57,4.68.21,8,.81,2.24,1.19,13.1,1.39,43.27-.9,63.34.38,10.56-.84,4-1.2,20.16-1.75-3.8.53,3.84,1.82-5.82,1.89l-1.14.58c16.1.11,37.58.33,46.37-1.33.5,1.22,2.92.24,9,.89,2.47-.13-.23-.18-1.22-.26,5.91-1,8.93,0,13.15-.12l-1.5.21,11.57-.75c1.92.15,4.82.39,5.23.76l-.07-.85c6.22,0,3,1.08,10.76.86l-1.64-.63c4.91.39,12.77-.49,13.8.43.2.18-.76.11-2.51.14,7.69,1.29,19.9-.42,29.42.17l-2.43-1.37c9.26-.44,5.66.28,5.31.76,6.2,0,7.56.44,15.73.59,4-.35,2.1-.51,3.4-.9l8.33.33-5.36.75c12.82-2,32.17.22,40.71-1.61,4.87.39-4.35.82-1.44,1.06,15.2.88,33.95-1.32,46.62-.3q3.87.18,7.87.29l4,.08,4.69.06c10.05.06,20.47.05,30.83,0l31.43,0c10.72,0,21.79.08,34.46.25l-4.95-.37,25.43.22,1.52-.17c-5.12-.52-5.47-.82-5.75-1.14s-.41-.65-2.91-1.08c1.09.1,2.73.2,4.2.3s2.82.2,3.53.3c.29-.22.28-.48.9-.67a13.46,13.46,0,0,1,3.27-.36c.28.08.61.16,1,.24a16.47,16.47,0,0,0,3.65-1.32,10.77,10.77,0,0,0-2.18-.94,19.93,19.93,0,0,0-3.7-.68c-1.93-.37,2.07-.36,4.89-.46,0-.63-2.79-1-11.15-1.57,1.31-.14,2.7-.28,6.74-.44L739,191a42.08,42.08,0,0,1,5-.15c2.52,0,5.27,0,7-.09.09,0,0,0-.14-.06-10.36-.47-18.65-.92-25.92-1.38s-13.49-.92-19.36-1.39l-16.64-1.38c-5.28-.45-10.33-.86-15-1.17a.78.78,0,0,1,.11.46c-4.53-.15-9.2-.56-11.85-.92s-3.22-.67,2.3-.5c-8.78-.77-17.27-1.35-25.08-1.81l-5.77-.32-2.81-.15-1.39-.07-.78,0-5.88-.14c-8-.18-16.79-.39-29.73-1.43-3.49-1.89-23.37-1.19-27.06-3.29-11-.32-18-1.55-25.66-1-.22-.2-1.16-.35.58-.26a71.16,71.16,0,0,0-9.13-1c-2-.13-4.27-.25-6.58-.35l-3.51-.15-3.35-.12-6.71-.9-.51-.65c-4.11.49-22.76-3.13-26.87-2.64-1.15-.47,2.15-.13,3.71-.08-5.47-2.11-10-1.2-17.21-2.73.6-.19-1.48-.9.08-.85-23.94-5.51-59.4-9.51-90.77-15.92-8.77-1.58,3,1.81-8.48-.29-3.2-1.18,5.82-.23-1.4-1.76-5.41-.18-7.31-.68-14.34-2,1.35-.17.24-.63,5.23,0-4-1.21-17.44-2.1-25.36-4.5.34.43-1.18.38-2.73.33-.79-.08-1.44-.14-2.15-.25s-1.39-.26-2.09-.45a22.73,22.73,0,0,1-4.05-1.52,24.54,24.54,0,0,1-3.67-2.19l-3.58-2.57c-4.5-3.29-7.82-5.89-8.45-6,0,0-3.65-2.16-.63-.06-3.73-2.43-9-6.05-7.75-5.94a52.72,52.72,0,0,1-7.1-3.52l2,.44c-1.78-1-3.94-1.87-5.83-2.9.86.68,1.78,1.42,2.56,2.09a36.38,36.38,0,0,0-8.62-4.75c-3-1.26-5.43-2-5.06-2.62l1.74.6a66,66,0,0,0-9.57-3.43c-2-.15-4.1-.23-6.48-.29s-5.13-.08-8.26-.23c-1.21-.72-5.28-.89-10.07-.93-1.26,0-2.26,0-3.37-.09a29.53,29.53,0,0,1-3.27-.43,23.69,23.69,0,0,1-5.77-1.89l.49-.3a19.66,19.66,0,0,1-4.85-2.38c-.44-.28-.86-.6-1.3-.91l-1.44-1.11-2.78-2.18-1.3-1c-.45-.35-.88-.68-1.29-1-.82-.59-1.55-1.07-2.11-1.42-1.14-.7-1.59-.93-.93-.46a53,53,0,0,0-9.1-4.37c-2.57-.93-4-1.38-2.27-1.2l-10-2A47.87,47.87,0,0,0,188.44,86c-.46-.15-.42-.18-.51-.24l-.08-.13,0,0-.11-.08-.22-.17-.91-.69-1.81-1.37-3.61-2.75c-6.1-1.64-17.08-10.87-18.52-9.63-4.7-3.12-3.37-2.8-6.57-5.07-.92-.41-1.83-.84-2.74-1.28L152,63.9l-.67-.35-.17-.09-.29-.16-.61-.34-4.76-1.29c-1.44-.41-2.89-.84-4.33-1.28-2.88-.89-5.77-1.84-8.66-2.78l-.15-.25q-2.13-.69-4.44-1.35l-2.35-.65L124.34,55l-.61-.16-.14,0h-.09l-7.93-4c-2.91-1.47-5.95-3.05-9.12-4.79L105,43.66c-5.32-2.76-7.12-2.55-11.93-5.58-1-.83.08-.28,1.44.4-2-1-4.27-2.26-6.46-3.55-1.1-.64-2.18-1.29-3.21-1.93l-1.51-.94-.72-.45-1.19-.73-1.31-.35-.69-.2-1.26-.39c-3.83-.42-7.21-1-10.46-1.59l-4.82-.86-2.41-.38-1.22-.17-.57-.07h-.25l-.23-.06-.54-.22-1.19-.49c-1.43-1.2-1.41-1.4-.71-1.14a15,15,0,0,1,1.46.66l.92.46.24.12.11.06h0l.13,0h.16l.19,0,.77.13a8.12,8.12,0,0,0,1.1.1c.48,0,.36-.2-.84-.74l-.85-.23L59,25.55h0l0,0v0h0l-.12-.07-.23-.15-.94-.58-1.88-1.14C54.52,22.78,53.25,22,52,21.3c-2.57-1.48-5.2-2.92-7.87-4.35-5.35-2.86-10.88-5.67-16.6-8.61-.88-.8.53-.24,1.17-.22,0,0-25.41-10.71-21.63-7-3.39-.9-7-2.34,2.64,4,3.58,1.43,13.28,6.23,14.54,8.1l1.06-.49c13.61,7.27.19,2.37,16.33,11.57l-3.24-2.22c3.07,1.69,5.82,2.55,9.07,4.77.89.82-1.36-.32-2.78-.88l5.85,2.72L53.43,30l1.46.68.74.34,1,.5.9.15.65.09,1.24.18c.23.31.23.52-.17.61a4.1,4.1,0,0,1-.91.07l-.71,0h-.21l-.35,0-.79-.11a3,3,0,0,1-.78-.32l.74.42,1.59.35,1,.2,1.52.28a8.88,8.88,0,0,0,1.66.16c.61,0,.39-.28.29-.5-.21-.43,0-.7,8.3,1.37,3,1.1-1.21.32-3.5.13,2.26.76,4.32,1.33,6.32,1.8,1,.24,2,.44,3,.63l1.49.28.74.13a1,1,0,0,0,.2,0h.14c.07,0,1,.43,1.53.7l2,.93,4.27,2c-.32.79-5-2,.65,1.85-1-1.06-1.35-2.12,3.25.36-2.62-.49,3.25,2.35,7.59,5-.75-.76-.22-.92,1.6-.07,2.25,1.1,3.94,2.44,7,4.11l-5-3.8c8,3.6,11.78,7.11,17.43,10.69A15.74,15.74,0,0,1,116.38,58l4.52,2.86,4.24,1.53c1.35.47,2.73.95,4.15,1.4,2.86.92,5.89,1.78,9.22,2.5l-.75-.12c7.43,1.89,7.13,1.45,6.45.9-.34-.27-.77-.57-.38-.62a6,6,0,0,1,1.32.15c.36.07.81.16,1.35.29l1.8.42.51.24.79.41,2,1.06c5.42,3.43-4.06.83,9.18,7.54C155.1,72.38,169.88,80,177.3,84L169,81c2.93,1.75,8.23,4.38,9.75,5.47l-.17-.53c.05-.48.95-.11,2.33.68.69.4,1.51.91,2.4,1.48l3,1.91,2.32.58c.73.18,1.45.35,2.16.5a31.84,31.84,0,0,0,4,.65l-6.35.07a10.6,10.6,0,0,0-1.51.13l-.14,0-.21,0-.39,0a5.4,5.4,0,0,0-.72.16,5.32,5.32,0,0,0-1-.12,1.48,1.48,0,0,0-.43,0l-.31.13.22.09.4.19.83.4a25.54,25.54,0,0,0,2.84.28l2.33.19c1.6.15,3.29.35,5.12.61s3.78.59,5.91,1c1.05.21,2.19.44,3.29.7a26.94,26.94,0,0,1,3.32,1,39.16,39.16,0,0,0-4.22-.43l-4.52-.28,2.67.65,2.66.6a44.31,44.31,0,0,1,4.92,1.43,40.79,40.79,0,0,1,9.38,4.75l4.7,3.09a33.89,33.89,0,0,0,5,2.78,33.37,33.37,0,0,0,9.84,2.69c-1.73.16-1.41.6-1.31,1s-.06.77-2.92.34a36.11,36.11,0,0,0,7.49,1.54c.63,0,1.27.1,1.9.12l1,0h.88l3.48,0-4,1.1c5.73-1.09,12-.09,11.07-1.7a14.77,14.77,0,0,1-4,.25,4.47,4.47,0,0,1,2.43-.85,29,29,0,0,1,3-.29,34.55,34.55,0,0,1,4.49.06c2.35.38,1.63.48.51.55s-2.67.18-2,.42a13.17,13.17,0,0,1,4.6.29,30.77,30.77,0,0,0,4.66.83c-1.3-.51-2.62-1-4-1.38a15.11,15.11,0,0,1,5.68.64c2.06.53,4.21,1.3,6.47,1.88-2.71-.77-3.68-.76-3.73-.52s.8.77,1.69,1.36l-.25-.2c3.17.92,7.51,2.2,9.29,3.79-1-.08-2.07-.12-3.09-.13,1.59.41,3.18.89,4.74,1.45,1.52,1.1,2.37,2.16-.38.76l2.06,1.38c.63.43,1.17.78,1.65,1.08a14.61,14.61,0,0,0,2.1,1.13,1.71,1.71,0,0,0,1.62,0c.76-.26,2-.15,10.46,6-.56.21-2.65-.76-7.24-4.07-1.19.15-.25,1.29,4.33,4.59.05.1,0,.09-.05.14,4.55,2.95,9.78,6.35,14.67,9.41l1.83,1.13c.68.41,1.35.8,2,1.15a31.39,31.39,0,0,0,4,1.77A27.43,27.43,0,0,0,330.47,148.63Z" transform="translate(0 -0.28)"/><path class="cls-4" d="M300.94,133.58c-4.86-3.15-9-5.8-11-6.89C290.76,127.49,300.76,134.41,300.94,133.58Z" transform="translate(0 -0.28)"/><path class="cls-4" d="M363.42,192.75l2.14-.13Z" transform="translate(0 -0.28)"/><path class="cls-4" d="M317.42,193.13a14.38,14.38,0,0,0,2.42.28C319.84,193.16,319.25,193,317.42,193.13Z" transform="translate(0 -0.28)"/><path class="cls-4" d="M659.17,191.45h0Z" transform="translate(0 -0.28)"/><path class="cls-4" d="M531.38,192c-4,.4-5.53.75-5.75,1.07C528.17,192.94,530.27,192.65,531.38,192Z" transform="translate(0 -0.28)"/><path class="cls-4" d="M619.56,192.47c.56-.06,1.17-.12,1.65-.19C619.92,192.35,619.57,192.41,619.56,192.47Z" transform="translate(0 -0.28)"/><path class="cls-4" d="M643.89,191c3.91.07,6.25.14,8.3.21l7,.25c-2.88-.09-2.83-.13-4.18-.2S651.06,191.09,643.89,191Z" transform="translate(0 -0.28)"/><polygon class="cls-4" points="261.38 194.25 265.97 193.6 261.15 194.06 261.38 194.25"/><path class="cls-4" d="M304.34,194.1c1.93.15,9.47-.25,7.29-.59C309.35,193.83,306.8,194,304.34,194.1Z" transform="translate(0 -0.28)"/><polygon class="cls-4" points="468.92 194.42 470.76 193.73 466.95 194.26 468.92 194.42"/></g></g></g></g></svg>