<svg xmlns="http://www.w3.org/2000/svg" xmlns:xlink="http://www.w3.org/1999/xlink" viewBox="0 0 1294.6 313.57"><defs><style>.cls-1{fill:url(#linear-gradient);}.cls-2{fill:#84565d;}</style><linearGradient id="linear-gradient" x1="0.52" y1="157.02" x2="969.21" y2="316.86" gradientUnits="userSpaceOnUse"><stop offset="0.11" stop-color="#723e45"/><stop offset="0.16" stop-color="#763a40"/><stop offset="0.34" stop-color="#803132"/><stop offset="0.49" stop-color="#832e2d"/></linearGradient></defs><g id="Layer_2" data-name="Layer 2"><g id="Background"><path class="cls-1" d="M1.75,5.12,93.87,49.91l38.75,8L204.83,94.8l45.8,12.83L315.8,142.9,347,149.45a68.63,68.63,0,0,1,26.34,11.6l9,6.57a58.43,58.43,0,0,0,33.05,11l25,.56a109,109,0,0,1,52.77,14.8L544,223.81a59.92,59.92,0,0,0,20.93,7.47l319.84,51.1,409.92,26.74H.5Z" transform="translate(-0.12)"/><path class="cls-2" d="M1.37,5.11C1.11-9.26.58,9.57.12,25.73L1.29,40.38Z" transform="translate(-0.12)"/><path class="cls-2" d="M.7,84.34l1.12,39.88-.51-28.8c.78-32,1.34,4.25,1.53,16.33C2.74,59.4,1.39,92.71.7,84.34Z" transform="translate(-0.12)"/><path class="cls-2" d="M1.38,162.81c-.2,25.58.67,18.43,1,7.69C2,168.81,1.68,152.08,1.38,162.81Z" transform="translate(-0.12)"/><path class="cls-2" d="M1188.87,298.74c8.32.72,18.49,1.51,13.66,1.42C1216.82,300.85,1222.74,301,1188.87,298.74Z" transform="translate(-0.12)"/><path class="cls-2" d="M1202.53,300.16l-9-.44,7.37.42C1202,300.18,1202,300.15,1202.53,300.16Z" transform="translate(-0.12)"/><path class="cls-2" d="M912,301.91c-28.77.62-44.92.23-72.13.49l-15.19-1c-29.47.34-13,.88-34.42,1.41-26.89-.65-83.56,0-96.31-.09-8.84-.48,11-.66,15.32-1-34.54.35-32.11,1.34-75,1.35l-.72-.28c-102.55,1.47-232.55,1.09-346.61,2a51.52,51.52,0,0,1,8.77.48l-151,.47-74.5.46-35.64.34-17.25.21-8.46.11L2.61,307q-.21-14.91-.4-28.76-.27-14.85-.52-28.52c0,8.59-.07,18-.1,27.93-.07,9.7-.15,20-.23,30.6l46.42.22,48.36.11c31.86,0,62.22-.21,86.64-.88,24.54.74,62.37-.33,72.55.71C350,308.88,388.44,307,479.44,307c13,.19,6.71.69,10.47,1.18l-72.13.5,44,.41c-19,.46-65.37.12-70.65,1.05,63-1.11,163.75-.24,218.73-1.55-25.86-.24-58.12,0-88.72,0-13.45-.33-34.28-.57-32.93-1.07,87.51-1.45,160.07-.74,250-1.19,22.52-.12,53.09,0,56.8.45-14.78.17-3.63.58-15.76.82,31.86-.42,3.2-1.79,49.27-1.59l-5.9,1.71c18.31-1.8,56.36.32,89.16-.74,11.8.69-10,1.09-35.16,1.13,28.64.3,31.21-.69,54.07-.67L909,308.86c24.31-1.39,43.62.27,57.4.74,1.63-.35-11.19-1.46,19.33-1.38,13.1.18,6.39.55,9.48.76,1.68-.36,12.66-1,32.82-1.06,3.68.49-13.39.74-14.71,1.24,15.2,0,27.59-.13,38.6.28l7.74-.15c1.84-.05,3-.1,3.61-.14,1.28-.1.63-.19-.28-.28a9.79,9.79,0,0,1-2.13-.31c0-.11,1.15-.22,4.61-.36,18.35.18,21.71.6,21.31,1.11-.17.25-1.29.53-1.19.81s1.51.55,7.16.81c-8.94.18-19.21.32-30,.44l-26.13.33c-16,.19-30.13.34-38.46.53l60-.39c-1.21.14,1.59.27,6.07.4l15.62.37c5,.12,9,.25,8.8.37a30.92,30.92,0,0,1-3.87.19c-2.61.07-6.7.14-12.71.21,26.56.15,55.52.2,84.42.19l84.83-.18c5-.58,10.14-1.14,15.57-1.65s11.13-1,17-1.39c-2.63.09-5.62.2-8.2.25a52.92,52.92,0,0,1-5.58-.05c3.91-.23,7.21-.36,9.79-.45s4.47-.13,5.93-.15c2.92-.05,4.31,0,6.53-.06,3.52-.27,5.7-.44,7.45-.55s3-.17,4.89-.22l-6.66-.56c-8.53-.73-14.52-1.3-19.6-1.79l-12.86-1.29c-3.73-.39-7.14-.76-10.3-1.2a47.77,47.77,0,0,1-7.87-1.55l-10.88.15c-1.74-.32-3.64-.6-5.94-.84s-4.95-.46-7.93-.66l-25.14-1.29c-4.22-.23-8.46-.47-12.83-.76s-8.86-.63-13.74-1a25.83,25.83,0,0,1,3,0l7.59.32,22,1.08c-9.84-.56-16-1-20.6-1.33s-7.59-.65-10.71-1-6.34-.61-11.28-1-11.62-.81-21.22-1.34l38.57,1.41-48.93-3.11c-6.58-.44-11.56-.81-13.71-1.05s-1.47-.35,3.72-.25c-15.52-.73-32.37-1.64-50.15-2.67l-37-2.16c-25.28-1.54-51.65-3.21-73.61-4.31l3-.67c-7-.14-17.57-.71-29.44-1.43l-37-2.36-10.78-1.67-10-1.48c-6.22-.89-11.49-1.58-15.28-1.94l-3.24-.87-44.86-6c-20.22-3.33-13.14-3.51-14.84-3.41-44.43-6.87-79.25-12.36-107.73-17.36-7.35,0-54.12-7.18-91.29-13l-17.69-2.9-4.43-.72q-2.15-.36-4.26-.87a57.82,57.82,0,0,1-16-6.53l-7.79-4.6L521.35,208l-15.66-9.23-7.85-4.63-3.94-2.31c-1.35-.76-2.69-1.55-4.08-2.25a110.38,110.38,0,0,0-35.32-11.45c-3.08-.42-6.17-.8-9.28-1-1.55-.12-3.11-.13-4.67-.21l-4.57-.09-18.32-.39-2.28,0-2.21-.09-2.2-.18-2.19-.25a57.8,57.8,0,0,1-8.62-1.86,55,55,0,0,1-15.82-7.58c-2.43-1.71-4.93-3.55-7.39-5.32a86.36,86.36,0,0,0-7.73-5.23,70.4,70.4,0,0,0-17.28-7.29c-1.5-.42-3-.77-4.55-1.1l-4.47-.92L334,144.73l-17.55-3.62L251.21,106.2,205.29,93.62,132.85,57.25,94,49.51l-9.81-4.67C61.49,33.85,29.66,19.79,1.08,6.5,35.67,23.64,39.2,24.72,73.33,41.31c4,2,7.53,3.79,10.79,5.47l9.18,4.79,5,1.24,4.6,1.15,9,2.3,9.37,2.38,10.21,2.53.42.24.73.41-.38-.23-.32-.21-.42-.29-.36-.13L131,60.9l-.31-.09-1.29-.37-2.57-.75-5.16-1.49,10.21,1.92L139,63.67l5.35,2.75,7.38,3.91c4.39,2.33,9,4.68,21.25,10.46l-1.83.82c3.54,1.49,8.83,4.08,14.61,7,2.89,1.48,5.91,3.06,8.88,4.63l9,4.78,7.06,2.17,5.37,1.7,9.89,1.64,13,4,5.7,1.74,2.62.82,2.11.66,6.09,3.56,5.34,3.19c3.2,1.95,5.69,3.55,7.48,4.85l-1.61-2c2.21,1.39,9.83,5.6,19,10.61l28.74,15.73L320,148l4.28,1c2.57.6,4.54,1.08,5.69,1.41,2.29.67,1.29.71-4.84-.2L336.24,152c2.17.38,4.6.83,7.43,1.39l2.19.44c.73.16,1.45.3,2.22.49q2.26.54,4.83,1.39c.59.54,1.18,1.07,1.74,1.64a61.64,61.64,0,0,1,13.83,6.84c.54.35,1,.73,1.57,1.08l1.66,1.19,3.28,2.36c2.18,1.55,4.12,3,6.44,4.58a68.76,68.76,0,0,0,12.49,6.43c3.64,1.4,6.54,2.23,8.22,2.74a75.64,75.64,0,0,1-13.7-4.26c-3.09-1.28-5.13-2.23-7.12-3.25a62.63,62.63,0,0,0,15.92,7.34A63.58,63.58,0,0,0,410.62,185c1,.06,1.94.16,2.87.17s1.84.06,2.57,0l4.3,0c2.65,0,4.88,0,6.78-.05,7.57-.13,9.73-.49,11.55-.87a27.33,27.33,0,0,1,3.05-.53,39.23,39.23,0,0,1,6.19-.16,79.67,79.67,0,0,1,13,1.61,97.45,97.45,0,0,1,22.43,7.44l-1.11.18q4.68,2,9.17,4.41l9.28,5.06,18.68,11.93c3.38,1.66,7.48,3.84,12.16,6.42l7.44,4.17,4.06,2.3q2.18,1.22,4.55,2.3a66,66,0,0,0,10.15,3.63q2.68.72,5.51,1.23l5.5.9,22.85,3.74c31.32,5.19,65.12,10.9,90,14.29,19.56,2.94,45,8.33,82.16,14.11L761.49,266c10.16,2,29.82,5.42,52.41,9.37l35.26,6.18,35,6.25,15,1.35,13.08,1.26c8,.81,14.62,1.56,19.08,2.21,28.47,1.1-3-.4-2.3-1.14,55.55,2.6,59.3,4.4,88.36,6.87,34.2,1.74-26.11-2.07-7.69-1.62,13.07,1,22.27,1.66,29.72,2.08l10.14.5,4.58.19,2.26.09.57,0h.42c1.47-.07,3.47-.1,6.33,0,1.41.05,3,.14,4.76.26s3.55.28,5.17.47c-2.81.37-7.1-.08-10.1.1,3,0,6.9.07,11.11.25s8.68.44,12.92.71l14.18,1c4.62.32,9.21.63,15.54,1,0,0,0,0,0,0l-41.83-.76c-6.44-.14-11.6-.29-15.06-.46l-2.25-.14-.86-.07-.35,0h-1.07l-2.48,0-38.67-.33-1.68.36c-37.68-.92-78.52-.06-122.57-.47Z" transform="translate(-0.12)"/><path class="cls-2" d="M370.93,311.25l7.22.83,41.57-.57C402.85,310.83,394.14,311.42,370.93,311.25Z" transform="translate(-0.12)"/><polygon class="cls-2" points="379.76 308.68 358 309.07 393.2 309.01 379.76 308.68"/><polygon class="cls-2" points="906.54 310 901.15 309.87 821.92 310.59 906.54 310"/><path class="cls-2" d="M1203.48,298.84c7.68.33,15.35.75,22.91,1.19l22.59,1.35c1.34.15,2.8.29,4.47.42l-3.5-.42-53.28-3.12Z" transform="translate(-0.12)"/><path class="cls-2" d="M796.53,260.45c-14.08-.71-27.54-4.42-9.37-.12C809,263.57,790.19,260,796.53,260.45Z" transform="translate(-0.12)"/><path class="cls-2" d="M714.15,249.53c12.56,2.05,19.57,2.94,26.49,3.82C724.17,250,723.48,250.72,714.15,249.53Z" transform="translate(-0.12)"/></g></g></svg>