<svg xmlns="http://www.w3.org/2000/svg" xmlns:xlink="http://www.w3.org/1999/xlink" viewBox="0 0 787.25 196.5"><defs><style>.cls-1{isolation:isolate;}.cls-2{opacity:0.21;mix-blend-mode:color-dodge;}.cls-3{fill:url(#linear-gradient);}.cls-4{fill:#202020;}</style><linearGradient id="linear-gradient" x1="11.2" y1="90.41" x2="764.38" y2="90.41" gradientUnits="userSpaceOnUse"><stop offset="0" stop-color="#fff"/><stop offset="0.07" stop-color="#e1e1e1"/><stop offset="0.21" stop-color="#a6a6a6"/><stop offset="0.36" stop-color="#747474"/><stop offset="0.5" stop-color="#4a4a4a"/><stop offset="0.64" stop-color="#2a2a2a"/><stop offset="0.77" stop-color="#131313"/><stop offset="0.89" stop-color="#050505"/><stop offset="1"/></linearGradient></defs><g class="cls-1"><g id="Layer_2" data-name="Layer 2"><g id="Background"><g class="cls-2"><polygon class="cls-3" points="23.38 28.41 60.3 25.34 79.79 25.34 109.53 20.21 123.88 12 141.32 12 154.65 7.9 198.75 22.26 213.1 21.23 229.51 28.41 264.38 26.36 293.09 34.56 316.68 33.54 339.24 42.77 360.78 33.54 392.57 25.34 417.18 32.51 422.31 32.51 437.69 23.29 453.07 25.34 482.81 40.72 493.07 37.64 538.19 49.95 560.75 52 583.32 60.2 625.36 77.64 660.23 99.17 681.76 117.63 705.35 130.96 727.91 138.14 764.38 142.92 764.38 172.91 11.2 172.91 23.38 28.41"/><path class="cls-4" d="M12.36,69.88C12.52,66,13.73,62.71,14,64.2c-.46-8,.83-8-1.26-9.24-.65-5.15,1.29-10.42,1.69-4.59l-.11-14.69-1.07,8.69c-1.61-2.53,1.72-13.88-.16-16.82L12,43.34l-.53-.84c.34,3.65-.52,10.61-1,13-.26-.41-.77-.21-.59-3-1.74,19,2.74,5.4,2,21.26A26.38,26.38,0,0,1,12.36,69.88Z"/><path class="cls-4" d="M6.56,85.69l1.71,6.84-1.52,11.1c.77.19.72,8.37,1.87,2.93a36.12,36.12,0,0,1,.13-4.94c1.6,1.38-.4,14.89,1.59,11.76.3-8.85.78-10.18-.14-15.72A137,137,0,0,1,12.87,80c-.06-2.43-1.07-2.85-1-5.92l-.11,2.08-2.58.11c.33,2.59-.13,5-.32,7.8L7,70.79c-2.75,4-2.43,16.95-3.85,22C5.8,86.6,3.76,97.93,6.56,85.69Z"/><path class="cls-4" d="M11.85,74.1l0-.32Z"/><path class="cls-4" d="M670,117.07c-2.14-1.78-3.16-1.85-3.66-1.88l10.73,9.17,16.4,9.24c-.52-1.07-8-6.24-2.52-3.62a24.63,24.63,0,0,0-5.64-3.44c-1.15-.54-2.28-1-3.22-1.35a8.25,8.25,0,0,0-2.15-.51,11.67,11.67,0,0,0,1.34.17l1.24.11c-.37-.13-.73-.27-1.08-.41s-.67-.27-1.11-.48c-.8-.4-1.55-.8-2.23-1.19s-1-1-1.49-1.41l-.61-.66c-.17-.19-.29-.35-.42-.52a4.64,4.64,0,0,1-.88-1.66c-.18-.83.47-1,2.07-.06l-.47-.39L657.8,109C663.18,114,663.23,111.36,670,117.07Z"/><path class="cls-4" d="M69.07,30c4.07-.23,4.56-.47,4.1-.72A35.9,35.9,0,0,0,69.07,30Z"/><path class="cls-4" d="M654.11,107.42l-1-.15a5.07,5.07,0,0,1-.69-.19l-.77-.25-3.08-1c1.18.48,2.32.89,3.36,1.21a5,5,0,0,0,1.3.32Z"/><path class="cls-4" d="M701.56,112.94c.06-.07.15-.1.06-.28l-2.84-.68.06,0C699.83,112.37,700.73,112.67,701.56,112.94Z"/><path class="cls-4" d="M525,63.12l-2-.43C523.74,62.87,524.41,63,525,63.12Z"/><path class="cls-4" d="M787.25,146.61,785.91,124l-3.2-.24c4.18-.18-8.66-1.64-2.42-1.67-2.14-.17-11.78-1.14-9.44-.46l5.37.66a73,73,0,0,0-12.1.87c-2.7.31-6.5.42-17-.15a90.58,90.58,0,0,0,14.68,2.33c4,.27,7.39.19,11.23.21,2.47.18,4.5.38,6.58.57h3.88q1.23,7.5,2.44,16Z"/><path class="cls-4" d="M255.79,19.61l.15-.17C255.8,19.5,255.78,19.56,255.79,19.61Z"/><path class="cls-4" d="M256.51,18.73l-.57.71C256.66,19.06,259.51,18.57,256.51,18.73Z"/><path class="cls-4" d="M656.11,107.32a1.22,1.22,0,0,1-.37.07,2.55,2.55,0,0,1-.42,0,6.24,6.24,0,0,1-1.1,0s-.05,0-.11,0h.09l.68.21a4,4,0,0,1,.82.32l2.1,1C657.31,108.55,656.7,107.92,656.11,107.32Z"/><path class="cls-4" d="M667.17,110.77l9.11,7.41c1.11.54,2.48,1.29,3.74,1.94l.58.18-.53-.25-6-4.39C672,114.14,669.7,112.5,667.17,110.77Z"/><path class="cls-4" d="M545.89,68.12c-2.88-.22-5-.42-6.48-.59l-1.27-.15-1.34-.18c-.78-.11-1.32-.2-1.67-.28-1-.39-.75-.5.08-.46.45-.06,1.08-.11,1.8-.15l1.16-.06.61,0a3.67,3.67,0,0,0,.43,0c1-.13,2.16-.27,3-.42,1.67-.3,2.22-.64-1.21-1.14l-2.38-.08c-1.09,0-2.1-.07-3-.08l-2.17-.39-1-.17-.24-.05H532l-.3,0-2.27-.18a37.7,37.7,0,0,1-4.4-.49c1.85.4,3.3.75,4.43,1.07.57.15,1.06.3,1.47.44l.58.2.57.21c1.94.71,2.34,1.13,2.18,1.46-.3.67-3,.9.52,2.37.47.11,1.08.22,1.85.34l1.27.18,1.15.15c1.23.16,2.85.3,5,.43a8.14,8.14,0,0,1-3,.87c-.67.08-1.41.14-2.19.18h-.84l-1.14,0-2.38-.1c-4.71-1.09-6-1.38-8.35-2-2.18-.62-4.27-1.29-6-1.93-6.67-3.93,6.7.28,8.86-1.21-7.62-1.73-6.39-1-9.89-.78a178,178,0,0,0-17.41-4c-1.38-.29-2.72-.59-4-.9l-1.89-.49-.91-.26-.22-.06-.1,0h0l-.07,0a2.9,2.9,0,0,1-1.09-1.37l-.1-.14a4,4,0,0,0-.79.55,2.05,2.05,0,0,0-.25.27l-.09.13,0,.07,0,0-.14.05-.21.08c-4.38,1.61-7.26,2.83-10.95,4.32-1.4-.43-3-1-5.35-1.83-.73.44,1.47,2,5.13,4.15C483.05,64.76,486,64,489,63.1l2.35-.66,1.2-.34.3-.09.13,0h0l.09.06a.58.58,0,0,1,.26.41,2.63,2.63,0,0,1,0,.71c0-.18,0-.57,0-.88a1.61,1.61,0,0,1,.09.26l0,.13h0s.13.05.18.07l.46.15.91.31L494,62.76l-.41-.19v-.09l.05-.35a2.36,2.36,0,0,1,.24-.69s.14,0,.25,0h.36l.8,0c.56,0,1.16.11,1.76.18,1.22.16,2.45.37,3.4.59,2.75.7,8.2,2.08,7.29,2.46L503.47,64c5.15,2.12,12.17,1.66,17.48,4.34.17.55-2,.2-2.42.4a54.89,54.89,0,0,1,6.69.72c1.14.18,2.3.38,3.5.61l.92.17.46.09.23,0,.41.09,3.6.83,3.62.18h2.27c1.41,0,2.91,0,4.51,0L539,73.15a40.46,40.46,0,0,1,8.66-.57c1.71,0,3.52.13,5.4.27l2.65.22a.87.87,0,0,1,.62.22l.06,0,0,0,.2.08,1,.43c1.38.57,2.74,1.15,4.07,1.74,2.68,1.18,5.24,2.37,7.56,3.51-1.11-.79-3.24-1.84-1.76-1.75a28.7,28.7,0,0,1,7.66,3.24c1.51,1.09,1.74,1.92,0,1.82,7,1,23.65,11.45,33.19,12.88l4.56.65,2.29.33.28,0,.06,0,.13-.11A2.9,2.9,0,0,1,616,96a2.44,2.44,0,0,1,.28-.14l.15-.07c.06,0,.06-.08.29,0l2.12.67,4.26,1.35,8.5,2.68,17,5.37a44.27,44.27,0,0,1-4.72-2.22c-2.37-3.7-4.31-4.63,2.54-2.5-6.33-2.73-4.92-.06-13.68-5.38,3.92,1.3,5.94,0-2.3-5.38-1.72-.89-3.42-1.73-5.08-2.53l-2.46-1.17-.61-.29-.4-.14L621.1,86l-1.09-.2-.13,0-.21-.06-.42-.11-.84-.21-3.32-.83c-2.19-.53-4.34-1-6.47-1.49-4.26-.93-8.42-1.76-12.58-2.6s-8.34-1.68-12.63-2.64c-2.14-.47-4.32-1-6.53-1.52s-4.51-.93-6.84-1.47c-.08-.55-2-1.55-4.84-2.76-1.41-.6-3.05-1.25-4.79-1.93l-2.55-1-.86-.34-.9-.12-2.66-.28c-1.83-.19-3.53-.38-5-.57a18.44,18.44,0,0,1,4.69-.87c.93-.08,1.93-.12,3-.14.49-.08.88-.14,1.36-.18s.73.12,1.11.2l.15,0,.34.11.69.21,1.39.43-3.59-1.4-1.06-.13L554,65.82l-5.67-.58Z"/><path class="cls-4" d="M596.83,79.31a16.52,16.52,0,0,0-1.64-1A7.27,7.27,0,0,0,596.83,79.31Z"/><path class="cls-4" d="M563.06,68.34c.1,0,.08-.07.13-.12l-2-.61Z"/><path class="cls-4" d="M654.27,102c.64.18,1.23.39,1.73.56s.9.28,1.44.42l.32.12-.28-.18-1-.41-.54-.23-.64-.3C654.34,101.62,653.82,101.53,654.27,102Z"/><path class="cls-4" d="M656.09,106.34l-.76.14.36.41.42.43a.34.34,0,0,0,.25-.36A1.56,1.56,0,0,0,656.09,106.34Z"/><path class="cls-4" d="M457.68,32.37l-2.21-.78A5.7,5.7,0,0,0,457.68,32.37Z"/><path class="cls-4" d="M517.12,59.66c8.19,2.08,1.55-1.85,13.1,1.29l-3.36-1.05c1.17.18,2.45.42,3.82.71l2.11.47,3.25.8,6.62.5,5.79.51,9.67.92,1.4.5a.28.28,0,0,0-.13.27.49.49,0,0,0,.05.16.41.41,0,0,0,0,.09l.14.12c.42.32,1.08.72,1.74,1.13,1.32.83,2.61,1.71,1.82,2.14,3.28,1,6.55,2,9.48,2.8,1.46.38,2.84.69,4.09.9a29.45,29.45,0,0,0,3.32.36c3.8,2.07,10.28,3.42,15.11,6-1.83-1.64,8.22.41-4.44-3.76,1,.31.48-.12,1.5.18a37.42,37.42,0,0,0-9.36-3.91c-1.38-.37-2.73-.76-4.18-1.1a43.62,43.62,0,0,1-4.72-1.4c-3.84-2.25,7.21,1.23,3.43-.48-2.65-.73-6.1-2-9.65-3.29l-5.3-2-2.31-.82c-.51-.18-1-.34-1.48-.48a16.28,16.28,0,0,0-1.86,0l-1.2,0c-.39,0-.75,0-1.08.1-1.3.16-2,.52-2,1.14-6.73-.4-7.6-1.15-9.55-1.89a26.17,26.17,0,0,1-6.83.36l-1.74-.38-1.65-.38c-.84-.18-1.7-.39-2.57-.61-1.74-.44-3.54-.94-5.35-1.46l-10.55-3.16c-6.56-1.92-11.65-3.14-12.08-1.42,3.8.87,9.9,2.62,15.65,3.27Z"/><path class="cls-4" d="M642.07,94.74c-.43-.29-1-.65-1.38-.9Z"/><path class="cls-4" d="M735.35,157.05l-3.86,2.23-3.31-.34L726,158.7l-2.61-.31-8.25-2.53L709.48,154l-12.4-4.11-7.87-4.55c-2.15-1.24-4.47-2.56-7.05-4-1-1,1-.13,2,.29-1.83-1-3.8-2-5.84-3.19l-8-4.5-7.08-6c-1.85-1.57-3.68-3.1-5.44-4.53a113.74,113.74,0,0,0-9.27-7l-.34-.29-.06-.07-.12-.17-.18-.24-1.41-1c-1-.74-1.91-1.46-2.62-2.07-1.42-1.22-2-2-.4-1.39a38.56,38.56,0,0,1-5.57-3c0-1.14,4.34,2.36,4.87,1.74-1.45-1-1.93-1.49-2.44-1.44,1.47.42,1.26-.69,2.13-1a3.73,3.73,0,0,1,2.47.45,26.64,26.64,0,0,1,2.5,1.21l1.67,1,1,.57.8.5c.12.73-.07,1-.33,1a.89.89,0,0,1-.49-.1c-.5-.26-1.06-.58-1.63-.9-2.31-1.32-4.86-2.75-4.19-.85,3.87,2.4,3.93,1.3,4.42,1.24l.9.58.37.24.11.1a2.56,2.56,0,0,1,.33.31.85.85,0,0,1,.14.76c0,.29-.17.4-.4.48,2.19.86,7,6.43,10.12,7.53,8.69,7.18-1.69,1,3.92,5.8l4.88.83,1.54,1.4,1.78,1.59,3.37,2,2,1.25,4,2.47c7.94,4,7.93,2.7,8.23,1.53.14-.58.37-1.14,1.71-1a13.45,13.45,0,0,1,3,.8c.67.25,1.45.56,2.34.94l.7.3,1,.51,2.31,1.14h0c-1-.17-1.14.22-.47,1.08a14,14,0,0,0,2.65,1.8c.75.39,1.07.65,1.6,1s1,.63,1.64,1a69.78,69.78,0,0,0,8.63,4c-1.76-.52-4.05-1.05-6.57-1.61l-3.92-.89-1-.24L703,147l-.8-.21-3.32-.93-3.25-1.73L693.5,143c-1.24-.71-2.4-1.43-3.44-2.17,8,6.78-12.42-6.75-8.91-2.14a51.09,51.09,0,0,1,7.43,3.17c1.34.68,2.71,1.43,4.06,2.2l2.17,1.28,3.38,2,2.4.86,1.15.43.57.2.32.13-.26-.05-.42-.1-.91-.22-1.84-.47c.73.24,1.44.49,2.15.71l1,.29.61.17c.81.21,1.62.38,2.42.54,1.62.31,3.25.54,5,.81s3.48.61,5.38,1.11c1,.25,1.95.54,3,.89.52.18,1,.37,1.57.58l2.45.93,1.53.49a33.11,33.11,0,0,1,3.34.57,1.75,1.75,0,0,1,.61.21.5.5,0,0,1,.21.19c.1.25-.25.51-.79.71C731.8,156.52,735.39,156.49,735.35,157.05Zm-12.51-1.3-2.61-.9-1.52-.55-3-1.09a12.47,12.47,0,0,0,2.62,1.18c.52.19,1.08.36,1.66.53l1.31.38Z"/><path class="cls-4" d="M3.71,184.54,1,184.33A18.23,18.23,0,0,0,3.71,184.54Z"/><path class="cls-4" d="M586,185.51l-3.73-.08C583.72,185.51,584.91,185.52,586,185.51Z"/><path class="cls-4" d="M502.32,193.91l-5.45.59A28.94,28.94,0,0,0,502.32,193.91Z"/><path class="cls-4" d="M59.15,184.71l.19,0c.3,0,.53-.1.86-.14Z"/><path class="cls-4" d="M334.49,188a22.56,22.56,0,0,0-3-.56C331.61,187.65,332.74,187.83,334.49,188Z"/><path class="cls-4" d="M503.32,193.8l-.33-.05-.67.16Z"/><path class="cls-4" d="M622.85,192.93c.8-.09,1.53-.15,2.39-.26A15.58,15.58,0,0,0,622.85,192.93Z"/><path class="cls-4" d="M617.59,185.72c.86-.07,1.68-.15,2.32-.25Z"/><path class="cls-4" d="M751.37,190.66l8.47-.37C755.65,190.34,753.18,190.48,751.37,190.66Z"/><path class="cls-4" d="M630.88,187.38c.29-.12.58-.23.78-.34C631,187.11,630.63,187.26,630.88,187.38Z"/><path class="cls-4" d="M9.56,144.28l0,.3.28.15Z"/><path class="cls-4" d="M6.89,131.81l.16-4.41A37.14,37.14,0,0,0,6.89,131.81Z"/><path class="cls-4" d="M261.58,183.87c-1.33-.37-4.45-.81-3-1.23C256.05,183.17,256.22,184.46,261.58,183.87Z"/><path class="cls-4" d="M24.29,159a1.84,1.84,0,0,1-.8-.81C23.8,159,24.05,159.53,24.29,159Z"/><path class="cls-4" d="M23.49,158.21c-.16-.38-.31-.8-.48-1.15A4.37,4.37,0,0,0,23.49,158.21Z"/><path class="cls-4" d="M295.39,162.77a4.08,4.08,0,0,0,1.54.36C296.72,162.78,296.17,162.71,295.39,162.77Z"/><path class="cls-4" d="M7.76,123.88c-.54-.84-.24-20.06-1.9-4-1.83-.78,0-10.39-.11-14.71-.7,3.07-1.07-1.65-1.83-.76a47.1,47.1,0,0,1,0,8.22c-1,1.54-1.13-3.84-.46-8-1.42,5-.94-6.63-2.31.57C.45,120.77.21,131.8,2,142.94c.29-8.88.56-18.82,1.93-26l1.37,3.18C3.22,128.19,3.86,133.34,3,141.39l2.39-18c2.07-8.37,1.9-2.67,1.63,4.05A10,10,0,0,1,7.76,123.88Z"/><path class="cls-4" d="M21,137.29l.07-.3a4.67,4.67,0,0,0-.1-.78Z"/><path class="cls-4" d="M742,157.63a7.23,7.23,0,0,0,.41-.61C742,157.29,741.89,157.49,742,157.63Z"/><path class="cls-4" d="M12.21,147.48h0Z"/><path class="cls-4" d="M706.74,157.51a1.51,1.51,0,0,1,.21-.14C706.81,157.42,706.81,157.47,706.74,157.51Z"/><path class="cls-4" d="M696.36,192.7a.67.67,0,0,0,.26.22C697.45,192.83,697.05,192.75,696.36,192.7Z"/><path class="cls-4" d="M706.71,157.66s0-.1,0-.15S706.65,157.61,706.71,157.66Z"/><path class="cls-4" d="M517.83,163.65a11,11,0,0,0,1.53.55C519.73,164.05,519.36,163.87,517.83,163.65Z"/><path class="cls-4" d="M555.11,166.07l.68.18Z"/><path class="cls-4" d="M270.4,191.22c1.85,0,3.23,0,4.4-.09A41.64,41.64,0,0,0,270.4,191.22Z"/><path class="cls-4" d="M707,157.37a11.28,11.28,0,0,1,1.86-.57A8.72,8.72,0,0,0,707,157.37Z"/><path class="cls-4" d="M461,171.9l1.14-.18-.68-.09Z"/><path class="cls-4" d="M441.52,170.7a7.5,7.5,0,0,0,1.34-.55c-6.95.68-19.7-.06-21.22,1.68,2.36-.05,14.58,1,12.5,2,4.84-.43,12,.78,14.6.5-7.95-.95-.86-1.47,4.51-2,4.88.51-.92,1.4,3.28,1.72l11.29-.2-9.83-.22,3-1.67-1,.16C443.33,172.83,458.56,169.61,441.52,170.7Z"/><path class="cls-4" d="M442.86,170.15a20.08,20.08,0,0,0,2.66-.41A6.54,6.54,0,0,0,442.86,170.15Z"/><path class="cls-4" d="M374.88,167.4c-.86,0-1.78.13-2.95.26Z"/><path class="cls-4" d="M687.92,124.76c0,.57,8,6.22,8.44,5L689,125.15Z"/><path class="cls-4" d="M189.7,174.86q1.62.06,3.24,0a5.25,5.25,0,0,0,.63-.2A17.11,17.11,0,0,0,189.7,174.86Z"/><path class="cls-4" d="M431.14,174.42a9.89,9.89,0,0,0,3-.6A10.46,10.46,0,0,0,431.14,174.42Z"/><path class="cls-4" d="M189.09,171.81c-1.38-.37-3.4-.93-3.69-1.42-2.82,0-4.79.66-7.66.9A59.76,59.76,0,0,1,189.09,171.81Z"/><path class="cls-4" d="M177.51,171.32l.23,0A1.81,1.81,0,0,0,177.51,171.32Z"/><path class="cls-4" d="M683.17,121.45c-.74-.31-1.68-.74-2.57-1.15l1.48.45-1.73-1.1-3.65-3.5c-.66-.46-1.37-1-2.21-1.63a2.26,2.26,0,0,0,.94.39l-1.52-1.51a89.33,89.33,0,0,1-8.29-5.12l-4.56-3.08-2-1.37c-.6-.38-1-.66-1.51-.93s-.88-.39-1.21-.52l-1-.38a125.46,125.46,0,0,1-13.25-7.26c3,1.91,7.23,4.18,6.4,2.8-5.8-4.48-7.65-8.21-19.35-13.21l6.29,3.85-6.63-2.67-3.32-1.34c-.53-.21-1.14-.47-1.61-.64l-1.28-.43-1-.17-.46-.07-.59-.13c-1.25-.85-1.33-1.14-.71-1.11a9,9,0,0,1,1.41.27c.55.13,1.06.24,1.71.42l.85.38c.29.14.55.25.95.45l2.16,1a14.63,14.63,0,0,0,3.16,1.21c-1.27-.61-2.5-1.26-3.67-1.93-.58-.33-1.16-.68-1.72-1s-.91-.57-1.35-.86l-1.27-.6-1.47-.7-2.87-1.46c-1.86-1-3.59-1.9-5.22-2.71-3.26-1.63-6.09-2.79-8.61-2.79-.23-1.68-.62-4.49-8.49-7.59,5,3.88-5.08-.95-1.12,2.63-3-.34-8.51-4.1-9.36-3.27l.95-.26a43.47,43.47,0,0,0-4.39-2.43c-1.39-.64-2.68-1.15-3.89-1.57a34.23,34.23,0,0,0-6.42-1.6c-1.9-.28-3.59-.37-5.19-.45l-2.35-.14-1.16-.1c-.39-.05-.78-.1-1-.12l-2-.63-2.64-.16-3.16-.26c-2-.17-3.94-.35-5.76-.53l-10.73-1.18-6.88-2c-2.21-.63-4.54-1.26-7.09-1.91-.28-1.09-3.27-4.7-8.76-6.1-1.45.3-5.29-.25-9-.7-1.84-.23-3.65-.44-5.11-.5a11.32,11.32,0,0,0-1.87,0,1.57,1.57,0,0,0-.88.37l.66.24.78.26c.52.16,1,.31,1.45.43a23.65,23.65,0,0,0,2.32.56,12.68,12.68,0,0,0,3.08.25,17.64,17.64,0,0,1,5.8.21c4.39,3,0,1.82,6.34,4.66a123.88,123.88,0,0,0-12.17-3.38c-2.59-.65-5.27-1.32-7.78-2a49,49,0,0,1-4.91-1.6,10.68,10.68,0,0,1-2.55.2l1.54-.71a23.18,23.18,0,0,1-4,.24h-.47l-.8.08-1.57.15-2.89.24C478.34,41.18,474.16,38,465,35l-7.34-2.63a2.09,2.09,0,0,0,.79-.18,50.69,50.69,0,0,1-6.34-3.84l-2.35-.7-1.13-.31c-.41-.1-.9-.2-1.4-.29s-1.09-.17-1.65-.24-1.17-.13-1.86-.18c-1.39-.1-3.08-.16-5.14-.17.92,0,.29-.27,1.24-.26-.54-.14-1.08-.27-1.62-.38A36.4,36.4,0,0,0,434.51,28c-.6.4-1.19.8-1.76,1.21L431,30.47c-2.44,1.83-4.69,3.7-6.77,5.28l-.51.38-1.43.15c-.81.09-1.47.16-2.38.21-1.87-.63-1.8-1-1-1.26a13,13,0,0,1,1.6-.39c.6-.14,1.21-.28,1.8-.47l1-.26a6.72,6.72,0,0,0,.59-.72l-.77.43-.41.23h-.37c-1.65-.06-3.54-.06-5.34,0-1.18-.32-2.36-.63-3.55-.93s-2.24-.53-3.36-.78c-2.23-.49-4.44-.93-6.6-1.32l-3.2-.54c-1-.16-2.13-.34-2.95-.43-1.76-.22-3.37-.37-4.81-.47-1.88.88-3.45,1.68-4.74,2.38l-8.82,1.42a58.39,58.39,0,0,0,7.16-3.26,9.35,9.35,0,0,0,1.17-.74,4.88,4.88,0,0,0,.76-.62c.36-.37.42-.65,0-.76a44,44,0,0,0-4.35,1.69,35.13,35.13,0,0,1-6.05,1.7c.93-1.18,3.57-2.74,6.48-4.67-14.44,2.16-2.34,3.93-12.87,3.77-4.43,1.12-6.66,3.07-6.87,4.26l-3.13.23-4.9,1.14c-.14.82-2.55,2.26-5.68,3.84l-1.21.6-1.36.65-2.82,1.32L339.82,45c-.4.5,1,.32,2.83-.23a23,23,0,0,0,5.43-2.28c-.09.94-4.42,3.34-8.8,5.42-1.43-.53-2.85-1.08-4.1-1.6-.25-.62-1.28-1.38-2.78-2.21-.75-.41-1.62-.84-2.58-1.29l-1.48-.68-1.4-.61c-1.91-.82-4-1.66-6-2.47l-2.6-1c-.8-.33-1.55-.65-2.24-1-3.07,0-5-.28-3.3-1.53l-4.53.39-4.87.4-10.57.79-15.43-3.93-7.2-1.81-3.34-.82L264,29.85l-6.72.76c-2.24.26-4.26.52-6,.78-4.51-.54-13.61-.05-8.24-1.74-2.53.15-4.87.36-7.08.6s-4.67.56-6.91.87c-6.5-2.23-12.14-3.88-16.67-5.57-1.28.16-2.6.29-4,.39l-2.37.14-2.84.1c-.4-.07-.06-.14.66-.22l2.54-.28a18.86,18.86,0,0,0,2.42-.39c.6-.16,1-.35.87-.58-.82.16-1.61.29-2.41.4s-1.83.22-2.74.29l-1.46.11-1.57.09-3.15.12-2.78-1.06-2.79-1.09c-1.71-.67-3.49-1.38-5.4-2.1-3.82-1.44-8.13-2.93-13.34-4.36,2.68.82,3.65.5,4.11.33.13.55-6.8-1.16-11-2-2.22-1,3.17.66,2-.11-2.6-1-5.15-1.89-7.67-2.76q-3.43-1.2-6.78-2.26c-2.07.64-4.1,1.31-6.09,2l-6.84,2.33-4.77.18-4.36.22-2.17.11-1.89.12-3.71.25-3,2-3.14,2.06-3.5,2.26L111,24.38l-6.6,1.4-6,1.24c-4,.8-8.17,1.58-12.47,2.3,9-1.51,12.09-4,12.05-4.81L89.21,26a26.38,26.38,0,0,1-3.85,1.34c-.76.22-1.57.43-2.41.64l-2.88.69c-2.61.16-4.72.33-6.9.61-.69-.37-3.42-.76-.63-1.22-2.24-.24-4.35-.37-6.37-.41-1,0-2,0-3,0s-2,.06-2.79.12l-2,.32-2,.36c-1.35.26-2.69.54-4,.83L44.07,31.1a116.6,116.6,0,0,1-20.25,2.55l25.82-6.07-6.58-.82L54.41,24c-7-.5-12.72,2.47-13.67,1.08,1.42-.54,4.92-.7,5-1.5-6.64,0-7.07,1.11-12,1.81a96.71,96.71,0,0,1,11.83-2.74c2.25-.41,4.61-.78,7-1.14L56.21,21l1.84-.25,2.05-.26,19.21-.69,6-1.32c2.11-.6-1.71,1-2,1.39,5.54-1.05,9-.71,15.94-2.43,4.13-2-3.47-.34-6.94.12.28-1.16,2-1.4,5.84-2.22.26.3,1.53.29,3.41.12l1.51-.17,1.59-.19,2.92-.38L110.87,13c1.4-.73,2.78-1.45,4.09-2.08.74-.37,1.46-.71,2.14-1s1.4-.66,2-.93a17.78,17.78,0,0,1,3.06-1.07l.53-.32c2.91-.06,5-.17,6.57-.31l1.05-.1.72-.12a5.57,5.57,0,0,0,.95-.26c.9-.37.45-.81,0-1.21s-.87-.76.06-1a14.29,14.29,0,0,1,2.61-.22c.66,0,1.45,0,2.39,0l1.22,0,1.22.05.7.26,1.9.16c.34,0,.62,0,1,0l1.33,0,1-.42,1.23-.5,2.56-1L154.71.81c3,.76,6.24,1.59,9.55,2.48,2.59.66,5.16,1.34,7.75,2.06,5.18,1.45,10.33,3,15.15,4.75l-2.69-.82c-2,.1.8,1.48,2,2.25a75.73,75.73,0,0,0,7.42,2.53l1.8.51.77.21.65.17,2.47.62c.72-.1,1.42-.18,2.09-.25l1-.07,1.16-.06c.86,0,1.68,0,2.48,0l1.38.09c.47,0,.93.1,1.37.16,1.5-.29,3.12-.59,5.21-.92q2.31.73,4.9,1.6l2.61.88,2.14.68,2.19.71,1.12.37L228,19l3,.87,3.73-.68,5.54-.75,10.41-1.36c1.76,1-2.11,1.66-7.19,2.32l-8,1c-.74.08-1,.15-1.49.23l-1.23.23c-.78.16-1.49.33-2.07.51a3.16,3.16,0,0,0-.57-.08l.54.24,9.52-.57c-1.32.08-2.49.18-3.56.3l-1.51.19c-.45.06-.72.12-1.06.19a27.93,27.93,0,0,0-3.6,1.05c-.88-.08-1.78-.12-2.84-.19.95.47,1.83.88,2.66,1.22a37.55,37.55,0,0,0,4.25-.55l2.17-.42,2.23-.46a100.38,100.38,0,0,1,10.38-1.83c-.73.65.61.94,5.2.69l1.21-1.54c.09.11.61.19,2,.2,1.78-.21,4.78-.49,7.36-.74l3.63.88,3.19.76L277.63,22a18.06,18.06,0,0,1-3.47-2.23,10.05,10.05,0,0,0-1.62-1c-.33-.16-.7-.32-1.12-.48l-.33-.12-.48-.16-1.08-.33c1.38,1-.75.68-4.17-.19-1.49.12-3.27.24-5.14.34,1.34-.32,1.66-.51,1.34-.62a3.37,3.37,0,0,0-.88-.12L259.31,17c-1.61-.08-3.71-.12-3.69-.52l9.91-.6,6.71,1.84L277,19c3.07.78,5.83,1.45,7.94,1.9l1.51,1.84c1.53.5,3.08,1,4.62,1.42l1.71.47,1.4.37,2.48-.2,3.78-.24c2.42-.14,4.63-.23,6.51-.18l-1.84.8c1.88,0,3.75-.06,5.61-.13l7.46-.33,6.16,2.5,2.39,1,2.2.95,2.16,1,1.06.5c.33.16.77.37.94.47.89.49,1.78,1,2.67,1.61,1.1.16,2.2.32,3.36.51l3.44-2.44a36.15,36.15,0,0,1,3.85-2.62c1.75-1.07,3.45-2.12,5-3.14l2.29-1.49.55-.37.81-.48,1.59-.95,0,0a15.07,15.07,0,0,1,2.72-1.08c.8-.28,1.79-.56,2.93-.84,2.27-.55,5.13-1.11,8.23-1.71s6.46-1.25,9.73-2l2.43-.56,3.38-.85q3.45-.88,6.59-1.84a74.13,74.13,0,0,0,7.54,1.48c.59.28-3.34-.4-7.54-1.13-2.9,1.08-5.93,2.22-7.92,3,2.85-.65,5.48-1.46,7.91-2.27,3,.65,5.68,1.14,7.88,1.71.55.14,1.07.29,1.55.44a6.42,6.42,0,0,1,.92.38,3.21,3.21,0,0,1,1.25,1l-2.56-.83-2.64-.8c-1.48-.43-2.42-.67-3-.77-1.07-.19-.57.19.28.7,1.73,1,4.66,2.56,0,1.47l3.63,1,3.05.83c1.76.47,3.49.9,5.1,1.29A71.9,71.9,0,0,0,416.1,22c-11.47-3.33,4.78-1.25-7.05-3.87,1.78.22,3.66.5,5.62.84l1.49.27.76.14.38.07a.86.86,0,0,0,.21,0c.51,0,1,.11,1.51.18l1.22-.16.3,0,.15,0H421l1.3-.06-6.79,1.88c2.27-1.5,4.62-3,7-4.37L427.43,14c1.8-1,3.59-2,5.34-3,0,.5.68.48,2.32-.21,1.19.34,3.08.74,5.69,1.23l5-.49c3.92.62.06.45-2.68.46s-4.38.17,3.15,1.38l2.24,0c.63,0,1.24,0,2,.07,1.95.15,4,.36,6.21.61,1.84.91,3.77,1.89,5.67,2.88,1.3.69,2.62,1.39,3.95,2.08,2.63,1.41,5.25,2.82,7.69,4.05,1.23.61,2.41,1.18,3.53,1.68.56.26,1.1.49,1.63.71l.37.14.21.06.4.1a2.64,2.64,0,0,0,2.44-.38c.74.78.75,1.09.31,1.13a9.67,9.67,0,0,1-2.13-.4,11.3,11.3,0,0,0-1.19-.26,6.23,6.23,0,0,1-.68-.16,1.52,1.52,0,0,0-.52,0c-.22,0-.19.23.22.63l.38.35.28.3c.21.22.49.48.85.79-.26,0-.53-.1-.8-.17l-.41-.12a3.6,3.6,0,0,1-.5-.18c-.9-.36-1.81-.77-2.71-1.19-1.8-.85-3.57-1.78-5.21-2.62-3.29-1.68-6.07-3-7.54-2.77,6.53,2.79,1.59,2.54,5.64,4.66l7.53,2.64-1.52-.87c.94.34,1.9.71,2.9,1.12l.37.15.19.07.12.05.5.18,1,.38c1.35.52,2.72,1.11,4.12,1.75,0,0,0,0-.07-.06h0s0,0,0,0l.11,0,.21-.07,1.77-.55L493,27.8l15.75,4.31c4.38,1.2,8.69,2.38,12.78,3.42,3.63.51,7,.89,10.27,1.26l4.87.55,2.41.29.29,0h1.09l.61-.1.3,0a1.64,1.64,0,0,1,.41,0l2.46-.06c1.66,0,3.36,0,5.12,0s3.6.11,5.52.23l2.94.21,4.22.39c-2.73.12-1,.51,1.61,1L567.52,41l.48.23.32.16.56.31c.36.21.66.4.88.56.44.33.55.58.1.66a4.6,4.6,0,0,1-1.12,0l-.93-.11-.28,0-.4-.09-.89-.19,1.72.78,1.36.62c.91.39,1.81.75,2.69,1.08,1.77.66,3.44,1.18,4.9,1.58,2.92.78,5,1,5.21.69-6.56-2.68-2.25-1.1-7.73-3.5a44.19,44.19,0,0,1,8.4,2.27c1.56.55,3.1,1.14,4.46,1.72a25.71,25.71,0,0,1,3.3,1.71c-1.59-.73-1-.31-1.51-.18,7.53,3.83,4.07.66,9.84,2.61,1.28,2,12.27,5.48,17.14,8.25l8.16,1.31c-1.86-.21-1,.31.61,1.11l2.89,1.34c.78.37,2.67,1.23,3.78,1.82a8,8,0,0,1,2,1.77l.36.18.26.11.5.2,1,.4,2,.76c1.33.51,2.67,1,4.07,1.62a54.55,54.55,0,0,1,9.48,5.15c-3.42-1.34,6.28,5,5.74,6.17,1.74,1.28,3.46,2.4,5.15,3.41.84.5,1.69,1,2.52,1.43l3.35,1.82,2.06,1.55.26.19.18.12.35.24.69.47c.94.61,1.86,1.22,2.77,1.83,1.84,1.2,3.66,2.38,5.47,3.63s3.58,2.58,5.34,4.07c.88.74,1.76,1.52,2.62,2.35.43.42.87.84,1.3,1.29l.32.33.24.27a4,4,0,0,1,.22.34,3.62,3.62,0,0,1-.39.07,3,3,0,0,1-.57.06c-.19,0-.26.16-.12.44a2,2,0,0,0,.48.85.88.88,0,0,1,.19.1c.19.06.38.14.59.22l.31.14.16.07.34.18,2.81,1.52c1.9,1,3.81,2.13,5.31,2.9l-.12,0,.18.05c1.52.78,2.53,1.18,2.72.93,2,.63,3.71,1.1,5.55,1.64,1.68.47,4.43,1.52,4.82,1.29l.65-.08.17,0a1,1,0,0,1,.29,0l1,.19c1.42.27,3,.6,4.81,1-.12-.51-1.14-1.11-2.62-1.71-.74-.3-1.59-.61-2.51-.9l-.48-.16-.18,0-.38-.08-.44-.15-.11,0a.52.52,0,0,1-.2-.08l-.77-.36c-1-.48-1.92-.89-2.66-1.21l-3.95-.57c-2-3.67-9.42-4.89-11.41-6.87a42,42,0,0,1,9.35,3.4c1.88.86,3.89,1.84,6,2.87l3.13,1.58.79.4c.18.09.13.05.19.07l.1,0,.37.13.49,0h.1l.13,0,.51.14,1,.27,4.06,1c2.65.66,5.18,1.23,7.46,1.64a48,48,0,0,0-6.24-3.26c-1.25-.56-2.6-1.13-4-1.7l-2.11-.84a1.62,1.62,0,0,0-.18-.19c-.08-.08-.08-.15-.2-.23l-2.27-1.38-4.69-2.75c-3.17-1.82-6.41-3.62-9.55-5.33l5,3.83L696.11,101l5.45,4.87c-1.73-1.07-3.42-2.05-5.07-3L694,101.56l-.37-.21-.12,0-.24-.1L693,101l-.13-.09-.38-.32-.75-.63c-1-.84-2-1.69-3-2.57a30.61,30.61,0,0,1,3.85,3.86,1.76,1.76,0,0,1-.05,1,.44.44,0,0,1-.19.26c-.11.07-.27,0-.41-.22l0-.11,0,0-.1-.12-.47-.54c-.31-.35-.61-.66-.89-.95a18.66,18.66,0,0,0-1.59-1.48,15.61,15.61,0,0,0-2.72-1.83,24.61,24.61,0,0,1-5.7-3.67c2.57,2.39,6,5.37,3.24,4.1-2.57-2.93-4.67-5.07-6.55-6.91-1-.9-1.85-1.75-2.72-2.58L673,86.89l-2.3-2.08-1.55-1-.79-.54L668,83l-.23-.17c-.62-.45-1.25-.93-1.92-1.45-1.33-1-2.78-2.21-4.42-3.64-.09,2.81-12.13-7.21-14.63-6.4l4.36,2.93L640.9,69.64c-7.68-7.09,8.8,3-3.75-6.35l-1.67-1-1.7-1.05L632,60.48l-1.58-.63-1.77-.64c-1.12-.39-2.12-.7-3-1-1.84-.51-3.34-.82-4.81-1.1a50.8,50.8,0,0,1-10.67-3,42.45,42.45,0,0,1,9,1.7c1.89.52,3.91,1.15,6,1.87,1.05.36,2.1.74,3.17,1.15l1.6.62,2.27.94-1.1-.56-.28-.13a1.07,1.07,0,0,1-.21-.12l-.31-.17-1.22-.7-2.45-1.39a15.69,15.69,0,0,1,2.54.65l1.77.61,1.65.63,1.84.73,4.74,2.84,3.5,2.16,6.15,3.88c-9.74-4.06,3.89,3,7.24,6.6,1.48-.73-4.33-4.06,3-.87-6.31-3.86-7.29-4.33-15-9.73,7.74,5.12,12.19,6.72,16.12,7.92,2,.6,3.8,1.1,5.85,1.89,1,.4,2.11.87,3.29,1.46.58.3,1.2.63,1.84,1l.59.34,1,.6,2.07,1.27,1.45,1.27.76.66.72.65c.52.48,1.06,1,1.62,1.54a17,17,0,0,0-1.87-1.24l-.08-.05-.13-.09-.25-.16-.39-.24a1,1,0,0,0-.44-.15c-.15,0,0,.29.29.72l.27.36.14.19.08.12c.1.17.22.36.36.56,1.08,1.6,3,4,3.18,4.53,3,2.38,9.19,7.22,11.86,9l-.89-3.43a32.17,32.17,0,0,1,3.45,2.87l.72.71.17.18s.15.15.12.13l0,0a1,1,0,0,0-.14.23,2.1,2.1,0,0,0-.15.3l0,.09c.09.09.23.2.34.3l.73.62c1,.83,2,1.66,3.08,2.46a33.73,33.73,0,0,0,8.81,4.56c2-.29-9-5.53-7-4.68a83.25,83.25,0,0,1,8.74,4.68c1.24.76,2.38,1.52,3.46,2.28l.8.57.2.15c.09.06,0,0,0,.05v0a2.7,2.7,0,0,0,0,.28c0,.12,0,.23,0,.35v0s0,0,0,0l.12.07.49.25,1,.5,4,2.09c2.72,1.43,5.68,2.93,9.27,4.5.44-.15.73-.5,1.44-.78a5.08,5.08,0,0,1,1.44-.32c.06,0,.2,0,.2,0l0-.09.1-.17.18-.34a2.72,2.72,0,0,1,.11-.25,12,12,0,0,1-.51,2.07,1.16,1.16,0,0,1-.2.25l-.15.1-.09.06s-.1,0-.17,0l-.25,0c.54.22.39.2.5.26a.82.82,0,0,0,.2.12.74.74,0,0,0,.26,0h.11l.19,0,.81.06c1.07.08,2.14.13,3.2.17,2.11.06,4.15.06,5.93.1-5-1-3.88-1.31-1.32-1.42,1.28,0,2.94,0,4.39-.08,2.7.15,5.24.28,6.17.21,5.1.78,4.18,1,1.28.91-1.44,0-3.38-.12-5.34-.23l-1.46-.08-.71,0h-.37l-1.35,0c.51.11,1,.24,1.57.39l2.93.64c2,.45,4,.91,5.88,1.29,3.76.75,7.1,1.18,9.82.62-.19.62-6.11.69-13.32.48l-5.59-.22c-1.09,0-2.21,0-3.32,0-2.23,0-4.44-.12-6.38-.29l5.18.88a22.07,22.07,0,0,1-4.18-.09c-.63-.07-1.31-.18-2.15-.33l-1.4-.24-.81-.15-.24-.07a2.18,2.18,0,0,1,.21.22c.2.09.5.19.71.28a12.28,12.28,0,0,1,1.13.54,2.69,2.69,0,0,1,1.1.92c.29.55-.19,1-.84,1.37-.64-.28.41-.25-.2-.52l-1.22-.24-1-.17a3.35,3.35,0,0,0-.74-.07,1.34,1.34,0,0,0-.75.06.58.58,0,0,0-.2.18c-.05.07,0,.18,0,.29-2.05.28-.18,1.13.5,1.52l.8.21.24.06.46.08.9.18a15.19,15.19,0,0,1,2.9.8l6.4.49,1.39-.16.7-.09.47,0,.54,0,4.4-.12,9.25-.17q9.56-.15,20.32-.12l3.5.35c.17,6.91,0,12.44-.4,17.54s-.77,9.63-1.22,15.34c.49,1,1,2.09,1.47,3.19-.05,5.3-.11,10.53-.16,15.25-.08,5.18-.19,9.74-.34,13.16-5.4-.36-7.49-1-3.72-2a5.28,5.28,0,0,0,2.12.38c0-1.51,0-3.55.06-6.08a27.1,27.1,0,0,1-.45-3.7c-.09-.54-.18-.86-.26-1.32.12,6.28.23,12.09.32,10.77-12,.29-17.3.48-17.89.52,5.87-.53,8.6-1,9.58-1.36s.19-.74-1.16-1.1-3.3-.75-4.74-1.2-2.39-1-1.93-1.63l-21.7.85c6.8.42,7,.74,4.79,1-1.12.13-2.84.24-4.6.35l-2.6.15-.56,0-.37,0-.66.07c-.89-1.47-12,0-17.22-.2l.38-.3a138.69,138.69,0,0,0-19.34,0c.27.5-7.46,2.9-11.18,4.35,10.35.55,4.21,1.14,5,2a11.48,11.48,0,0,0-3.22.08c-1.48.42,2,.56,2.3,1.05,11-.69,22.32-.88,26.8-2.93-3.38-.93-5.76.89-9.53.26,5.45-1.38,12.48-1.1,21.61-1.06l3,1.23,2.3-.17,3.86-.17,7.89-.33a28.53,28.53,0,0,0-5.7,1.24,30,30,0,0,1-4.39.59l-1.66.12-1.19.1c-.87.06-1.89.1-3.09.13a3.73,3.73,0,0,0,2.1.46c.53,0,1.13,0,1.78,0l3.37-.09c5.44-.17,11.78-.43,17.22-.23q2.37-.83,4.55-1.63c-.77.45,4.45.72,8.08,1s5.68.66-2.15,1.28L743.45,195l8,1.11-11.83.16-6.18.16,2.92-.85c-19.86,1.14-5.85-3.25-25.84-1.32-6.25,2-13,2.19-25.22,1.71,8.86-.44.91-1.39,4.24-2.54-9-.82-12.09.81-16.78,1.58-2.3-1-3.94-1.9,4.14-1.75,1-2.19-10.63.38-11.36-1.87-26.75.06-21.44,7.27-52.7,4.46l1.17-.91c-19.86,1.13-31.31.05-49.7.76l-14.48-2.31c3.24-.35,12-2.08,7.88-3.19,7,2.33,14.52,1.52,22.11,2.77.77-.61-2.32-1.05-3.67-1.42,4.58,0,6.88,1.07,12.93.66-.29-.48-6.89-1.06-1.92-1.35l8.23,1.44c11-.68,5.42-3.44,18.35-2.78A33.17,33.17,0,0,1,601.4,193c5.91.28-7.88.78-2.49,1.54,8.52-1.9,12.62-.39,23.94-1.58a17.12,17.12,0,0,1-4.47.75l16.42.8c-4.06-1.11,13.57-1.22,12-2.87-17.5-.69-12.36.31-32.3-.63,5.65-.37,12.93-2,16.34-3.6a3.54,3.54,0,0,0,1.07.15c3-1.64-.06-2.08,0-4.93-9.1,2-15.19.36-25.92,1.53-2,1.56,6.23,2,11.56,1.59l-9.45,1L610,186l-24-.53c4.55-.08,6.09-1,8.47-1.68a80.36,80.36,0,0,1-9.43-.92c.69,1.49.25,2.54-2.77,2.52-15.44-.36-24-1.7-29.73-3.41l-1.8.11c2.59,1.53-11,2.75-15.75,4.32.23-1.59-8-.95-12.42-1.76-2.37,1.81.8,4.32,6.22,5.81,10.44-1.66,5.85-1.68,10.78-4l16.76-1.57-3.75,1.45c8.36.64,16.4-1.27,15.78.61-4.42,1.26-11.71.5-16.1,1.76l5.54.69c-9.76,1.85-5-1.79-16.82-.49,4.34,1.6-1.07.11-6.13,1.19,4.06,1.11,20.8-.46,17.25,2.26-6.14,1.19-20.67-3.19-28.8-.48l.4-.31c-12-.35-16.21,1.2-20.7,2.18-5.1-.88-12.15.36-17.68.46l.13-.79-7.8.33c3.72-1.45,9.14,0,15.85-.17l-.84-1.48c7.73,1.75,12.89-.9,18.88-2.17-8.72,1.27-24.63-.36-26.68,2.52l-5.4-1.49-2.58.54c-4-1.12.09-2.87,7.88-3.2,1.36.37,2,.55,1.62.86a53.41,53.41,0,0,1,15.7-1.46l-4.67.78c10.9.1,20.81-.47,24.54-1.91-15.73-.62-31.21-.75-46-.68-4.36,3.33-9.53,5.19-11.75,8.29-9.92.57-23.38,1-32-.14l.79-.61a61.85,61.85,0,0,0-11.3.2c-4.44-.81,3-1.63-.06-2.07l-14.2,1c.88-1.4,12.83-1.41,18.5-1.51-1.07.12-3.23.35-2.53.54,6.6.58,18.89-1.81,21.78.22,3.22-.35-6.53,1.49,4.36,1.6,7.29.76,9.66-1.06,10.42-1.66.12-.8-11.44-1.09-7.43-2-5.67.1-7.93,1.12-15.19.36,5.62-.1,13.26-1.7,16.26-.47,11.12-1.48,9.52-5.2,4.28-5.41,1.25,1.17-20.29,1.44-5.7,3-6.55,1.5-18.52,1.51-27.09,2.45l.39-.3-10.64.37c1.5-.41,4.71-.77,4.82-1.56l-14.74,2.13c8.3-1.43-5.14-1-8.91-1.62-1.58,1.21-7.34,2.1-1.81,2.79,6.2.88,3.61-.65,9.26-.75l-8,1.92-.68-.19L390,194c-10.88-.11,4.76-3.63-9.19-2.1l1.81,2.13c-16.15-.31-36.89-2.71-48.31-1.73,3.15-1.21,4.54-3.16.21-4.32,4.92.37,14.81.29,21.87.09,1.36.38-8.82,2.52-16.49,2.06,3.72,3.49,19.29-2.11,20.19,1.43,19.54,1.24,14.58-3.41,31.16-1.33.23-1.58,4.72-.77,5.59-2.17-4.91-2.57-22.17.09-32.93-.81a15.17,15.17,0,0,0,3.59-.65,78.1,78.1,0,0,0-16.25.48l.68.18c-9.39,1.55-5.81-1.18-11.34-1.87-2.14.23-9.83-.23-8.59.93l-10-1.5.48,1.77c-5.64.1-6.88-1.07-12,0l-.24,1.58,14,.55c-7.11.51-2,1.51-9.79,1.84,8.72-1.73-6.17-.87-7-2.34l-5.74.89,1.47-.42c-4.51-.82-5.37.59-10.63.38,6.21.88,10.27,2,18.17.87-5.75.89-17.17,1.87-20,1.92-6,.66-10.26-.54-15.91-.72,10.85-.63-3.8-4.79,17.94-3.65a5.61,5.61,0,0,1-2.84.05c2.89,2,13-.13,17.74-.9-1.21-1.16,3.72-1.45-4.64-2.09,2.74.74-7,2.59-15,1.63l1.4-2.48-11.58-.3,1.09-.11c-4.36-1.61-12.36.3-20.33-.64-5.76.89-27.84.18-18.34,2.79-7.15-1.56-13.43.42-21.24.76l9.73,1c-11.5,1.78-8.19.63-17.4,3.46-.93-.68-3-1.24-1.11-1.95-15.46-.13-37.54-.84-46.61,1.2-10.89-.11-12.6-3-27.89-1.89-3.22.35,2.51,2.33-7.61,1.61-.69-.18,9.74-1.84-1.53-1.65-8,1.92-18.86-1-29.3.61-5.52-.69-15.09-.43-13.09-2,8.73.35,21.09,0,23-.69-1.21.91,6.21.88-.23,1.59,13.21,1.14,8.57-.94,20.42-.16.81-.61-6.09-1.68-8.63-1.13-.06-2.07,23.35-1,12.83-3.48-12.66-.18-16.42,4.13-27.39,1.95,4.4-1.26,11.27-.19,16.86-2.36l-9-.83L105.48,183l.39-.3c-15.92-1.9-14.72,2.13-29,3.16,8.26,1.44-1.91,3.59,4.3,4.47-9.52.26-16.52,0-16.58-2.08,17.82-1.69,1-2.19,17.48-4.25-2.7-.74,3.93-3-5.89-3.26-11.06,1.48,3.31,1.72-7.72,2.41-.66-.19-1.33-.38-.95-.68-5.07,1.08-5.92-.39-12.06.8l1.46-.41c-7.57-1.26-8.28,1.42-14.8.05,1.3.77.21,1.09-1.72,1.33l-1.57.17-.86.09-1.29.09c-1.75.14-3.53.3-5.09.54,1.23.07,2.38.17,3.51.29l1.69.18c.52.07,1.21.14,1.49.21,1.47.28,2.94.61,4.62.91a70.66,70.66,0,0,0,14,1.07c1.57-1.21.62-1.89,6-2.47l-8.47.14c1.83-.2,3.22-.51,4.9-.75l8.13.63c-10.31.86-5.58,2.16-10,3.43-9.44-.53-7.79.33-13.72-.07.15-.44-.92-.85-2.77-1.24-.46-.1-1-.19-1.52-.29l-.86-.14-.46-.06-.24,0-.37,0c-2-.18-4.16-.36-6.44-.53L3.71,184.54c2.42.06,5.68,0,7.38.06,6.21-.56,4.36-.93,1.2-1.22s-7.77-.51-7.73-.75l-4.4.44L0,179.33c0,1.46.28,3.14.84-.52.56-10.55-1.36-8.87-.72-20.4.54-.56,1,1.47,1.45,2.64s.94,1.52,1.48-1.88a48.94,48.94,0,0,0,2.43-7.59c.22-.94.43-1.94.63-3l.28-1.69.25-1.68a49.94,49.94,0,0,0,.44-6.82c-.31-.76-.3-3.44-.2-6.55A10.58,10.58,0,0,0,7,133l1.65-6.75C9.77,132.2,6.82,138,8,144l1.54.63-.12,1.86-.09,2.17c-.05,1.47-.06,2.95,0,4.34a39,39,0,0,0,.51,6.61c.46-3.88.62-6.15.71-8.58l.29-8.9c1.09-1,1.38,4.48,1.41,5.39-.27-.41-.54-.84-.8-1.29a45,45,0,0,0-.84,12.74,74.52,74.52,0,0,1-.15,13.59c-.22,1.87-.26.89-.55.77l.07.79a98.35,98.35,0,0,1,14.34-.4A59.94,59.94,0,0,0,38,172.75l-3,.83c3.25-.33,7.73-.9,13.08-1.56l17.45-2.19.1-.62c-1.35-.37,3.2-.35,5.64-.1h0c6.07-.76,11.91-1.45,16.69-2a28.77,28.77,0,0,0-5.72-.79c-1.9.73-13,.13-11.51,1.78-5.15-1-13.44.44-17.22-.19,6.89,1.06-4.79,1.56-6,2.47-2.31-1-10.2.08-9.3-1.32-1.36-.37,3.38.93,6.31.09,7.21-1.31-13.2-1.15-4.22-2.39-2.39.18-3.87.32-5.75.42s-3.75.19-5.72.26c-3.94.13-8,.24-12.17.48,0-2.4,0-4.72-.11-6.91L15.42,167c.3-2.3.58-6,.89-9.27s.64-6.1,1-6.52c-.1,3.16-.43,6.91-.48,10.76.84-.47,1-2.76,1.15-5.13s.18-4.85.69-5.14l-.42-2.75-.21-1.45-.1-.74-.09-.89-.7-7.32-.62,6.31c-.62-4.06,1.65-17.16,2.69-26.92,1.69,5.79-1.18,14.76-1.19,25.12.19,7.55,2.47-4.44,2.39,2.68a24.58,24.58,0,0,0,.64-8.73l.63-2.76a33.48,33.48,0,0,1,.58,6.1c0,1.19,0,2.45,0,3.76l0,2v1.64c0,3.5.06,7.13.73,9.33-.19-.34-.38-.65-.61-.68a50.46,50.46,0,0,0-1.21,7.35,58.92,58.92,0,0,0,6.84-.38c-1.84-.62-3-.2-4.54,0,.32-.48,4.5-.69,6.22-1.23-1.67-.29-1.59-.58-1.41-.84s.5-.49-.41-.65a21.27,21.27,0,0,1,6.57-.12c.57.37.25.62-.28.91s-1.25.6-1.27,1.08a7.84,7.84,0,0,1,4,.52c.33.09.69.18,1.07.25.61.07,1.28.12,2,.15a28.33,28.33,0,0,0,5-.3c-10.5-.41,2.77-2.12,6.39-2.77l-1.76-.07c3.33-1.14,6.16-1.19,8.46-.14-4.3.46-8.46.14-7.24,1.3,2.84-.05,5.67-.1,8.89-.45l-2.92.84,14.11-.24c2.23-1,6-2.47,7.92-4,3.38.93,8.1.16,11.31-.2l-1.49.43c6.22.87,20.07.14,21.24-.76,4.45.81-31.44,5.77,0,4.93,12,0,7.44-2.9,14.27-3.9,0,0-.39.3.29.49,5.23.21,5.75-.89,10.05-1.36-3.13-.44-7.68-.46-9.14,0,1.57-1.21,10.89.11,14.9-.85-5.2,1.87,10.11.72,6.07,1.67a83.54,83.54,0,0,0,27-1.65c7.06,2.34,12.38-.31,23.83.78-1.76-.07-4.95.28-7.42,0-6.53,1.48,11.87.77,1.82,2.13,2.15-.23.15-.79-2-.55-3.86.16-7.49.82-6.52,1.49l9.34,1.32-3.26.36,14.17,1.82c.38-.3-.95-.67-1.63-.86,16.43.8,35.22-.21,49.62,0,2.7-4.19,35.44-1.8,47.07-4.37-3.11,1.2-4.82,3.32-2.89,4.2-2.6.17-7.91,1.87-13.79,1.51-.94-.67-8.2-1.43-3.53-2.2-16.26.48,2.2,1.84-2.59,3.4,18-.41,28.58-2.87,39.95-3.85l.28.49,8.59-.93c-7-.28-6.67-2.66,2.37-1.83l-1.09.12c5.15,1,15.89-.18,23.94,0l5.47-1.38c8.07.16,8.41,2.72,11,4.25,12.64.18,20-1.92,28.93-3.16,4.07,1.11,23,1.38,13,2.73,11.41-1,9.11-7,28.68-3.65l-5.08,1.08c18.71-.23,45.39-2.37,54-1.24-6.9,3.87,23.37,3.94,26.7,7.73-.93-.87,6.1-1.15,7.12-1.62a12.51,12.51,0,0,0,6.83.1c-7.3-.76,5.13-3.94-8.82-2.41,7.06-2.6,16.15-4.63,31.61-4.5l-.23,1.58-12.23-.48c1.23,1.17-5.07,1.08-7.65,1.62,22.76.89-3,3.7,20.29,3.49,2.25-1,.79-.6,6.84-1-2.84.05-3.36,1.14,1.23,1.16l4.4-1.26c8.12,2.63-13.45,1.71-6.52,3.57-9,1.24-24.54,1.9-21.64,3.92,14.67.73,13.19-3.78,28.53-2.86l1.64.86c5.39-.59,6.27-2,9.22-2.82.27.49,1.64.85,5.1,1,9.11-2,15.16-2.44,23.56-4.65-22.36,1.66-19.12-1.55-42.21-.07,3.62-.65,19.88-1.13,20.87-3.32l-.21,1.59a138.72,138.72,0,0,1,24.44-1.12l-5.76.89c12.5-1.1,20.77,2.4,30.64-.23a58.37,58.37,0,0,0-8.46.15,156.09,156.09,0,0,1,21.49-.28l14.46-2.62c-.12.79,9,.84,4.62,2.09,10.42,1.21,15.32-1.15,21.34-1.54,10.67,1.67-9.24.74-10.28,2.93,14.69.73,30.26.07,38.55-1.35-3-.32-4.45-.6-4.3-1,.45.5,6.37.37,9.67.38l2.27-1c5.49.69,4.72,1.3,0,2.07,5.26.2,11.52-1.78,16.94-.29-9,1.24-20.41.16-25.09.93a84.21,84.21,0,0,1,19.44,1c2.67.37,5.5.74,9.15.93l1.88.1c.57,0,1.16,0,1.8,0,1.26,0,2.67-.09,4.19-.25.21.24-.11.6-.19.91s.11.54,1.49.55c3.07-.19,3-.72,2.36-1.35s-1.74-1.34-1.42-1.91a12.2,12.2,0,0,1-4.45.08,10.25,10.25,0,0,1-3.51-1.37,10.38,10.38,0,0,0,.7-.84c.22.44,2.25.46,3.1.88-.11-.57-.26-1.13-.43-1.7a4.4,4.4,0,0,0,2.4,2,11.17,11.17,0,0,0,4,.81,9.46,9.46,0,0,1-.18,2l-.82-3c-1.58-.65-1.68-1-3.55-2.62a1.13,1.13,0,0,1,.44-.49,22.7,22.7,0,0,0,0,4.53c.15,1.4.39,2.66.59,3.88.1,1,.2.32.26.19a2.72,2.72,0,0,0,.1-.72,2.42,2.42,0,0,0-.65-1.61c.3,0,.56.69.81,1.1s.48.53.71-.94c.08-2.39-1.39-1.38-1.85-2.31a8.54,8.54,0,0,0,2.18.11,3,3,0,0,1,2.41.94c.1,2.68.09,3.24.15,3.77,0,.13,0,0,0-.06l0-.23.1-.63.36-2.37q.33,1.34.66,2.31c.11.32.22.62.34.88,0,0,0,.17.08.16l.08-.33.17-.65c0,.33,0,.64.06.92,0,.12,0,0,0,0l0-.1.05-.17a1.27,1.27,0,0,1,.24-.47.55.55,0,0,1,.67-.06,11.22,11.22,0,0,1,1.33.84c.2.15.31.1.36.05a5.38,5.38,0,0,0,0-.91c0-.41,0-.79-.07-1.14a6.53,6.53,0,0,0-.85-2.82c-.74-1.28-1.63-1.75-1.43-4.87-.54-1.06-.59.38-.66,1.57s-.13,2.12-.69.36c.14-3.15-.25-2.7-.73-2.84a11.1,11.1,0,0,1-3.94.47l1.41-.54a2.78,2.78,0,0,0-2.3-.53,26.7,26.7,0,0,1-2.9.23c-1.07.09-1,1.48-1.59,2.73a4.26,4.26,0,0,1-1.28,1.64,4.34,4.34,0,0,1-.46.28l-.12.05-.07,0s0,0-.13,0h-1c-1.46-.05-3.24-.19-5.42-.46.91-.33,1.26-.56,1.28-.74l4.69-2.71,1.17-.67a8.81,8.81,0,0,1,.62-.75,16.53,16.53,0,0,1,1.44-1.47,35,35,0,0,1,8.65-5.51l-5.21-.69-5.61-.78-14.14-2c-8.17-2.75-14.62-5-23.11-8L700,132l-3.61-2.24c-.93-1.44.07-1.47,1.86-.86s4.34,1.82,6.74,3c3.13.76,5.5,1.29,5.2.74L719,136c-.42.44-5.15-1-8.84-1.95-.92-.25-1.78-.46-2.49-.61a9,9,0,0,0-1.67-.26c-.36,0-.46.11-.22.36a4,4,0,0,0,.64.49l.54.34.64.38c4,1.08,7.5,2.11,10.66,3.09l9.1,2.84,2.44.29,2.22.23c1.5.14,3,.27,4.61.37s3.24.18,5,.22c.9,0,1.74,0,2.61,0l2.78,0c-1.28-1-4.13-1.65-7.57-2.11s-7.5-.76-11.59-1.23a58.47,58.47,0,0,1-10.75-4.17c2,.73,3.93,1.31,5.76,1.79s3.61.87,5.25,1.2h0l-22.06-7.89-6-3.71-2.46-.67,5.87,3.65a17.91,17.91,0,0,1,2.28,1.54c2.55.85,3,1,3.17,1.11-1.13-.39-2.15-.72-3.2-1-1.73-.94-3.49-1.81-5.12-2.54a45.93,45.93,0,0,0-4.46-1.75c-2.64-.86-4.54-1.08-5.2-.5l1.49.92L689,125.15ZM89.47,25.88A4.6,4.6,0,0,0,90.75,25C90.44,25.33,90.87,25.43,89.47,25.88ZM686.64,176.61c13.09.28,26.29.8,38.86,1-22.7-3.73-38.65-6.55-.77-6.48l2.48-.27a202.48,202.48,0,0,0-21.52-.24c-3.25.66-10.12,2.21-16.15,3.64s-11.21,2.76-11.1,3c2.3,1,5.66-.09,9.85.22Zm-9.31-6.24c-7.41-.42-5.73.41-6.88,1.15l7.8-.28C677.26,171.05,676.77,170.79,677.33,170.37Zm-6.43,1.89a10.07,10.07,0,0,1,1.91.16Zm72.9-32.33.78,0-5.3-.87A33,33,0,0,0,743.8,139.93Zm13.71,3.63c.9-.34,1.82-.68,2.78-1l-4.83-.79C755.62,142.4,755.84,143,757.51,143.56Zm-8.7,23.35c-.75.81-3.24,1.24-5.66,1.7a33.12,33.12,0,0,0-3.32.76c-1.08.3-1.85.66-2,1.13-.68.49,1.59.67,3.79.83l8.12.15c0-.27.44-.53,1.23-.77-2.88-.24-4.76-.71-4.1-1.87a11.62,11.62,0,0,0,4.16.8,3.88,3.88,0,0,0,2.11-.67c1.11-.68,1.83-1.6,5.38-1.28.37-.66-1.74-1-4-1.09A23.51,23.51,0,0,0,748.81,166.91ZM109,171.82a20.88,20.88,0,0,0-2.2-1.11l5.89-.93c10.51.41,18.93,3.12,28.38.79a27.66,27.66,0,0,1,9.06,2.84c-2.16-.07-4.19-.17-5.88-.33C117.68,176.5,130.38,169.48,109,171.82Zm120.81,3.33a3,3,0,0,0-1.47.42c23.48-3.46,42.81-4.47,55.46-4.33-2.45-1.38-13.81-2.44-19.2-3l4.78-1.56,3,1.23,8.3-1.42c-2.32-1.06-9-.84-13.5-1.64-.39.29-14.72,2.12-18.73,3.08L259.83,169c-3.09-.43-18.28-.07-24.31.33-.12.78,10.27,2,11.57.29,1.24,1.16-10.73,1.17-3.16,2.42-9,1.24-23.25.21-29.87-.37l-1.12-1.95c-7.27-.77-4.91,2.35-13.54,1.22,10.61-.38-1.8-2.14,6.64-2.29-2.69-.74,0-2.07-8.51-1.92-7,2.59-8.92-1.63-15.57.66-4.45-.81,4.78-1.56-4-1.91-10,1.37-9.46,2.34-10.08,4.23,9.39.52,10.55-2.45,18.22-2l-15.26,3.23a27.58,27.58,0,0,0,6.64.38,35,35,0,0,0-7.91,1.32c-1.27.37-2.44.69-3.52,1,8.65,0,16.34.06,17.7.86l-1.2.92c3.07.84,8.06.18,10.36-.49,7.75-.1,15.49-1.37,17.18-.19l-2.94.84C216.71,175.27,217.77,175.16,229.76,175.15Zm312.3,2.08c-5.77-3.35-12.13-6.31-39.07-5.73l2.12-.23c-13.58-2.1-26.47,2.78-43,.45,8-1.27,7.58-1.15,16.43-4l-8.6.95c2.39-1.83-6.19-.88-12.5-1l5.57-2.17c3.79.62,13.6.85,13.32.36-2.15.24,13,2.73,21.17,2.1-.85-1.47-18.18-.87-10.44-3.27-6.82,1-7.67-.46-14.8,0,6.84-1,1.69-2,6.78-3.07l-11.69.5c-.3-.49,17-1.09,7.45-2.89-4.69.77-17.2-.2-17.42,1.38l-.29-.48c-8.76-.35-3.85,2.24-14.61,1.33-.13.8,1.92,1.35,5.78,1.19,3.26-.36,3.75-1.45,10.47-1.67,3,1.24-8.1-.15-3.44,1.94,2.31,1,17.72-.9,12.81,1.45l-8.75-.34c-.22,1.59-6.56,1.5-6.38,2.78-5.35.58-10.4-1.21-15.86.17-2.27,1,1.69,2.93-7.35,2.1-7.06-2.34-27.87-1.89-35.66-1.55l-6.83,1c.58,1,13-.13,8.66,1.13l-10.64.38.82-.61a71.38,71.38,0,0,0-10.35.87c3.32-1.14,11-.68,9.46-2.33-5-.33-5.75-.94-10.35-.62,1-.12,1.87-.28,1.74-.51-10.11-.72-9.76,1.84-12.3,2.38-10.16,2.15,10.25,2,8.95,3.69l-29.68.91c2.53-.54,5.09-1.07,4.13-1.75-7.28-.76-.17-1.28-10.39-1.2.73,2.26-12.86,1.41-20.08,2.71-3.38-.92-4.07-1.11,3.31-1.14-.85-1.46-10.75-.9-14.27-1-2,.36-5.52.57-7.73.9,3,.73,1.7,1.65-4.7,2.27l-.37.31c10.48.4,26.77,2,33.35.5l-1.86.73c12.13,1.26,26.4-2.63,32,.13-.52,1.1,2.43.26,2.22,1.84l8.93-1.24-1.85.72,15.19-.36-.4.3c7.22-1.44,12.88-2.61,17.4-3.56,0-.69-.45-.9,2-1.41a29.39,29.39,0,0,1,5.88-.3h0c3.73.2,6.21,1.19,10.81,1.59l-14.13.17c-1.16,1.17.05,2.39,7,3.21-2.83,0-4,1-.51,1.09.38-.3,9.26-.75,5.87-1.68,13.43-.43,35.16,2.65,55.54.42-14.64,1.34,11.73,1.57-4.52,2,11.35,1.88,9.76-1.84,21.33-1.55,1,.67-6.3-.09-9,1.24,19.23.75,32.45-3,51-2.46l.8,1.46Zm36.8-1.82,10.91-.51-1.08,0,10.76-1.18c-6.61-.57-11-2.18-1.71-2.93-.78.61,1.92,1.35-1.29,1.7,6.2.88,19.8,1.73,16.25-.48-11.91,2.09-2.78-2.81-12.14-1.26,5-1.44,10-.79,14.75-1.44-4.94,1.21,1.15,2.73,8.57,3.31,3.23-.36,12,0,17.33-.6-1.91-1.35,2.76-2.13-6-2.47a60.21,60.21,0,0,1,13.73.06c-2.21.23-6.06.4-5.79.89,3.58,1.24,7.79,1.19,10.11,1.72l5.53-.22a5.17,5.17,0,0,1-1.35-.46l6.15-1.19c-8.19.63-3.79-.63-3.68-1.42-.22,1.58,5.27.21,8.07.15l-6.09-1.67c2.94-.83,10.39,1.21,8.85-.45-12.91-.66-17.87-.37-29.55.12l4.74,1.3c-13.17.92-8.12-2.23-22.91-2.16-6.14,1.18-22.23.08-22.53,2.45,1.85-.72-9.2-2.11-14.27-1-5.6,2.17-22.53,2.46-17.4,3.45,4.57,0,10.73-1.16,14.41.25l-8.88.45,5.83,1.18C577.19,172.51,577.48,173.67,578.86,175.41Zm201.33-18.65,0-.57v.63Z"/><path class="cls-4" d="M10.2,139.1c-.32-2.59.3-8.87-1-7.73C10.52,131.32,8.48,142.62,10.2,139.1Z"/><path class="cls-4" d="M12.08,131.69c-.26-.47-.78-.2-.58-3l-.33,7.8Z"/><path class="cls-4" d="M21.45,124.54a43.18,43.18,0,0,1-.31-13c3.3-2.1,0,10.37,2.65,13.46,1.27-11.5-1.15-15.26-.61-24.77C21.49,104.87,19.12,124,21.45,124.54Z"/><polygon class="cls-4" points="24.95 129.99 24.79 123.52 24.55 124.14 24.71 130.61 24.95 129.99"/><path class="cls-4" d="M106.58,189.91c.58,1,4.59,0,6.74-.22A26.31,26.31,0,0,0,106.58,189.91Z"/><path class="cls-4" d="M232.1,9.89l-.47-.17c-.23-.09-.12,0-.89-.35l-3.51-1.46-11-4.66-11.53,1c-3.15.27-2.87.3-3.77.41l-1.41-.37-4.66-1.41L185.52,0l8.28,2.55L198.57,4l1.06.32.4.12.86.24.75-.11.42-.06.23,0,.81-.07,4.69-.4,8.39-.67,9.47,3.94L229.72,9l1.09.44.5.21.16,0Z"/><path class="cls-4" d="M269.39,183.54c-13.17.92-19,2.6-32.45,3,17.65,2,23.31-3.07,38.13-1.06Z"/><path class="cls-4" d="M264.74,191.32c-2.18-1.84,10.17-2.16,8.26-3.5-8.88.45-4.14,1.75-12.2,1.59Z"/><polygon class="cls-4" points="205.04 160.97 209.04 160.02 205.82 160.37 205.04 160.97"/><polygon class="cls-4" points="324.78 189.69 323.33 190.1 329.93 190.68 324.78 189.69"/><path class="cls-4" d="M321.87,190.52l1.46-.42Z"/><polygon class="cls-4" points="210.18 157.04 204.24 156.64 201.3 157.49 210.18 157.04"/><path class="cls-4" d="M262.58,166.88l-5.31.59C258.32,167.36,265.59,168.11,262.58,166.88Z"/><polygon class="cls-4" points="365.13 190.47 371.59 189.76 370.93 189.58 364.49 190.28 365.13 190.47"/><path class="cls-4" d="M304.15,161.82c-3.67-1.41,10.6-.38,3.05-1.62C300.48,160.41,303.21,161.15,304.15,161.82Z"/><path class="cls-4" d="M382.12,171.39a16.2,16.2,0,0,0,2.68-.2C383.74,171.25,382.86,171.32,382.12,171.39Z"/><path class="cls-4" d="M382.12,171.39c-2.81,0-5.62-.54-7.55-.13A21.24,21.24,0,0,0,382.12,171.39Z"/><path class="cls-4" d="M414.37,171.06l-2.56-.1c2.61-.69,1.38-.59-.95,0-2.71,0-2.55.49-2.88.8l-1.66.55,2.22-.51C412.73,171.78,415.28,171.71,414.37,171.06Z"/><path class="cls-4" d="M534.14,194.84c-9.43-.52-11.86-.78-11.35-1.87-8.95-.35-7.56,1.53-13,2C520,194.73,522,195.23,534.14,194.84Z"/><path class="cls-4" d="M509.83,194.94l-3.53.09A33.43,33.43,0,0,0,509.83,194.94Z"/><polygon class="cls-4" points="376.68 159.09 382.54 157.41 380.39 157.65 376.68 159.09"/><path class="cls-4" d="M548.12,195.39a36.32,36.32,0,0,1-5.92-.39C541.7,196.1,549.87,195.46,548.12,195.39Z"/><path class="cls-4" d="M511.78,173.92c-1-.67-7-.27-9.44-.53C505.86,173.53,508.73,175.55,511.78,173.92Z"/><path class="cls-4" d="M575.16,190.87c-1.75-.07-4.43-.8-3.27-1.71C569.35,189.7,565.92,191.63,575.16,190.87Z"/><polygon class="cls-4" points="529 174.11 527.65 173.74 521.21 174.44 529 174.11"/><path class="cls-4" d="M506,157.94c-7.26,1.31,11.5,3.15-1,4.26,16.12,1.37-1.24-1.85,10.65-1.64C508.7,160.12,505.29,158.47,506,157.94Z"/><path class="cls-4" d="M515.66,160.56c1,.07,2.11.11,3.3.11C517.64,160.61,516.58,160.58,515.66,160.56Z"/><path class="cls-4" d="M617.75,168.83c-1.06.14-1.78.29-2.44.44A20.47,20.47,0,0,0,617.75,168.83Z"/><path class="cls-4" d="M553.63,159.48l-10.88,2c7.27-1.3,25.53-1.22,24.4-3.18-5.92-.4-13,.12-16,1Z"/><path class="cls-4" d="M678.41,194.91l-4.7.78,5.87.22C677.9,195.62,680.94,194.19,678.41,194.91Z"/><path class="cls-4" d="M680.71,196l-1.13,0A4.63,4.63,0,0,0,680.71,196Z"/><path class="cls-4" d="M597.18,169.78a60.73,60.73,0,0,0-9.52.26C589,170.41,597.74,170.75,597.18,169.78Z"/><polygon class="cls-4" points="711.49 192.07 703.73 192.41 712.2 192.26 711.49 192.07"/><polygon class="cls-4" points="754.87 195.39 757.57 195.76 769.52 195.06 766.72 194.69 754.87 195.39"/><path class="cls-4" d="M700.35,156.94c-5.26-.21-9.36,1.55-8,1.92l10.19-.08c-2.59-1.53-2.82.05-8.73-.34Z"/><path class="cls-4" d="M571.82,35.16c2.54-.17,13,4.28,13.25,5.4-1.59-.13-7.52-1.86-4.11,0l9.36.72c2.61,1.48,3.3,2.22,2.8,2.44s-2.16-.09-4.41-.52c-4.5-.85-11.05-2.53-14-3.12a105.88,105.88,0,0,0,13.4,4.3,114.88,114.88,0,0,1,13.71,4.78,36.62,36.62,0,0,1-7-4.42c.24-1.82,11,3.49,18.95,6.63-4.74-2.8-1.59-2.19,2.34-1.32a6.11,6.11,0,0,0,1.51.33l1.34.29-1-.4c.14-.15,0-.46-.54-1-6.83-2.27-11.35-5.75-15.62-7.54,1.58,2.21-2.12.86-6.93-1.22-1.2-.52-2.46-1.1-3.76-1.64l-3.88-1.51a45.39,45.39,0,0,0-6.23-2l-6.49-2.06-2.39-.87c-.37-.47.44-.59,4.29.2a33.81,33.81,0,0,1-3.49-.94l-1.08-.33L570,30.68l-4.14-1.41L561.92,29,560.24,29h-1c-.88,0-1.36.16-1.14.41l-15.91-1.42-4-1.08a11,11,0,0,1-1.86-1c-.85,0-1,.06-.95.23L492.78,14.55,483,17.49l-2.44.73-.61.18.41-.12.93-.28L485,16.89l-.74-.36-6.18-3.18-18.3-9.43L433,.36l-12,7.22c4.24-2.41,8.2-4.53,12.13-6.62,4.6.85,9.16,1.7,14.06,2.52-7.37,0-3.25.62,1.77,1.36l2.19.36,1.58.27,1.62.3c2,.4,3,.78,1.82,1.08-.81,0-1.65-.07-2.52-.13l-2.53-.2c-.52,0-1.06-.08-1.59-.14l-.81-.1-1.38-.19c-3.73-.52-7.36-1.16-10.13-1.75-.95.33.56,1,2.12,1.63s3.22,1.37,2.8,1.86c1.9.36,3.64.65,5.27.89l1.82.25c.46.06.91.1,1.35.14l1.82.16,2,.14c1.29.08,2.52.14,3.72.17,2,.78,3.93,1.46,5.9,2.16l.74.26c.23.08.33.09.5.14l.92.24,1.89.54a40.94,40.94,0,0,1,9,4c-1,.74-4.95-.25,2.63,3.51l-2-.78c1.16.47,2.18.92,3.07,1.34a11.67,11.67,0,0,1,1.35.67,3.66,3.66,0,0,1,1,.86c.49.6.79,1.2,1.33,1.36a6.21,6.21,0,0,1-1.44.08c-.29,0-.63,0-1-.06l-.31,0,.53-.29,1.22-.65,0,1.64c2.52-1.09,5.79-2.32,9.47-3.61,2.45.55,5.07,1.17,7.75,1.82l6.28,1.53,8.64,2.13-.47.19a139.23,139.23,0,0,1,14.24,2.88L534,30.9l3.6,1,2.35.6.66.17.24,0,.43.09.37,0H542l1.15.06-.86.08-.39,0-.14.06c-.18.1-.37.19-.56.28-.11.37-3,0-5-.13a29.36,29.36,0,0,0,3.44,1.12l.37.09.27,0,.27,0a2.5,2.5,0,0,0,.48,0,4.68,4.68,0,0,0,.72-.27l.09,0a1.05,1.05,0,0,1,.21,0l.45,0,.92-.09a18.86,18.86,0,0,1,4.14.08c-.4.27.71,1.53-4.26,1.37l9.52-.17c3.4,0,5.39-.21,11.72,0l5.41,1.57,3.39.84C579.6,38.68,572.51,36.13,571.82,35.16Z"/><path class="cls-4" d="M601.85,49.21c1.24.61,2.67,1.24,4.4,1.89C604.62,50.37,603.21,49.78,601.85,49.21Z"/><path class="cls-4" d="M413.69,12l7.25-4.37L418.48,9l-1.54.9C415.89,10.51,414.82,11.19,413.69,12Z"/><path class="cls-4" d="M640.14,62.43c-3.37-3,3.45.78,4.43.67l-9-5.51-8.47-3.5c-.17.6-1.91.61-1.82,1.25l9.48,3.84Z"/><path class="cls-4" d="M623.26,51.24a14,14,0,0,1-4.3-.52l8.19,3.37C627.27,53.65,626.51,52.88,623.26,51.24Z"/><polygon class="cls-4" points="612.53 82 609.9 80.97 605.79 79.77 612.53 82"/><path class="cls-4" d="M572.65,63c2.83,2,9.09,3.47,11.12,4.17-3.4-1.43-4.37-1.78-5.37-2.21S576.33,64.15,572.65,63Z"/><polygon class="cls-4" points="577.59 75.32 570.83 73.41 571.37 73.81 577.59 75.32"/><path class="cls-4" d="M368.79,15.11l-3.34,1C367,15.69,368,15.38,368.79,15.11Z"/><path class="cls-4" d="M422.24,12.32l-.59.31-.29.15-.17.08-.64.29-1.12.5c-.67.29-1.21.51-1.63.66-.82.3-1.17.34-1.17.19,0-.3,1.42-1.38,3.12-2.66l.66-.48,1.17-.8L424,8.87c1.61-1.11,3.14-2.19,4.34-3.1,2.4-1.81,3.53-3,1.24-2.25l-7.2,4.76-1.78,1.17-.88.59-.49.35-1.89,1.35.36-.93-6.15,3.84,10.72-3-1,0h-.67l-.31,0a2.91,2.91,0,0,0,.23.64l.12.23s0,0,0,.06l.15.05.26.11c.66.28,1,.57.72,1.12l-.71,0h-.49l-.29-.05a3.61,3.61,0,0,1-.48-.1,2.62,2.62,0,0,1-.51-.35,1,1,0,0,1-.14-.15s0,0-.07-.08l-.25-.14a2.67,2.67,0,0,1-1-.86c-.44-.56-1-1.26-5.48-3.18l-7-1.95L392.91,3.49,388.7,4.61l2.44-1a26.19,26.19,0,0,0-4.54,1.52l-32.52,8.76-12.16,5.36-1.3.58-.21.11-.45.23-.9.46-.64-.21c-.9.1-.92.63-.64,1.38s.82,1.7-.43,2.06c.55.22,1.13.49,1.74.78l2.14-.75.54-.19.26-.1.42-.17,3.05-1.27c1.95-.83,3.72-1.63,5.19-2.36l1-.53,1-.57c1-.5,1.81-1,2.48-1.38,1.3-.52,2-1,2.16-1.31-.3.23-.72.58-.57.77s.3.14.75.13c.22,0,.53,0,.84-.08a6.3,6.3,0,0,0,.77-.08l6.25-3.47-6.53,1.09c2.61-1.44,7.89-3.18,13.47-4.72,2.79-.77,5.65-1.49,8.29-2.09l6.53-1.52c2.09-.48,4-.9,5.67-1.24,3,1,5.08,1.81,6.23,2.34-2.51-.66-4.59-1.17-6.24-1.55-3.43,1.1-5.61,1.91-7.37,2.62l-2.44,1-1.17.47-.31.12-.18.08-.36.17c-2,.89-5,1.8-12.76,3.27.91.33,4.31.46.5,1.76,3.37-1,6.68-1.9,10-2.78l14.07-3.69,16.49,4.75,6.18,1.7,3,.78,1.07.2.85-.1.21,0h.11l.32,0,1.29-.06-8.58,2.37,4.06-2.78,2-1.44,1-.73.51-.37Z"/><path class="cls-4" d="M232.64,11.9l.09-.2C232.59,11.81,232.53,11.9,232.64,11.9Z"/><path class="cls-4" d="M236.09,12l10-2.74-7.9.56-3.89.27-1.06.1c-.15.51-.33,1-.53,1.54a5.66,5.66,0,0,1,1.39-.73,9.82,9.82,0,0,1,2-.24,8.87,8.87,0,0,1,2.14.08Z"/><path class="cls-4" d="M257.82,7.25c-8.14,1.12-7.59,2.86-3.08,3.4-7.46,1.26-4.07-1.67-9.13.5.24,1.27,9.45,0,11.56-.38Z"/><polygon class="cls-4" points="322.35 15.83 319.85 15.32 318.4 15.65 319.8 15.61 327.48 18.94 322.35 15.83"/><path class="cls-4" d="M318.4,15.65l-4.84.11-2.43.06-1.67,0a6,6,0,0,0,.68.76,1.81,1.81,0,0,0,.5.33,6.7,6.7,0,0,0,1,.26Z"/><path class="cls-4" d="M295.88,15.92a5.83,5.83,0,0,0-.58-.08,6.49,6.49,0,0,0-.59-.28l-.17-.07-.09,0h0l-.18-.06-1.58-.48,1.39.45.34.11.1,0,.16.07.66.29Z"/><path class="cls-4" d="M301.13,16.14l-.2-.22-3.12,0-1.54,0-.39,0,.22,0,.1,0h.17L298,16Z"/><path class="cls-4" d="M309.46,15.84c-1-1.2-2.09-2.46-10.21-1.76l1.68,1.84Z"/><polygon class="cls-4" points="529.59 62.42 523.19 61.4 523.8 61.77 530.19 62.78 529.59 62.42"/><path class="cls-4" d="M495.31,51.9a8.37,8.37,0,0,0-1.76.22A3.41,3.41,0,0,0,495.31,51.9Z"/><path class="cls-4" d="M462,54.28c-6.15-4.58,10,3.34-2.16-3.59-.29-.8,1.2-.78,3.47-.11.56.16,1.17.37,1.82.61.34.14.6.23,1,.42l1.73.81c2.33,1.12,4.8,2.42,7.27,3.85-1,.71-10.15-4.46-4.19-.12,7.25,2.33,9.52,4.47,7.48,1.57,1.13.46,2.14.87,2.71,1.05,3.74-1.36,6.69-2.48,9.16-3.46l.46-.18.19-.08,0,0,.09-.12.18-.24.33-.46a10.81,10.81,0,0,1,1.69-2,1.27,1.27,0,0,1,.3-.11l-.3,0a16.91,16.91,0,0,1-2,.74l-9.84,2.91-9.77-5.16L467,48.15l-3.24-1.64a83.5,83.5,0,0,0-12.24-5.12c-.41-.07-.78-.12-1.12-.15s-.73-.09-.8,0a2.85,2.85,0,0,0-.7.58,5.53,5.53,0,0,0-.87,1.61,40,40,0,0,1-1.52,3.83.27.27,0,0,0,0,.12v.06s0,0,0,0l.16.11c.44.31,1,.69,1.76,1.11,1.42.85,3.3,1.87,5.19,2.81C457.35,53.41,461.26,55,462,54.28Z"/><path class="cls-4" d="M479.7,66.67l.66.37c5.74-1.67,9.57-2.82,12.85-3.85l.15,0h0v-.08l0-.15c-.08-.46-.12-.43-.11-.27v0s0,0,0,0l-.4.14-1.65.56-3.47,1.2c-2.39.82-4.88,1.66-7.32,2.42Z"/><path class="cls-4" d="M407.88,32.88c-.76.2-7-1.09-5.87,0l9.36,2.2A6.81,6.81,0,0,1,407.88,32.88Z"/><path class="cls-4" d="M415.91,36.14l-4.54-1.09.81.24,1,.26C414,35.74,414.86,35.94,415.91,36.14Z"/><path class="cls-4" d="M407.51,32.51l.37.37C408,32.83,408,32.74,407.51,32.51Z"/><path class="cls-4" d="M278.25,10.34c.18-.36-.8-.72-2.08-1-.65-.16-1.36-.31-2.06-.44-.23,0-.95-.2-1.5-.32l-1.55-.35,2.43.77,1.59.55A23.15,23.15,0,0,0,278.25,10.34Z"/><path class="cls-4" d="M109.55,1.61,106,3A13.07,13.07,0,0,0,109.55,1.61Z"/><path class="cls-4" d="M61,30.64a.92.92,0,0,1-.46.32s-.07.06-.13.09a.42.42,0,0,0,.13-.08A.86.86,0,0,0,61,30.64Z"/><path class="cls-4" d="M60.41,31.05l-.41.14-.23,0-.34.06c-.47.08-1,.14-1.57.2-1.16.1-2.48.18-3.82.27-2.67.17-5.37.39-6.76,1l.33-.34-5.27,1c2.49-.25,6.36-.56,9.95-1,1.8-.2,3.53-.42,5-.67A12,12,0,0,0,60.41,31.05Z"/></g></g></g></g></svg>