<svg xmlns="http://www.w3.org/2000/svg" viewBox="0 0 753.18 165.01"><defs><style>.cls-1{fill:#5273a4;}</style></defs><g id="Layer_2" data-name="Layer 2"><g id="Background"><polygon class="cls-1" points="12.18 20.51 49.1 17.43 68.59 17.43 98.33 12.31 112.68 4.1 130.12 4.1 143.45 0 187.55 14.36 201.9 13.33 218.31 20.51 253.18 18.46 281.89 26.66 305.48 25.64 328.04 34.87 349.58 25.64 381.37 17.43 405.98 24.61 411.11 24.61 426.49 15.38 441.88 17.43 471.62 32.82 481.87 29.74 526.99 42.05 549.55 44.1 572.12 52.3 614.16 69.73 649.03 91.27 670.57 109.73 694.15 123.06 716.71 130.24 753.18 135.02 753.18 165.01 0 165.01 12.18 20.51"/></g></g></svg>