<svg xmlns="http://www.w3.org/2000/svg" xmlns:xlink="http://www.w3.org/1999/xlink" viewBox="0 0 1298.31 264.42"><defs><style>.cls-1{fill:url(#linear-gradient);}.cls-2{fill:#6885b0;}.cls-3{fill:url(#linear-gradient-2);}</style><linearGradient id="linear-gradient" x1="932.93" y1="136.43" x2="1293.4" y2="136.43" gradientUnits="userSpaceOnUse"><stop offset="0.36" stop-color="#1f3248"/><stop offset="0.47" stop-color="#1f3854"/><stop offset="0.65" stop-color="#1f4062"/><stop offset="0.81" stop-color="#1f4267"/></linearGradient><linearGradient id="linear-gradient-2" x1="274.17" y1="129.19" x2="1557.53" y2="278.35" gradientUnits="userSpaceOnUse"><stop offset="0.36" stop-color="#5273a4"/><stop offset="0.41" stop-color="#5c78a4"/><stop offset="0.56" stop-color="#7382a4"/><stop offset="0.69" stop-color="#8189a4"/><stop offset="0.81" stop-color="#868ba4"/></linearGradient></defs><g id="Layer_2" data-name="Layer 2"><g id="Background"><polygon class="cls-1" points="940.94 86.96 1014.7 67.72 1049.97 67.72 1094.86 61.31 1146.16 74.13 1191.06 61.31 1226.33 51.69 1235.95 46.88 1247.17 43.67 1258.39 35.65 1274.42 32.45 1293.4 24.13 1293.4 248.73 932.93 248.73 940.94 86.96"/><path class="cls-2" d="M940.56,86.94c0-5.44-.85,1.64-1.55,7.72l1,5.59Z"/><path class="cls-2" d="M938.74,116.82l.53,15.11-.08-10.9c1.24-12,1.27,1.67,1.28,6.24C941.14,107.5,939.3,120,938.74,116.82Z"/><path class="cls-2" d="M938.27,146.48c-.57,9.65.4,7,.86,3C938.81,148.78,938.73,142.44,938.27,146.48Z"/><path class="cls-2" d="M1296.87,111.86c-.18,2.7-.3,5.9-.53,5.45C1296.58,120.33,1296.78,121,1296.87,111.86Z"/><path class="cls-2" d="M1296.34,117.31c0-.59-.09-1.21-.14-2,0,.62,0,1.13.06,1.82C1296.29,117.35,1296.31,117.25,1296.34,117.31Z"/><path class="cls-2" d="M1230.2,241.53c-10.87.62-17,.23-27.25.49l-5.74-1c-11.13.34-4.92.87-13,1.41-10.16-.66-31.57-.05-36.39-.1-3.34-.48,4.16-.66,5.79-1-13.06.35-12.13,1.34-28.35,1.35l-.27-.28c-38.75,1.47-87.87,1.08-131,2a8.08,8.08,0,0,1,3.31.48l-32,.24-16.27.14-8.09.09-4.68.1c.15-5.23.3-10.41.45-15.49.17-6.19.32-12.25.43-18.13.21-11.75.27-22.75.09-32.55-.36,9.17-1.09,20.69-1.84,32.85-.37,6.07-.74,12.31-1.1,18.48-.16,3.09-.32,6.16-.47,9.19q-.18,4.23-.35,8.31L939,248l5.41-.16c3.65-.13,7.1-.31,10.28-.54,9.28.73,23.57-.33,27.41.71,35.76.45,50.3-1.39,84.68-1.43,4.93.19,2.53.7,4,1.19l-27.26.49,16.62.41c-7.19.46-24.7.13-26.7,1.06,23.8-1.11,61.87-.24,82.64-1.55-9.76-.24-22,0-33.51-.05-5.09-.32-13-.57-12.45-1.07,33.07-1.44,60.48-.73,94.44-1.19,8.51-.11,20.06,0,21.46.46-5.58.17-1.37.57-6,.81,12-.42,1.21-1.78,18.62-1.58l-2.24,1.71c6.93-1.81,21.3.32,33.69-.74,4.46.68-3.75,1.08-13.28,1.13,10.82.3,11.79-.7,20.43-.67l-8.19,1.46c9.19-1.4,16.48.27,21.69.74.62-.36-4.23-1.47,7.3-1.38,5,.18,2.42.55,3.58.76.64-.36,4.79-1,12.4-1.06,1.4.49-5.06.73-5.55,1.23,5.74,0,10.42-.12,14.58.28a39.18,39.18,0,0,0,4.29-.29c.49-.09.25-.18-.09-.28-.71-.19-1.67-.4,1-.66,1.88.05,3.33.11,4.42.19.26-3.09.67-2.45,1.12-1.13a9.49,9.49,0,0,0,.71,1.76c.24.33.48.2.7-1.18,0,1,.09,2.07.14,3.22l-10.66.38-8.63.29c-5.52.18-10.37.32-13.31.5l22.54-.4c-.17.07-.06.14.24.21s1.07.13,1.89.2l5.87.37a12.82,12.82,0,0,1,3.29.37c-.1.12-1.75.25-6.3.39l7.47.1q0-6.17.09-12.53c0-2.77,0-5.58,0-8.41,0-5.66-.06-11.41-.14-17.11-.16-11.41-.41-22.65-.62-32.67-.2,3-.32,7-.68,6.34-.34-11.14.37-9.9.79-12.18-.4-8.25-1.39-7.33-2.12-12.39.83-17,.32-19.4,1.53-33.88l-1,.89c.8-10.26-.7-11.76-.12-22.82.21-.61.47,3.62.7,7-.33-9.79.83-9,.45-18.58l1.1,7.58c0-7.61-.38-18.78.56-14.85-1.13-13.3-.68-36.62-1.33-53.23l.85,1.1c0-.39-.08-.79-.12-1.23l0-.16v-.26l0-.53c0-.35,0-.72-.05-1.09-.06-1.48-.1-3.08-.14-4.79-.08-3.4-.11-7.21-.13-11.21l-15.07,6.65-5.16,2.33-2.17,1-1,.49-.23.12-.13.06-.24.14-.38.11-.66.18-1.3.37c-.82.24-1.54.47-2.14.7l-1.31-.09-4.85,1.31c-1.68.45-3,.82-5.46,1.44l-1.88,1.48L1254,35.53l-2.74,2.25c-6.4,4.44-4.83,1.74-5.14,2.4l-.44.33-10.91,3.25-9.59,4.83-4.35,1.16-4.42,1.15c-2.88.73-5.6,1.39-8.19,2-2.35,1.83-19.53,6.77-33.14,10.89l-28.92,8-25-6.27L1095,59.15l-22.92,3.47-22.2,3.44-35.3.54L974.32,77.91c-9.22,2.45-21.6,7-33,10.54,14.19-3.41,15.38-4.31,29.25-7.93,10.5-2.43,14.64-2.29,23.8-3.92l-4.8.25c13.89-4.43,9.83-2,20.72-5.89l-.06,1.64a16.77,16.77,0,0,1,2.28-.89c.44-.15.92-.3,1.42-.44l1.17-.34h1.32l1.78,0c1.2,0,2.4.09,3.55.15,2.3.13,4.38.3,5.79.43l3.76-1.08c9.17.59,15.14.84,17.94,1.82l-.9-1a5.8,5.8,0,0,0,.64.08l.45,0,.79,0,3.69-.42,4.5-.58,9.73-1.27c6-.73,9.88-1,5.08.44A72.87,72.87,0,0,1,1084,67.47l1,.85,9.62-1.61.56.13,1.48.37c1,.24,1.83.48,2.62.7a23.49,23.49,0,0,1,3.37,1.16,28.22,28.22,0,0,0-7.62-.76c34.42,8.78,8.07-1.31,38.61,6.23l-.51.53,7.91,1.28,2.12.75,3.11,1,2.85-.62,2-.37c10.32-5.17,42.45-12.06,60.49-18,2.12-.63,4.48-1.19,7.1-1.77l4.14-.9,2.22-.47,1.16-.25,1.55-.36,5-2.27,2.49-1.16,2.25-1.07,1.77-.49,2.21-.65L1240.3,49c.94-.18,2.08-.43,3.41-.72l2.12-.48c.38-.1.78-.19,1.19-.28l1.79-.45,1.79-1.2,1.34-.87,2.81-1.84,3-2,1.55-1,.19-.13.09-.06.19-.1.36-.22.45-.05c.17,0,.21,0,.62-.08l2-.32,4.06-.64,8.67-1.37,1.86-.75,1.37-.52,2.69-1,2.62-1,.27-.1.1,0,.2,0,.37-.06c.93-.17,1.49-.14,1.66.09a4.43,4.43,0,0,1-.83,1.71c.19.07.3.23.37.26s.09,0,.12-.15a1.82,1.82,0,0,1,.5-1.06,6.37,6.37,0,0,1,.16.69l.06.37,0,.19v.09a1.23,1.23,0,0,1,0,.18c.06,2.07.08,3.9.07,5.53,0,3.26-.12,5.76-.29,7.94-.33,4.37-.86,7.49-1.16,13,.5,12.94.38-9.89,1.12-2.93-.74,19.81,1.22,16.09.57,40.57-.56,2.43-.39-6.32-.76-8.85,1,17.23.4,49.32.6,74.94-.27,11.35-.48,24.79-.69,39-.1,7.09-.2,14.38-.31,21.68-.05,3.65-.11,7.31-.16,10.94l0,2.73V241c0,.08,0,0,0,.07v.06l0,.13c0,.17-.07.31-.1.43l-.55-.12,0,0h-.15l-1.55,0-3.07-.07-11.91-.27-.64.35c-14.23-.92-29.67-.06-46.31-.47Z"/><path class="cls-2" d="M1025.77,250.86l2.73.84,15.71-.58C1037.83,250.45,1034.54,251,1025.77,250.86Z"/><polygon class="cls-2" points="1029.15 248.29 1020.93 248.69 1034.23 248.62 1029.15 248.29"/><polygon class="cls-2" points="1228.18 249.62 1226.15 249.49 1196.21 250.21 1228.18 249.62"/><path class="cls-2" d="M1297.72,113c.45,3.42.26,8.34.56,11.91l-.42-13.94Z"/><path class="cls-2" d="M1246.47,34.65c-1,1.31-2.86,2.86-2.4,2.59a.18.18,0,0,1-.07,0l-.21.05-.65.18c-.06,0,.07,0,.42,0,.14,0,.53-.08.48,0a1.08,1.08,0,0,0,.21.14.88.88,0,0,0,.27.11l1-.77.83-.67a10.58,10.58,0,0,0,1-.86c.37-.39.27-.45,0-.42C1246.79,35.07,1245.65,35.55,1246.47,34.65Z"/><path class="cls-2" d="M1220.74,47.48l2.24-.61,1-.29.24-.08.12,0,.1-.07,0,0,.12-.06.7-.39,1.3-.75,2.28-1.38c-1.39.52-2.45,1-3.29,1.36-.42.2-.79.38-1.12.56l-.23.12,0,0-.07.08L1224,46l0,0-.23.1-.88.4C1222.29,46.85,1221.63,47.15,1220.74,47.48Z"/><polygon class="cls-3" points="1.36 37.81 192.61 29.24 223.07 29.24 269.57 21.22 292.01 8.4 319.27 8.4 340.11 1.98 409.05 24.43 431.5 22.83 457.15 34.05 511.66 30.84 556.55 43.67 593.43 42.07 628.7 56.5 662.37 42.07 712.07 29.24 750.55 40.46 758.57 40.46 782.62 26.03 806.67 29.24 853.16 53.29 869.19 48.48 939.74 67.72 975.01 70.92 1010.28 83.75 1076.02 111.01 1130.53 144.68 1164.2 173.53 1201.07 194.38 1236.34 205.6 1293.36 213.07 1293.36 259.96 3.37 259.96 1.36 37.81"/><path class="cls-2" d="M1,37.81C.54,23.56.25,42.24,0,58.27L1.37,72.78Z"/><path class="cls-2" d="M1.35,116.39,3,155.91,2.1,127.37c.37-31.71,1.4,4.19,1.74,16.16C3.06,91.63,2.15,124.67,1.35,116.39Z"/><path class="cls-2" d="M3.05,194.2c.13,25.36.91,18.26,1.07,7.61C3.75,200.14,3.21,183.54,3.05,194.2Z"/><path class="cls-2" d="M1140.08,148.3c5.28,4.76,11.57,10.3,10.52,9.71C1156.79,163,1158.19,163.94,1140.08,148.3Z"/><path class="cls-2" d="M1150.6,158l-4-3.23c1.23,1,2.26,1.9,3.66,3.06C1150.66,158.13,1150.47,157.93,1150.6,158Z"/><path class="cls-2" d="M986.69,252.75c-28.54.63-44.56.23-71.54.5l-15.06-1c-29.23.34-12.91.87-34.14,1.41-26.67-.66-82.87,0-95.51-.1-8.77-.48,10.92-.66,15.19-.95-34.26.35-31.84,1.34-74.42,1.35l-.71-.28c-101.71,1.47-230.63,1.08-343.76,2a51.74,51.74,0,0,1,8.7.48c-119.42.38-257.23.43-351.64,2.88,64.54-.27,173.87,1.36,239.67-.46,24.34.73,61.86-.34,72,.71,93.85.45,132-1.39,222.26-1.43,12.93.19,6.65.7,10.39,1.19l-71.54.49,43.61.41c-18.87.46-64.84.13-70.07,1.06,62.47-1.11,162.4-.25,216.92-1.56-25.64-.23-57.64.05-88,0-13.34-.33-34-.57-32.66-1.07,86.79-1.44,158.75-.73,247.89-1.19,22.34-.11,52.66,0,56.34.46-14.66.17-3.59.57-15.63.81,31.6-.42,3.17-1.78,48.87-1.58L898,258.53c18.17-1.81,55.9.31,88.43-.74,11.7.68-9.87,1.08-34.88,1.13,28.41.3,31-.7,53.63-.67l-21.49,1.46c24.11-1.4,43.26.27,56.92.74,1.63-.36-11.09-1.47,19.18-1.39,13,.19,6.34.56,9.4.76,1.66-.36,12.56-1,32.55-1.05,3.65.49-13.28.73-14.58,1.23,15.06,0,27.35-.12,38.28.28,26.66-.4-1.73-.7,14.57-1.23,40.93.35,4.08,1.69,19.16,2.73-30.82.69-70.5.91-87,1.3l59.16-.4c-3.58.57,40,1,8.78,1.54,23.92.21,49.87.24,76,.16l81.22-.46c-.1-13-.19-25.47-.27-37.36-.2,8-.32,18.31-.68,16.64-.15-12.84-.1-19.41.05-23.26.14-5.3.37-7.09.57-10.06-.71-.15-1.53-.31-2.58-.5-3.93-.47-7.88-.93-9.42-1.06-2-.2-3.75-.35-5.26-.47-3-.23-5.17-.33-7.06-.38-3.78-.1-6.53,0-13.16-.53l-22.72-3.35-34.72-11.5-10.72-6.37-13.76-8.3,1.56,2c-2.74-1.66-5.21-3.13-7.48-4.45l-3.26-1.89-2.8-1.59-3.71-3.12-3.63-3-7.18-5.86c-2.49-2-5.16-4.25-8.23-6.88l-4.95-4.27-5.79-5.11c-.18-.19-.17-.21,0-.09l.37.26.49.36c.77.58,2,1.52,3.4,2.68l10.23,8.3c-3.39-2.83-6.12-5.15-8.42-7.15l-3.15-2.76-2.83-2.51-10.28-6.79c-3.64-2.36-8.14-5.19-15.22-9.41l17.51,9.51c-17-10.47-42.13-25.57-32.87-21l-6.2-3.59-7.07-4.17-11.55-4.59-12-4.84-25.61-10.43c-8.76-3.56-17.58-7.39-26.56-10.42l-26.52-9.45-16.48-1.31,2.95-.59c-2.76-.13-6.08-.33-9.83-.6l-12-.94-18-4.84-19.21-5.23-18.1-4.84-8-2.08-8-2-2.77.9-1.83.62-3,1.09-3.27.61-3,1-1.71.6-1.21-.56-.8-.38-1.08-.53L846.08,46l-8.66-4.2-17.32-8.4c-3.81-2-6.52-3.48-8.42-4.58-1-.55-1.71-1-2.3-1.38l-1-.62-.8-.52c-2.9-.73-.21-.72-1.58-.69l-24.11-3.11L757.65,37.17H751l-19.75-5.82-19.14-5.74L702.44,28c-1.92.83-7,2.42-14.17,4.48l-12.12,3.41-14.54,4-32.93,14.4L617.9,49.89l-24.1-10-37,1.52L511.91,28.58,457.55,31.8,431.88,20.62l-22.56,1.66L340.13,0,319,6.6l-27.43.13L269,19.76,223,28l-16.72.1-8.37.06c-2.79,0-5.57,0-8.34.19l-33,1.71L92,33.41c-25,1.17-59.39,4-90.59,5.94,38.25-1.43,41.84-2.17,79.44-3.86,28.27-1,38.71-.24,63-.6l-12.38-.42c38.15-2.49,26.31-.66,56.45-3l-1.21,1.62c1.93-.21,4.39-.5,7.18-.57s5.92-.08,9.2-.07,6.71,0,10.09.09l10.13.19,6.84-1,5.25-.73L245,28.27l25.72-3.79,3.8-2,3-1.6,5.31-2.73c3.22-1.63,5.8-2.84,7.8-3.66l-2.54.31c.52-.25,1.28-.64,2.25-1.16L293,12.18l1.64,0,2.95,0,6.63,0,15.62.06,11.51-3.49,5.16-1.55L339,6.57l1.11-.32,6.77,2.35c2.18.77,3.81,1.37,4.7,1.76,1.78.76.61.63-5-.84,6.7,1.94,12.92,3.43,27.42,8.27l1.91,1.66,16.34,5.14,16.22,5.2,7.64-.53,5.66-.35c3.41-.18,6-.28,7.59-.25-5.94.54-9.9,1-12.87,1.39-1.48.2-2.72.39-3.83.58L411,30.9l-2.78.36h0l13.77-1,5.3-.39,2.42-.19.39,0h.08l.15,0,8.45,3.56c2.86,1.2,5.28,2.19,7.34,3s3.76,1.48,5.18,2l2.08.77,2.71,1,2.92-.35.3,0,.19,0,.32-.07.6-.13c.75-.18,1.33-.35,1.91-.52a32.33,32.33,0,0,1,4.82-1.07c5-.78,15.38-1.76,41.88-3.35l-.92.7L510,35l.76-.08.46-.06.52.11.92.23,2.08.52,4.16,1.05,8.32,2.09,20.9,6.81,3.46.75,1.91.45,1.09.26,1.52.39,8.36-.61,8.81-.55,9.75-.52,9.84-.47,35.87,14.83,34.8-14.71,11.86-3.05,11.65-3c7.57-2,14.71-3.94,21.19-5.77l3.79-1,7.51,2.27,9.11,2.83L750,44.39l9.7.13,12.54-7.36,11.29-6.74.78.1a8.75,8.75,0,0,0-.93-.83L783,29.6l.36-.19,1.29.24,2.29.38,5.62.88,13,2L852.7,58.21l9.84-2.81,4-1.14,1.93-.54.76-.19,19.91,5.86,19.55,5.82c6.1,1.84,11.71,3.57,16.65,5.12l6.85,2.19,3,1,1.39.47.66.23,1.23.38,1.36.17.72.12,1.34.22c14.1.9,13.37.78,9.19.35-2.08-.22-5-.51-7.41-.8-1.19-.14-2.24-.28-3-.41a6.38,6.38,0,0,1-.84-.18c-.26-.06-.46-.12-.37-.16l10.63.79,9.21.72,8.06.68,6.31.57,7.08,2.65,6.65,2.56c4.12,1.61,7.72,3.06,11.22,4.49l5.23,2.15c1.75.74,3.57,1.4,5.4,2.29,3.7,1.69,7.74,3.52,12.56,5.63,31.48,12.52-23.8-10.28-6.7-4,16.29,7,26.05,11,34.19,14.21l24.1,9.35,6.47,3.89,8.17,5c6,3.68,13,8.08,21.61,13.51,5.13,3.82-14.32-8.39-20.15-11.56,5.27,3.1,11.13,6.59,17.48,10.41l20,12.16,33.81,28.86,37.87,21.44,36.33,11.58,29,3.76,13.41,1.87,7.27,1,1.25.18.45.07.9.14c0,.42,0,.84-.05,1.27v1.79c0,.94,0,1.88,0,2.82,0,3.77-.06,7.6-.08,11.51s0,7.87-.08,11.91c0,1,0,2,0,3v1.85c0,.39,0,.78,0,1.17l-96.48-.57-102-.77-1.67.36c-37.36-.92-77.87-.06-121.56-.47Z"/><path class="cls-2" d="M450.08,262.09l7.15.84,41.23-.58C481.73,261.67,473.09,262.26,450.08,262.09Z"/><polygon class="cls-2" points="458.94 259.52 437.37 259.92 472.27 259.85 458.94 259.52"/><polygon class="cls-2" points="981.38 260.85 976.04 260.71 897.46 261.43 981.38 260.85"/><path class="cls-2" d="M1142.83,149.53c3.56,2.76,7.76,6.28,12,9.83l6.27,5.28c1,.86,2,1.69,3,2.5l2.76,2.24-28-23.41Z"/><path class="cls-2" d="M817.76,26.26c-1.39-.54-2.76-1.1-4.07-1.67l-1.93-.85-.47-.21-.76-.37-1.69-.83-4.66-.52-2.83-.35L798.19,21c-.38-.05,0,0,1.35.29l2.8.57,2,.42,1.17.24.63.13,1.17.21,1.29.16,4.07,2L815,26.24c1.34.65,2.26,1.07,2.85,1.32,1.18.49,1.08.32.59-.08C817.47,26.7,814.89,25.06,817.76,26.26Z"/><path class="cls-2" d="M739.07,31.35l7.16,2.09,3.09.87,1.43.4.32.09.09,0,.19,0,.31,0,1.07,0,2,0,1,0c.29,0,.77,0,.74,0l.47,0,.26-.2.12-.1.1-.07.26-.16,2-1.32-2.28,1.26a1.27,1.27,0,0,1-.26.12l-.12,0-.21.09-.27,0h-.44l-2.11,0h-2.62l-.19,0-.75-.19-1.61-.4-3-.68C744,32.54,741.94,32.09,739.07,31.35Z"/></g></g></svg>