<svg xmlns="http://www.w3.org/2000/svg" viewBox="0 0 386.09 752.58"><defs><style>.cls-1{fill:#e57c52;}.cls-2{fill:#d17652;}</style></defs><g id="Layer_2" data-name="Layer 2"><g id="Background"><path class="cls-1" d="M205.79,2c-2.72-.17,123.6,21,149.47,54.86a78.24,78.24,0,0,1,5.37,7.84c3,5.41-.29,10.45-.77,11.76C354,92.39,287,123.48,238,169.53c-51.34,48.19-89.68,75.44-193.16,239C7.55,467.52,8.16,479,7.27,520.26,4.5,648.33,100.5,733.8,118.36,745.9c36,1,48-1,98-12,25.92-5.71-33.93-97.63-51-120-29-38-42.87-65.57-51.55-96.58C96,453.52,130.18,371.7,221.89,246.92c71.28-97,86.61-101.88,96.58-108.74,22.34-15.38,30.61-21,49.06-37.23,10.41-9.18,17.07-17.19,16.86-26.45-.07-2.87-.93-12.19-16.1-23.52C326,19.39,209.45,2.22,205.79,2Z"/><path class="cls-2" d="M205.77,2.38c-5.16-.16-4.37.08-.85.5,1.66.18,4.09.7,6.77,1.19l8.48,1.67c3.51.17,7,.38,10.55.59C222.43,4.88,214.07,3.42,205.77,2.38Z"/><path class="cls-2" d="M261.54,13q14.1,2.46,28.1,5.49c-6.71-1.58-13.45-3-20.2-4.38-22.25-5.66,3.29-.77,11.76,1.2-9.15-2.19-14.6-3.28-17.7-3.79s-3.85-.48-3.64-.21C260.29,11.81,264.55,13.26,261.54,13Z"/><path class="cls-2" d="M316.16,26.54c4.36,1.42,7.3,2.48,9.2,3s2.71.81,2.77.71-2.79-1.58-6.42-2.95C320.46,27.22,308.9,23.92,316.16,26.54Z"/><path class="cls-2" d="M26.62,613.35c.4,1.2.77,2.48,1.21,3.66s.84,2.32,1.19,3.27c.68,1.91,1.08,3.14.82,2.79,1.15,2.6,2,4.12,1.59,3.06-.2-.53-.61-1.74-1.41-3.8-.4-1-.89-2.27-1.46-3.75l-.95-2.41Z"/><path class="cls-2" d="M29.84,623.07l-1.5-3.35,1.33,3.15C29.83,623.17,29.77,623,29.84,623.07Z"/><path class="cls-2" d="M183.68,627.38c-3-4.26-5.76-8-8.35-11.57-1.3-1.77-2.56-3.47-3.84-5.15s-2.42-3.2-3.62-4.77c-4.7-6.25-9.18-12.48-14.6-20.38-.86-1.57-1.68-3.16-2.49-4.76s-1.65-3.17-2.42-4.77l-5.54-8.74c-1.13-1.72-1.69-2.51-2.16-3.14s-.88-1.1-1.64-2.22c-.38-.57-.86-1.28-1.45-2.28s-1.31-2.26-2.22-3.9A278.78,278.78,0,0,1,121.79,521q-.72-2.4-1.42-4.73c-.46-1.55-.79-3-1.19-4.48-.18-.72-.38-1.44-.55-2.14s-.28-1.41-.43-2.1c-.27-1.37-.57-2.69-.79-3.95l-.54-3.58c-.18-1.12-.34-2.16-.42-3.12l-.43-4.54c0-1.52.13-1.81.23-1.35s.26,1.68.49,3.15.38,3.25.7,4.79.55,2.91.73,3.62c-.24-1.44-.46-2.78-.66-4s-.3-2.46-.45-3.57l-.39-3.16-.23-2.84c-.37-3.59-.4-6.52-.55-9.63,0-3.11,0-6.41.34-10.78a141.62,141.62,0,0,1,2.44-17.13l.38-.43c3.18-17.55,9.34-35.92,17.24-54.37,3.93-9.24,8.41-18.47,13.17-27.71,2.35-4.63,4.88-9.22,7.39-13.84s5.13-9.22,7.85-13.78c10.7-18.33,22.4-36.42,34.37-54.06s24.26-34.82,36.32-51.3a27.16,27.16,0,0,1-4.13,4.75c12.78-17.36,26.29-35.22,40.55-52.57,7.1-8.7,14.46-17.21,22.12-25.28,1.89-2.05,3.89-4,5.84-5.91,1-1,2-1.89,3-2.83s2-1.87,3-2.74q3.07-2.7,6.31-5.08c2.14-1.62,4.4-3,6.76-4.61,1.22-.81,2.34-1.6,3.47-2.39l3.38-2.37,6.72-4.75c4.46-3.16,8.86-6.35,13.16-9.62,8.6-6.53,16.56-13.48,24.08-20.36A83.86,83.86,0,0,0,380.18,91a35.18,35.18,0,0,0,3.93-6.64A22.39,22.39,0,0,0,386,76.83,19.81,19.81,0,0,0,386,73a19.46,19.46,0,0,0-.87-3.69,26.68,26.68,0,0,0-3.28-6.43c-.64-1-1.38-1.88-2.09-2.78s-1.48-1.74-2.3-2.52l-1.19-1.19L375,55.26c-.81-.76-1.67-1.44-2.51-2.11A48.42,48.42,0,0,1,379,59.72a30.62,30.62,0,0,1,5.11,8.66,19,19,0,0,1,1.15,5.24,22.79,22.79,0,0,1,0,2.74,19.59,19.59,0,0,1-.42,2.73,26.64,26.64,0,0,1-4.82,10c-4.48,6.06-10.41,11-16.27,16.08s-12,10-18.39,14.74-12.86,9.2-19.26,13.62c-3.23,2.19-6.34,4.43-9.57,6.53a95.94,95.94,0,0,0-9.16,6.51A146.52,146.52,0,0,0,292,161.29l-3.39,3.7c-1.1,1.23-2.15,2.48-3.19,3.69l-3.06,3.58-2.86,3.54c-1.51,1.6-3.09,3.33-4.72,5.14l-4.87,5.74c-3.33,3.91-6.57,8.06-9.66,11.92s-5.93,7.5-8.32,10.52a86.44,86.44,0,0,1-5.72,6.62c-20.77,26.84-34.51,46.39-47.61,65.94-6.49,9.81-12.87,19.59-19.66,30.46S164.84,334.9,156.78,349c-2.41,4-3.14,5-3.5,5.19s-.35-.3-1.22.76c8.2-15.16,17.07-30,26.29-44.52-2.93,4.36-5.77,8.79-8.63,13.19s-5.66,8.87-8.37,13.38c3.25-6,9.41-16,15-24.89,2.81-4.44,5.45-8.61,7.51-11.88a55.7,55.7,0,0,0,3.82-6.6c-12.16,19.08-28,43.9-41.37,69.25-6.71,12.67-12.82,25.46-17.75,37.53a246.8,246.8,0,0,0-11.08,32.95c2.66-8.86,6-18.7,10.1-28.75s8.74-20.3,13.71-30.07c1.14-2.13,2.44-4.54,3.81-6.92s2.66-4.79,3.9-6.86c2.46-4.14,4.3-7.1,4.28-6.55C146,368.09,139.4,381.55,133.6,395A318.81,318.81,0,0,0,119,435.63a206.07,206.07,0,0,0-4.72,21A158,158,0,0,0,112,478.25a132.44,132.44,0,0,0,1.13,22.24c.5,3.75,1.23,7.49,2.11,11.24.49,1.86.93,3.73,1.48,5.62s1.11,3.79,1.72,5.69c2.39,7.62,5.69,16.43,8.75,23.53,1.5,3.57,3,6.7,4,9.13s1.89,4.09,2.08,4.73c-2.48-4.63-2.86-5.16-3.17-5.46s-.54-.39-2.5-4.25c1.27,2.54,2.25,4.47,3.06,5.95s1.45,2.48,1.93,3.23a19.08,19.08,0,0,0,2,2.67,31.76,31.76,0,0,1,2.88,4.34c1.6,2.6,4,6.81,8.33,13.76-1.25-.86-2.46-1.76-3.68-2.67,4.19,5.11,9.58,13.56,16.1,22.88,3.24,4.68,6.77,9.47,10.43,14.41s7.14,10,10.65,14.72c2.07,3.72.86,2.37-2.16-1.77s-7.92-11-13.46-18.2L176.23,627c3,4.1,5.79,7.76,10.21,14.7q-4.8-6.18-9.76-12.22c10.92,13.72,16.7,26.51,21.23,35.28.45.42-.24-1.5.32-1.15s2.46,2.93,7.65,12.6c4.24,8.41,1.64,4.32,2.49,6.38a41.78,41.78,0,0,1,3.62,5.81,123,123,0,0,1,7.12,15.25c.24,1.34-.76-.87-2-3.44s-2.78-5.52-3.21-5.84a143.52,143.52,0,0,1,5.6,13.87,51.42,51.42,0,0,1,2.75,12.37,20.42,20.42,0,0,1-.13,8c-.2,1,0,.63.28.05s.54-1.44.66-1.38.06.28,0,.92c-.06.32-.16.73-.3,1.26a9.49,9.49,0,0,1-.86,1.87,7.79,7.79,0,0,1-4.33,3.15l-1.1.29-1,.18-1.7.32c-2.09.38-3.51.61-4.42.71-1.84.2-1.67-.07-1-.49,1.46-.84,5.18-2.26-.26-1.6l4.12-1,2.11-.53,1.06-.26c.17,0,.37-.08.52-.13l.39-.13A5.31,5.31,0,0,0,219,730a6.81,6.81,0,0,0,1.25-3.1,23,23,0,0,0-.41-8.08,63.46,63.46,0,0,0-2.23-8.14,144.06,144.06,0,0,0-5.91-14.38c-2-4.22-3.84-7.76-5.25-10.36a209,209,0,0,1,8.83,19.15,95.42,95.42,0,0,1,3.31,9.83,35.36,35.36,0,0,1,1.45,9.76c-.14-.59-.21.79-.71,2.41a5.5,5.5,0,0,1-1.11,2,3.82,3.82,0,0,1-1.82,1.13,3.94,3.94,0,0,1-.47.1l-.22,0-.28,0-1.26.18c-.7.09-1.07.11-1,0a12.13,12.13,0,0,1,2-.63,3.9,3.9,0,0,0,.66-.23,3.09,3.09,0,0,0,.59-.27,3.55,3.55,0,0,0,1.16-1.16,3.25,3.25,0,0,1-1.39,1.1,2.06,2.06,0,0,1-.44.14l-.22.06-.12,0-.25.05-2,.42-8.09,1.7-16.56,3.45a342.15,342.15,0,0,1-33.91,5.54q-8.52.85-17.05,1c-2.85.06-5.68.11-8.51.1h-4.22l-4.11-.05h-1c-.29-.16-.56-.37-.84-.55l-.23-.17-.39-.28-.8-.6c-.54-.4-1.07-.8-1.59-1.22q-3.18-2.48-6.19-5.09c-4-3.45-7.85-7-11.46-10.52,1.93,2.11,4.26,4.41,5.94,6.13s2.75,2.84,2.19,2.57c-2-1.74-3.63-3.25-5-4.6s-2.59-2.49-3.56-3.49c-2-2-3.18-3.33-4-4.33-1.64-2-1.8-2.52-3.09-4.24-1.35-1.39-2.52-2.57-3.55-3.6l-2.66-2.68c-1.55-1.52-2.72-2.54-3.72-3.46a76.9,76.9,0,0,1-6.92-6.51c-9.71-12.81-14.69-20.5-19.25-27.73a219.81,219.81,0,0,1-14.3-26.49l-.1,1.94-1.49-3.1-1.29-2.83c-.83-1.78-1.6-3.39-2.33-4.87l-3.88-8.11a150,150,0,0,1-8.11-20.51c-.09-.58.6,1,1.61,3.44s2.29,5.81,3.65,8.71c-.45-1.06-.86-2.05-1.25-3s-.68-1.82-1-2.65c-.59-1.65-1.1-3.09-1.53-4.39-.91-2.58-1.42-4.63-2-6.65s-1.09-4-1.81-6.6-1.54-5.74-2.79-10c.77,2.25,1.6,4.48,2.4,6.71l1.2,3.34,1.33,3.3c-1.16-3.37-2.13-7.22-3.2-10.91-.55-1.84-1-3.68-1.37-5.42l-1.12-4.87a53.85,53.85,0,0,1-1.15-6.44c-.11-1.14.06-1.1.62.65a184.71,184.71,0,0,1-3.79-21.27c-.43-4-1-8.18-1.14-12.49q-.18-3.22-.38-6.53c-.06-2.2-.05-4.42-.07-6.66s-.07-4.46,0-6.75.08-4.58.11-6.87c.09-4.56.2-9.09.42-13.49a122.5,122.5,0,0,1,3.4-24.49l.31,2.16a58.72,58.72,0,0,1,1.68-6.78c.41-1.28.75-2.65,1.3-4s1.07-2.84,1.64-4.34a187.61,187.61,0,0,1,9.11-18.89c6.93-12.78,14.63-25,17.82-31.28l1.57-1.84,16.53-27.93c8.16-12.21,6.5-7.33,6.85-8.52C89.46,345.64,104,325,116.36,308.4A69.41,69.41,0,0,1,121,301c2.43-3.58,5.51-8.22,9.27-13.21,7.36-10.08,16.65-22.11,25.31-32.42,10.43-12.41,21.53-24.43,33.1-36.11s23.73-22.93,36-34.21l18.31-17c6.1-5.58,12.44-10.93,18.92-16.09,13-10.34,26.52-19.94,40.21-29.23,6.85-4.64,13.74-9.2,20.61-13.78s13.7-9.17,20.37-14c3.32-2.44,6.61-4.93,9.74-7.66.79-.68,1.56-1.38,2.31-2.11s1.5-1.48,2.21-2.26A19.24,19.24,0,0,0,361,77.47l.6-1.34c.22-.47.44-1,.63-1.48a15.63,15.63,0,0,0,.89-3.22,11.18,11.18,0,0,0-1-6.71A25,25,0,0,0,360.52,62c-.57-.86-1.16-1.7-1.75-2.53-1.21-1.65-2.39-3.27-3.77-4.87a53.93,53.93,0,0,0-9.22-8.1,102.1,102.1,0,0,0-10.28-6.33,192.77,192.77,0,0,0-21.63-9.82,422.58,422.58,0,0,0-44.08-14c-8.74-2.38-19.26-4.71-30.39-6.86-5.56-1.07-11.27-2.1-17-3.09l-8.56-1.44-4.24-.71-2.11-.35-1.06-.17-.53-.1-.29,0-.17,0a.81.81,0,0,1-.19,0c-.12-.06.13.1-.41-.21-1,.29,1-4.79.73-2.79a.88.88,0,0,1,.22,0h.08c-.11,0,0-.06-.56.06-1.71,4.89.48,2-.1,2.94l.12,0,.16,0,.19,0,.33.08.63.13,1.22.25,2.34.47,4.3.87,7.38,1.5,11.83,2.43c7.35,1.54,14.66,3,27.82,6.45,9.84,2.74,16.44,5,22.64,7.39s12,4.72,20.07,8.05c-2.66-1.32-5.35-2.6-8.05-3.86,6.57,2,10.91,3.6,14.08,4.82s5.16,2.12,7,3l5.9,2.67c2.43,1.1,5.67,2.48,10.51,4.84l-1.53,1a58.48,58.48,0,0,1,14.16,8.87,35.91,35.91,0,0,1,6.17,6.6,68.06,68.06,0,0,1,4,6.21c.37.41.72.83,1,1.21a8.75,8.75,0,0,1,.71,1,6.29,6.29,0,0,1,.86,2.35,9.2,9.2,0,0,1-.54,2.38,20.92,20.92,0,0,1-1.11,2.42l-.19.39-.13.28a1,1,0,0,1-.1.22l-.25.45a5.07,5.07,0,0,1-.55.92l-.65.92-.8.9A48.75,48.75,0,0,1,348,84.61a63.38,63.38,0,0,1-10.39,6.49l1.94-.16c-1.4.82-5.48,3.61-10.68,7s-11.5,7.53-17.1,11.15c-11.22,7.24-19.62,12.66-11.48,6.17-4.08,3-7.66,6-16.86,12.25l-1.95.17c-6.5,4.73-13.31,9.86-18.93,14.19s-10.07,7.86-12.05,9.13a139.76,139.76,0,0,0,10.74-10c-6.79,5.2-11.92,9.45-15.83,12.9-2,1.71-3.62,3.23-5,4.56s-2.59,2.46-3.56,3.47c-3.9,4-4.68,5.29-5.36,6.49-1.32,2.39-1.89,4.11-23.84,24.44l.08-.94c-3.54,3.64-7.09,7.27-10.59,10.95-4,3.54-8.06,7-12,10.64-6.93,8.38-21.46,23.66-36.2,41.18s-29.79,37.1-40,52.06c-4,5.85-9,12.42-14.91,20.29-2.91,4-6,8.29-9.34,13s-6.94,9.81-10.59,15.49l1.79-.92c-3.21,4.4-8.44,11.92-14.68,21L40.86,406c-7.07,10.69-14,21.46-19.6,30.9-1.37,2.38-2.77,4.6-4,6.8l-3.41,6.12c-1,1.94-1.93,3.71-2.78,5.28s-1.51,3-2.16,4.21c-6.49,20.66.81-2.17,1.57-1.3a128.64,128.64,0,0,0-6.68,24.18l-.72,4.56c-.2,1.43-.33,2.78-.5,4.07-.35,2.57-.52,4.84-.76,7-.41,4.24-.75,7.86-1.06,11.7-.16,1.93-.31,3.92-.45,6.07S0,520,0,522.76c.27,12.64.36,7.8.47,1.51,0-1.56,0-3.24.11-4.72s.14-2.77.21-3.68c.14-1.82.27-2,.39,1.25-.05,1.19-.1,2.3-.13,3.42l0,3.23c0,2.08,0,4,0,5.8v2.59c0,.84.07,1.64.11,2.42.09,1.56.17,3,.25,4.38.25,5.48.92,9.64,1.48,14.08.16,1.11.27,2.24.48,3.41s.4,2.36.62,3.63.43,2.61.67,4,.44,2.95.79,4.56.65,3.36,1,5.23.68,3.9,1.21,6c1,4.31,2,9.29,3.59,15,.36,2.35-.55-.58-1.75-4.68s-2.34-9.47-3.09-11.82c2.11,8.12,4.52,18,8.25,28.71a307.87,307.87,0,0,0,33.12,68.66,319.41,319.41,0,0,0,22.93,31.32,296.77,296.77,0,0,0,32.13,34.21c1.57,1.44,3.22,2.83,4.88,4.24l2.55,2.09,1.33,1,.67.52c.2.15.48.37.91.68,1.61,1,3,2.74,5.08,2.32l4.3.12c2.17.08,4.36.11,6.56.16a252.92,252.92,0,0,0,27.08-.81c9.17-.78,18.27-2.27,27.2-3.89s17.75-3.46,26.45-5.27l6.5-1.36,1.62-.34a16.85,16.85,0,0,0,3-1,13.92,13.92,0,0,0,5.06-3.65,15.25,15.25,0,0,0,1.82-2.56,17.73,17.73,0,0,0,1.21-2.79,20.8,20.8,0,0,0,1-4.91,35.63,35.63,0,0,0-.39-8.15,62.68,62.68,0,0,0-1.52-7.06q-.92-3.37-2-6.53c-1.43-4.23-3.06-8.22-4.72-12.1l-.84-1c-5.37-12.9-12.32-25.45-20-38.18s-16.09-25.55-25.31-38.8C178.11,618.55,180.92,623,183.68,627.38Z"/><path class="cls-2" d="M194.92,281.07l-3.62,3.8c-5.5,8.32-10.83,16.75-16.09,25.21,3.6-4.89,6.1-8.75,9-13.05l4.63-7C190.54,287.39,192.53,284.48,194.92,281.07Z"/><path class="cls-2" d="M193.41,287.82l4.24-6.55,4.31-6.51c-2.4,3.45-4.81,6.9-7.17,10.39s-4.75,7-7.06,10.47Q190.54,291.69,193.41,287.82Z"/><path class="cls-2" d="M174.81,628.7l-2.07-3.25c-2.74-3.86-5.53-7.68-8.43-11.4s-5.81-7.51-8.63-11.33c-5.64-7.64-11.07-15.45-16.15-23.51,5.4,8.62,11.2,17,17.24,25.11,3,4.1,6.15,8.09,9.19,12.1S171.93,624.56,174.81,628.7Z"/><path class="cls-2" d="M28.12,615c1.33,2.92,2.9,6.49,4.39,10.12,1.66,3.57,3.23,7.21,4.8,10.14C33.54,627.44,30,619.52,27,611.38Z"/><path class="cls-2" d="M71.79,380.93c4.25-9.2,11-16.64,2.51-6.28C65.81,388,73.86,376.87,71.79,380.93Z"/><path class="cls-2" d="M103.09,330.39c-5.25,7.43-7.84,11.78-10.48,16C100,336.88,99.47,336.05,103.09,330.39Z"/></g></g></svg>