<svg xmlns="http://www.w3.org/2000/svg" xmlns:xlink="http://www.w3.org/1999/xlink" viewBox="0 0 281 265.97"><defs><style>.cls-1{isolation:isolate;}.cls-2{fill:#584144;}.cls-3{opacity:0.23;mix-blend-mode:overlay;}.cls-4{fill:url(#linear-gradient);}.cls-5{fill:#d17652;}</style><linearGradient id="linear-gradient" x1="7.39" y1="135.06" x2="271.4" y2="135.06" gradientUnits="userSpaceOnUse"><stop offset="0" stop-color="#fff"/><stop offset="0.03" stop-color="#d0d0d0"/><stop offset="0.07" stop-color="#9a9a9a"/><stop offset="0.1" stop-color="#6b6b6b"/><stop offset="0.14" stop-color="#444"/><stop offset="0.18" stop-color="#262626"/><stop offset="0.21" stop-color="#111"/><stop offset="0.25" stop-color="#040404"/><stop offset="0.28"/></linearGradient></defs><g class="cls-1"><g id="Layer_2" data-name="Layer 2"><g id="Background"><polygon class="cls-2" points="272.52 253.87 251.61 95.45 203.21 64.64 195.51 39.34 78.89 7.44 15.11 24.89 7.38 210.96 41.49 254.97 81.09 250.56 193.31 254.97 224.11 263.77 272.52 253.87"/><g class="cls-3"><polygon class="cls-4" points="271.4 252.83 250.58 95.08 202.38 64.4 194.71 39.21 78.59 7.44 15.07 24.81 7.38 210.1 41.35 253.92 80.78 249.54 192.52 253.92 223.2 262.69 271.4 252.83"/><path class="cls-5" d="M249.11,257.29c.46,0,1.15-.11,1.71-.15C249.25,257.53,248.47,257.67,249.11,257.29Z"/><path class="cls-5" d="M271.57,253.64c-5.75,1.2-14.87,3.07-20.75,3.5C255.88,255.88,269.39,251.88,271.57,253.64Z"/><path class="cls-5" d="M247.39,254.07l7.28-.83C250.6,254.67,251.17,253.51,247.39,254.07Z"/><polygon class="cls-5" points="250.4 255.52 250.18 256.37 246.21 256.39 250.4 255.52"/><path class="cls-5" d="M5.49,103.45c-.38.75-.77,1.2-1.24.82Z"/><path class="cls-5" d="M9.78,86.7c.19-1.52.29-2.58.36-3.48A18,18,0,0,1,9.78,86.7Z"/><path class="cls-5" d="M5.18,118.82v-3A16.82,16.82,0,0,1,5.18,118.82Z"/><path class="cls-5" d="M82.19,252.55c2.77.68,5.4,1.31,7.39,1.74C84.12,254.69,83.71,253.37,82.19,252.55Z"/><path class="cls-5" d="M32.57,29.2l.53-.81C33.94,28.46,34.39,28.63,32.57,29.2Z"/><path class="cls-5" d="M20.56,83.08a.75.75,0,0,1-.82-.43c.06-.29.11-.59.19-.87Z"/><path class="cls-5" d="M6,130.78A1.62,1.62,0,0,1,6,131l-.5,2.42A4,4,0,0,1,6,130.78Z"/><path class="cls-5" d="M55.71,23.77a12.71,12.71,0,0,1,3.22.57C56.64,24.66,55.45,24.35,55.71,23.77Z"/><path class="cls-5" d="M10.16,82.8s0,0,0,0l0,.45C10.14,83.06,10.16,83,10.16,82.8Z"/><path class="cls-5" d="M18.85,107.48c.16-1.29.29-2.49.49-3.87A9.92,9.92,0,0,1,18.85,107.48Z"/><path class="cls-5" d="M82.19,252.55c-.24-.06-.53-.12-.72-.18l-.59-.18-.67-.1a3.8,3.8,0,0,1,.66,0,3.37,3.37,0,0,1,.67.19A4.89,4.89,0,0,1,82.19,252.55Z"/><path class="cls-5" d="M230.15,262.63c-2.31.49-3,.16-3.48-.2A14,14,0,0,1,230.15,262.63Z"/><path class="cls-5" d="M274.74,246.55l.11.94A4,4,0,0,1,274.74,246.55Z"/><path class="cls-5" d="M264.59,156.62a5.08,5.08,0,0,1,.35-1.25C265.2,156.11,265,156.59,264.59,156.62Z"/><path class="cls-5" d="M228.14,92.17a31.68,31.68,0,0,1,7.4,4.89l3.29,2.78.81.66.4.32.2.15s0,0,0,.06a.43.43,0,0,0,.11.19,2.87,2.87,0,0,0,.3-.74,1.77,1.77,0,0,1,.11.84v0l1.05-.68a4.47,4.47,0,0,0,0,.72l0,.33L242,103c.31,2.23.62,4.44.9,6.48.54,4.09.84,7.53.15,9.2l1.66-1.23-.23,9.2.53-5.32c1.71,10.08,2.35,25.65,2.65,27.81l.54-1c.56,1.61.3,3,.31,4.74l.82-1.47c1.74,15.3,4.55,19.17,5.75,36.35.85,4.61,0-2.62.54-2.76,1.12,2.43,1.15,8.49.88,9.84,1.38-1.55,0-8.67,1.93-3.39-.26,4,1.1-2.83,1.7,4l-1.66,2.93c.85,3.75,1.67.55,2.26,6.58,0,7-3.38-8.08-2.22,3,.86,5.51,6.18,11,6.52,21.86,2.26,9.1,2.48-5.27,3.65,7.58l.24-8.36c.85,2,1.67.57,2,6.17a25.13,25.13,0,0,0-.8,8.41c-.06-12.17,3.67,10.19,4.18-1.21l.47,4.16c0-.52.19-.68.37-.43l.87,5.5c0-3.46-.89-11.58,1.08-8l1.42,7.95c.83-2.28,1.68.58,2.52,0l-1-23.8c-.54,1-.53,4.46-1.38,3.28-1.41-6.19.54-5.28-1.16-11l-.54,2.72c.27-.52.27-1.36.55-.09.85,2,.3,3-.26,3.08-1.4-1.92-1.43-8-.88-9.84-1.15-7.62-2.24-1.31-2.8-2.94,1.37-4.2-1.73-12.75-1.48-17.6l-.82,3.2c-2.25-5.61-1.72-11-1.74-14.44l-.83,1.45c-.88-8.11-4.78-11.68-2-18.31l-.56.94c-.75-3.27-2.16-8.21-1.52-11.54-.43,0-1-.51-1.33-1.84,1.14-2-.36-5.29-1.25-10.15.07,3.3-1.85,2.49-1.83,6-2.82-7.3,1.08-7.18.22-13.52-1.42-3.68-.55,3.54-1.1,4.54-.32-9.92-6.77-19.57-4-26.22l1.69,4c.26-4,0-6.1-.3-5.58a2.5,2.5,0,0,1-.28,2.19,38.86,38.86,0,0,1-1.55-11.22c0-.86,0-1.72,0-2.57l.05-1.28c0-.46,0-.77,0-1.39,0-2.25,0-4.65-.13-7.24q-2.13-1.68-4.73-3.47L248.78,88l-1-.66c-.67-.42-1.36-.83-2.08-1.23.38,1,1.71,2.15,1.47,2.67-5-2.37-2.66-5.82-10.92-9.43l1.06,1.6c-2.76-1.19-4-3.33-3.54-3.3-1.84,2.45-15.82-10.24-23.19-10.21a24.55,24.55,0,0,0-2.56-2.8c-.13-.13-.26-.25-.39-.39l-.31-.32-.61-.63c-.42-.42-.83-.83-1.25-1.22-.11-.9-.23-1.74-.37-2.53,0-.21-.06-.36-.12-.62s-.13-.57-.2-.85q-.21-.82-.42-1.62a22,22,0,0,0-1.76-4.8c-3.34-4.71-.52,5.22-2.74,3.77a28.56,28.56,0,0,1-.93-5.65,26.47,26.47,0,0,0-.53-3.12c-.14-.58-.29-1.15-.52-1.85s-.5-1.5-.83-2.31c.37-.24,1,.39,1.76,1.4l.56.8.53.67c.35.45.69.88,1,1.22.61.69,1.09,1,1.26.45a4.39,4.39,0,0,0,0-1.61c0-.4-.12-.88-.22-1.44s-.39-1.73-.65-2.79c-.52-.66-1-1.28-1.52-1.85.33.8.71,1.76,1.12,2.8.2.53.4,1.08.58,1.66a11.27,11.27,0,0,1,.32,1.31c0,3.59-1.64-1.48-2.51-2.76l-1.65-6.1-9.62-3c-.11-.5.27-.72.91-.78h.52a4.72,4.72,0,0,1,.71.07c.6.09,1.27.22,2,.36,2.75.57,5.78,1.39,6.52,1.35-1.86-.46-3.78-.9-5.71-1.32l-2.9-.6L187.9,32l-8.24-1.33c-5.48-.92-10.83-2-15.25-3.84l.69.89c-11.27-4.68-7.69,1.33-16.21-4-5-.89,1.27,2.33-6.18.44-2.1-.56-.69-.89-.25-1-8.94-3.1-4.46.56-12.42-3.34l1.3,2.34c-9.66-4-19.27-10.11-28.14-11.68.13,1.57,5.52,2.9,7.35,4.56a79.41,79.41,0,0,0-15.2-5.57C92.6,8.7,89.82,8,87.1,7.28l-4-1.07-2.2-.6L78.59,5l-2.33.58c-.76.18-1.57.37-2.13.48-1.23.26-2.42.48-3.57.64,2.91-2.1-5.89-1.41.77-4.32a3.67,3.67,0,0,0,2.6.36,43.49,43.49,0,0,0,4.66-1.35c.77.16,1.58.35,2.41.55l1.27.33.64.18.56.18-.14-.15-.23-.17a4.85,4.85,0,0,0-.5-.34,11.23,11.23,0,0,0-1.15-.66A27.93,27.93,0,0,0,78.59,0c-1.54.24-3.37.65-5.16,1.11-1.14.29-2.34.65-3.55,1.06C67.46,3,65,4,62.66,4.82c-4.61,1.75-8.5,3.08-9.7,1.8l-1.2,1.86c-1.72.24-6.23.32-3.44-.92l-11.7,4.18c4.49-.07,14,0,16.37-2.31,3.81.59-4.62,2.34-1.14,3.25-8.64-.18-4.64,2.35-13.06,4.1,3.19-3.08-9-.54-8.9-1.64-2.82,1.19-8.06,1.59-13.21,2.25-2.1.52-4.87,1.37-8,2.36,0,4.23,0,9.21.06,14.21a68.91,68.91,0,0,1-.44,9.53c.79-3,1.87-7.71,3.22-7.31-.94,3.88-1.1,8.16.46,9,1.73-6.87.86-8-.13-9a3.81,3.81,0,0,1-1.29-2.07c0-.14-.06-.29-.08-.45a5.69,5.69,0,0,1,0-.59c0-.5,0-1.08,0-1.74a44.81,44.81,0,0,1,.55-5,16.31,16.31,0,0,0,1.56-3.47c1.71-.11,3.42-.31,5.29-.61.94-.14,1.91-.31,2.94-.5l3.19-.6a8,8,0,0,0-1.31,1.07,1.19,1.19,0,0,0-.35.72,4,4,0,0,1-.14,1.53,20.51,20.51,0,0,0-7.3.24,98.7,98.7,0,0,0-.52,12.08A59.49,59.49,0,0,1,13.34,49C12.05,53.28,9.8,49.91,9,59.76l-.81-8.53C8.83,60.6,7,53.38,6.21,61.07l1.36-3c0,4.72-.24,6.44-1.25,9L8.4,63.16c.13,2.55.18,7.26-1,7.28.43.67.79.92,1.12.93C8.23,71.85,8,73,7.92,76c.29-1.73.22-3,.79-3-.92,11.32,1.95,2.74,1.48,9.76.48-1.1,1,.93,1.08,3.45-3-.29-4,13.62-5.78,17.23l0,0-1.6,9.44c.33-1.92,1.06.19,1.26,3v-.44c.34,3,3.41-3.45,2.17,5.55l-1.09,4.72c.15-.85.57,0,.78.45L6,131c2.5,7.6-2.16,14.06-1.15,22.92-.13-2.55.24-6.41,1.08-4.71a13.12,13.12,0,0,1-.66,5.59l.35-.43L3.11,171c1.07-1.32,1.54-10.7,2.51-6.46,1.26,2.54-.39,7.3-.61,10.31-.78-.42-1.25-6-1.91-.41.36.7,1,6.07,1.63,3.58-1.05,5.72-1.88,14-3.5,19.13.28,1.65.71-.91.86-1.76L1.88,195c.58-3.45,2.05-.45,1.51-7.28,2.63-.47.32,9.83.43,15.81L6,194.08a61.3,61.3,0,0,1,.83,7.75c.07,1.34.1,2.69.1,4.08s0,2.9-.09,4.37c1,1.31,2.05,2.68,3,4s1.9,2.64,2.83,4c1.87,2.68,3.69,5.41,5.47,8.09,3.57,5.37,7,10.57,10.37,14.94-3.5-3.19-5.28-6.74-6.54-5.06,5.27,8.4,4.83,7.11,10.53,15.14l-.43-.73c.24.2.48.43.71.66a10.51,10.51,0,0,1,.79.85c.63.73,1.24,1.5,1.85,2.29,1.21,1.58,2.41,3.28,3.59,4.93,2-.15,3.94-.32,5.7-.59a23.48,23.48,0,0,0,2.43-.51,5.68,5.68,0,0,0,1.76-.72,5.54,5.54,0,0,0-2.28-.1c-.91.1-1.9.28-2.87.45-1.92.34-3.77.64-4.14.06a1.79,1.79,0,0,1,.09-.86l.17.23,14-1.38a19,19,0,0,0-5.53,0c-2.61.26-5.53.7-8.28,1.08-1.44-1.75-2.79-3.44-3.79-4.88-2.17-2.65,2.38,3.46,3.31,6,.54.14.63.37.08.72l-.4,0q-1.82-2.37-3.25-4.36c-.48-.66-.93-1.29-1.36-1.9l-.61-.88-.28-.42-.2-.31a37,37,0,0,1-2.4-4.33A58,58,0,0,1,28.47,239c-.88-3.71,4.37,3,5.7,4.72a51,51,0,0,0,2.39,5.42,76.72,76.72,0,0,0,4,6.67c1.45,0,3-.1,4.62-.22l2.47-.19,2.23-.22c2.87-.32,5.82-.78,8.81-1.4l6.09-2.4c5.83.92,3.76,4.24,13.94,2.72l-3.19-.89a22,22,0,0,1,4.71-1.16c-4.48-.44-9.34-1-13.41-1.48,3.24-1.91,8.42-1.77,14-1.43a109.12,109.12,0,0,0,11.33,2.14c-.43-.35-3.43-.57-4.3-1.28,12.84-.11,26.14,3.53,36,4.33,4.23-1-8.19-1.08-6.08-2.71,5.17.86,11.11-.4,12.44,1.23-2.18-2.34,12,.31,2.1-2.19,18.79-.25,39.36,2.63,58.27,4.66-.9-.72-.88-1.28-.06-1.71-6.42-.22-15.82-1.23-19.32-2.94,4.26-1,9.92,1.93,11.15,1.3-2.13-.64-6.4-.79-6.43-1.92,5.54-1.06,8.55.86,12.41,1.22l-2.12.49a40.22,40.22,0,0,1,6.44,1.54,21.22,21.22,0,0,1,2.13,1.57,13.64,13.64,0,0,0,1.77,1.28c1.39.82,3.5,1.62,8.14,2.7,4.84,0,.27-1.09.66-2.75,2.72,1.47,12.58,2.36,15.1,5l-7.49-2c3.68,1.41,7.23,2.52,10.26,3.64,1.23-.15,2.42-.27,3.48-.32a2.63,2.63,0,0,0-1.94-.51c4.24-.31,9.7-1.57,12.06-.9l.83-2c-2.36,1.3-9.86,3-11.34,2.25.41-1.71,8.22-2.3,11.53-3.1a85.88,85.88,0,0,1-9.14,1.1c-1.19.07-2.29.12-3.26.13l-2.08-.09c-.58-.31-1.12-.6-1.67-.87l-.21-.1-.3-.12-.63-.25c-.44-.17-.88-.33-1.36-.49a53.85,53.85,0,0,0-7.15-1.79l1.9,1.13A41.59,41.59,0,0,1,203.33,254c-1.68-.66-3.34-1.35-5-2L196,251l-1.24-.45-1.57-.52-1.09-.06-1,0,.71-.11c.24,0,.46-.07.65-.12a3.07,3.07,0,0,0,.84-.29c.49-.09.53-.31.1-.62,0,0-.13-.08-.28-.13l-6.3.18c-1.91,0-3.83,0-5.75,0-3.85,0-7.71-.17-11.64-.31-7.87-.29-16-.66-24.75-.58l-5.18-2-.38,1.35c-8.57.26-1.78-2-7.29-2.07,2.09.07,1.71.28,2.12.64-9.85-1.93-5.56,1.05-11.1.4,2.59,1.56,10.7.94,8.15,2.78-9.84-1.93-25.25-1.68-26.58-5-3.67.12-7.52.09-11.44,0-2-.06-3.94-.15-5.93-.25l-6.44-.37-2.7.23-2.25.17-4.45.32-8.69.57-8.16.54-3.82.28-3.44.29c-.38.33-.27.43-.06.51l.17,0s.22,0,.29.05.25.12.06.25a1.84,1.84,0,0,1-.32-.06l-.16-.07c-.11-.05-.22-.08-.33-.12a4,4,0,0,0-.68-.12,5.55,5.55,0,0,0-1.49.1,15.86,15.86,0,0,0-1.38-1.32l-.37-.33-.19-.16-.34-.38-1.42-1.55c-1.74-1.95-2.87-3.38-2.42-3.77a10.82,10.82,0,0,0-4.77-2.62,90.7,90.7,0,0,0-7.19-11.64l1.86,3.17-.42-.17-2.65-4.5.2.09c-2-2.78-4.12-5.64-6.28-8.54l-3.25-4.35-.71-1-.34-.49-.64-1c.08-.65.16-1.27.26-1.87.14-1.42.29-2.83.45-4.21.34-2.77.74-5.43,1.26-7.93-1.38,6.43-2-1.71-2.77,1.32,2.93-5.6,3.55-19.3,3.74-30.42-.57,0-1-.85-1.49.43l1.38-6.39-.72.82c0-11.55,3.51-24,2.55-31.65-.52,4.69-1.08,4.69-2,5.13.41-8.26.77-16.05,2-25.67-.18.51-.39.83-.59.84-.13-2.54.66-5.55,1.09-8.13L18,99.79c.83-4.91.4-11.32,1.73-17.14-1.4-2.37,2-14.16,1.62-21C21.8,59.1,19.57,67.27,20,60c3-.91.47-9.43,3.66-9.87l-.9-6.41,1.64-1.33c-1.37-2.77-1-4.81-.27-7.17l.27-.9c0-.15.09-.33.13-.45l.12-.08.42-.23c.23-.15.33-.22.11-.62-.33-.19-.45-.1-.66-.32a1.53,1.53,0,0,0,.18-.18,2.41,2.41,0,0,1,.86.21c.21.13.28.35.41.65a1.2,1.2,0,0,1,.34,0h.11l.31-.08.69-.18,2.62-.7c3.24-.92,5.12-1.67,1.74-1.62.35.38-1,.77-2.71,1.12-.86.18-1.83.34-2.75.48l-.16,0,0,0-.06,0-.11-.05-.23-.08a.86.86,0,0,1-.06-.74.55.55,0,0,1,.09-.14l.05-.06s0,0,.14-.09l1.25-.52c1.73-.7,3.6-1.46,4.18-2.38a14.14,14.14,0,0,0,1.77.14l.67-1.05c8.16-.68,15.77-3.88,21.94-3.57.21-.49,1.49-1.18,4.19-1.81l.56,1.6,8.25-2.29-4.52-1.33a45.75,45.75,0,0,1,8.93-2c1.4-.18,2.78-.31,4.13-.42l.51,0,.23,0,.06,0a1.1,1.1,0,0,1,.21.14,1.9,1.9,0,0,1,.33.29,2.92,2.92,0,0,1,.31.61c1,.42,2,.82,3.1,1.18,2.66-2.22,14.24,5,21.36,4.34l-5.62-2.33c12.3,3.9,14.73,2.79,26.06,6.9-10.08-1.78-10-2.34-24.93-4,14.7,2.79,24.43,8.34,38,10.36-.7-.89-3.89-2.22-.48-2,2.18,2.11,12.42,3.34,10,4.46,4.24.56,5.37-.78,7.93-.32l13.18,5.77-.33-.44a98.68,98.68,0,0,1,12.89,2.26c1,.25,2.07.51,3.09.79l1.53.42,1.32.38a5.64,5.64,0,0,1,1.18.57,8.59,8.59,0,0,1,0,1.45l1.38,6.43q.69,3.22,1.39,6.46l.36,1.62.09.4,0,.22.1.39.42,1.56,1.71,6.32,7,4.66,1.88,1.26,1.82,1.18c2.44,1.57,5,3.08,7.6,4.51l.09-1,4.41,4.39c-3.54-3.3,2.35.15,3.09-.32l12.06,10C231.35,95.94,231.55,93.92,228.14,92.17ZM60.28,21.61l-3.59.86a7.27,7.27,0,0,1-2.27.54l2.27-.54C58.46,21.75,59.61,20.69,60.28,21.61ZM95.36,244.53c1.74.86-2.56.14-3.8.21l6,.44C98.39,244.75,96.23,244.68,95.36,244.53ZM57.18,11.09l1.68-1.64,2.77.16Zm51.54,2.28-4.85-2,.48-.11,4.8,2Zm53.56,24.15c-.3-.15-.58-.28-.91-.48a5.67,5.67,0,0,1,.91.48c3.67,1.85,5.75.31,8.38,3.08C166.34,41.17,164.32,38.8,162.28,37.52ZM77.35,15a1,1,0,0,0-.25,0l-.29,0-.55.08c-.34,0-.65.11-.94.17a10.27,10.27,0,0,0-1.69.48c1.05.41,4.69.46,2.28,1.36-1.93-.29-7.74,1.1-8.12,0A14.4,14.4,0,0,0,74,15.25a7.31,7.31,0,0,1,2-.81,1.56,1.56,0,0,1,.78,0A.89.89,0,0,1,77.35,15ZM18.78,85.26,18.72,84,17.63,88.7ZM16.7,107.52c-1.57,2.6-1.6,9.43-2.11,14.14,1.2,1.27,2.84-3.46,2.94-9C18.9,106.19,15.7,110.11,16.7,107.52ZM113,21.79l-1-1.32,1.24.21-4.81-2c6.91.45,10.9,4.22,14.13,5.56C119.68,23.35,112.35,18.79,113,21.79ZM14,155.06c-1.09,4.72-2.54,13.25-3.53,12.42,1.91.38,3.08-6.47,3.16-8.61A15.31,15.31,0,0,1,14,155.06Zm-3.61-.41c1.16-6.86,2.08-7.3,4.09-12.49.53,6.86-2,8.63-3,7.77-1.08,4.72.2,3.85.33,6.4Zm5.69-6.94L16,144.89c-.66-3.36-2.82-4.14-.44-8.71l.44,8.71A10.18,10.18,0,0,1,16.1,147.71Zm-2.5,58,.77-2.81c-.18,2.8-.48,3.11-.77,2.81l-.09.29c0,.07,0,.1-.07.16l-.16.3-.3.64c-.07-.4-.13-.74-.16-1a2,2,0,0,1,0-.29V205c0-.56,0-.72.11-.66S13.31,205.38,13.6,205.71Zm1.31-44.26.53-8.14C14.52,153.74,14.78,158.85,14.91,161.45ZM12,203.82c0-3.44.13-12.41.2-11.16C13.14,193.52,12.61,201.66,12,203.82ZM159.22,251l-5.13-.3,2.53-1.27Zm-60.31-1.33,1.29-.63,3,.21Zm-55.27,3.51a.61.61,0,0,0,0-1,2.07,2.07,0,0,1-1.36-.38.35.35,0,0,1,0-.12l.05.06a1.69,1.69,0,0,1,1.34.44,19.18,19.18,0,0,0,6.38-1,2.82,2.82,0,0,0-1.11-.26l-.76,0h-.76a9.26,9.26,0,0,1-2.31-.16,5.88,5.88,0,0,1,1.65-.52,8.54,8.54,0,0,1,.9-.1c.41,0,.85-.05,1.28-.06,1.74,0,3.57.07,5.12.11,3.12.09,5.15-.09,3.28-2.21,2.2.31,9.65.71,7.21,1.79-2.91.19-7.09.71-11.09,1.35-2,.33-3.95.68-5.66,1s-3,.69-4.1,1a3.41,3.41,0,0,1-1.85.68A10.85,10.85,0,0,1,43.64,253.15Zm-36-60.39a14.35,14.35,0,0,1,.55-3.41c.42-1.8,1-3.15,1.6-2.59-.74,4.37-1.15,1.54-1.6,2.59A24,24,0,0,0,7.62,192.76Zm.27-13.25-1.16,6.83,1.15-3.42L5.57,193.2C4.89,187.22,6.61,180.37,7.89,179.51Zm-.79-2.46,1.16-1.37L7.05,177.8l0-.75-.26.31L8,165.81ZM14.22,58.81c-3.63-4.49-3.13,10.13-5.06,12.32,1.26.53,3.06,5,3.48-6.3.88,9.82-2.72,6,.23,12a60.84,60.84,0,0,1,1.32-11.12L14.1,71.2C16.59,68.17,13.29,62.66,14.22,58.81ZM39.67,18.06l7-1.83L40,17.74ZM201.19,56.74c.25-.26.94.62,1.69,2l.55,1.05c.17.3.32.62.47.95a12.23,12.23,0,0,1,.73,2,3.94,3.94,0,0,1,1.78,2c-.83-.46-1.68-.95-2.51-1.44l-.72-2c-.23-.68-.43-1.21-.69-1.88A8.45,8.45,0,0,0,201.19,56.74ZM253,107.14l-.16-4.1-.18-4.29a1.8,1.8,0,0,1,.69.77,6,6,0,0,1,.43,1.16,13.25,13.25,0,0,1,.28,2.84,35,35,0,0,0,.35,6.41C253.59,111.38,253.86,108.31,253,107.14ZM260,159.8v2.62l1.65-3Zm2.21-3.89c1.11,1.5.81-4.09.52-5.38Zm8,47.21-.57-3.36L268.23,203Zm-2.8-5.1c1.17-1,2.95-.86,1.06-8.52-1.39-.14-1.1,2-3.06-.71a22.52,22.52,0,0,0,1.14,5.89c0-1.77-.85-3.75,0-4.35a19.7,19.7,0,0,1,.88,7.69,2.3,2.3,0,0,0-.84,1.86C267,199.8,267.24,199.09,267.38,198Zm-5.13-28a9,9,0,0,0-.87-2.25l.27-.51a3.52,3.52,0,0,1,.6,2.76c.32,1.1.65,2.39,1,3.71,1.25.72,1.32-4.71,1.77-6.19,0,2.57-.82,4.91.31,8.17.28-.48.56-.09.27-2.2l.86,4.6c-.88,5.51-2,.51-3.21-4.38-.28-.12-.59-.46-1-1.36A5,5,0,0,1,262.25,170.05Zm2.38,37.58v-2.58c.27-1.36.83-.59,1.11-1.09C266,207,265.76,210.93,264.63,207.63ZM215.94,74.45c1.62.62-1-2.63-4.39-4.38l2.63-.34c-.52,1,6,5,6.7,5.56C221.18,77.35,219,75.18,215.94,74.45ZM64.42,12.6c-1.91-1.71-11,2.12-13.24,2.15C56,13,67,9.42,64.42,12.6ZM48.29,17.91C45.7,18.59,45,19,45,17.87c-1.37-.09-3.26,1-4.64.94,4.78-2.29,4.92-.55,7.93-.9.68-.18,1.44-.37,2.42-.57A11.29,11.29,0,0,1,48.29,17.91ZM147.83,28.7l3,2.46,5.39,1.33Zm45.46,23.19c.73-.7,2.61,5.39,2.57,6.79,1-.73-.37-4.78-1.24-8.07a11.61,11.61,0,0,0-.51-2.19c.12.66.29,1.38.51,2.19.1,1.3-.74.63-1.14.75l-.82-1.52,1.06,4.6Zm55.36,77c1.42,3.66,1.14,4.15,1.15,6.73C249.24,134.84,248.67,131.47,248.65,128.86Zm-74.77-89c6.35,1.12-2.5-2.55,1.72-2l-3.28-.77c5.6.22,3.4,2.33,7.2,3L177,39.6c-2.26.56,3.59,1.79,3.82,2.78C177.78,42,171.36,39.37,173.88,39.82Zm74.8,95.12c2,6.15-.52,5.35-.23,9.19C246.76,139.25,249,139.7,248.68,134.94ZM191.56,61.62l-.34-.32.22,1.28.06.33a3.35,3.35,0,0,0,.08.4l.27,1.17,1.1,4.76.42.6-1.1-4.73L192,64l-.14-.58-.06-.28,0-.18Z"/><path class="cls-5" d="M261.53,141.21a16.66,16.66,0,0,1,.48,3.42A34,34,0,0,1,261.53,141.21Z"/><path class="cls-5" d="M31.13,14.21c-.06.34-.55.64-1.24.93C29.93,15,30.23,14.67,31.13,14.21Z"/><path class="cls-5" d="M17.4,17.2l-.72.19-.65.07Z"/><path class="cls-5" d="M226.77,264.85c1.15.35,1,.54.28.67l-.75.11-1,.11-2.22.23c-.75-.28-1.44-.54-2-.69a10.15,10.15,0,0,0,2,.36C224.41,265.11,225.28,264.59,226.77,264.85Z"/><path class="cls-5" d="M209.84,259.29a20.74,20.74,0,0,0,4.85,2.27A15.19,15.19,0,0,1,209.84,259.29Z"/><path class="cls-5" d="M223.12,263.74a61.89,61.89,0,0,1-8.43-2.18c1,.27,2.05.39,3.31.65.63.13,1.33.3,2.13.53S222,263.31,223.12,263.74Z"/><path class="cls-5" d="M165.26,253.67c2.61,1,7.71.73,7.71.73-11.12.4,2.17,1.77,3.06,2.48C169.15,256.3,169.15,255.17,165.26,253.67Z"/><path class="cls-5" d="M150.59,252.64a23.39,23.39,0,0,0,3.08,0A11,11,0,0,1,150.59,252.64Z"/><path class="cls-5" d="M146.43,253.35a15.17,15.17,0,0,1-6.87-2.28c4.68-.55,7.58,1.19,11,1.57C147.87,252.55,145.21,252.34,146.43,253.35Z"/><path class="cls-5" d="M28.59,247.46c.45.76,1.76,2.44,1.35,2.83l-4-5.07C24.66,243,27.7,246.51,28.59,247.46Z"/><path class="cls-5" d="M16.22,227c-3.07-4.12-2.59-1.11-3.92-3.37l1.7-.95Z"/><path class="cls-5" d="M25.67,223.33l.78,1.31c-.33-.46-.66-.91-1-1.41Z"/><path class="cls-5" d="M2.33,204l-.57.87-.28.43a2.09,2.09,0,0,0-.29.53c-.4.9-.79,1.85-1.19,2.85.43-3.88,1-4.31,1.52-4.86S2.41,203.55,2.33,204Z"/><polygon class="cls-5" points="1.71 184.32 0.92 187.3 1.95 177.9 1.71 184.32"/><polygon class="cls-5" points="3.72 160.76 3.3 159.91 4.11 153.47 3.72 160.76"/><path class="cls-5" d="M132.57,18.15c.47,2-9.27-1.44-12.29-1.78C122.86,14.72,128,19.27,132.57,18.15Z"/><path class="cls-5" d="M259.54,132.43l-.88-9.81C260.36,130.09,258.94,124.73,259.54,132.43Z"/></g></g></g></g></svg>